<?xml version="1.0" standalone="no"?>
<!DOCTYPE svg PUBLIC "-//W3C//DTD SVG 1.1//EN" "http://www.w3.org/Graphics/SVG/1.1/DTD/svg11.dtd" >
<svg xmlns="http://www.w3.org/2000/svg">
<metadata>
This is a custom SVG webfont generated by Font Squirrel.
Copyright   :  2011 Copyright by Line to All rights reserved
Designer    : Aurele Sack
Foundry     : Aurele Sack wwwline tocom
Foundry URL : httpwwwline tocom
</metadata>
<defs>
<font id="BrownProBold" horiz-adv-x="1208" >
<font-face units-per-em="2048" ascent="1536" descent="-512" />
<missing-glyph horiz-adv-x="552" />
<glyph unicode="ffl" horiz-adv-x="2232" d="M41 768v225h256v41q0 221 106 324q121 117 310 117q86 0 157 -19l-41 -227q-37 10 -79 10q-100 0 -150 -57q-37 -47 -37 -158v-31h492v41q0 221 106 324q121 117 309 117q86 0 158 -19l-41 -227q-37 10 -80 10q-100 0 -149 -57q-37 -47 -37 -158v-31h491v461h267v-1454 h-267v768h-491v-768h-266v768h-492v-768h-266v768h-256z" />
<glyph unicode="ff" horiz-adv-x="1699" d="M41 768v225h256v41q0 221 106 324q121 117 310 117q86 0 157 -19l-41 -227q-37 10 -79 10q-100 0 -150 -57q-37 -47 -37 -158v-31h492v41q0 221 106 324q121 117 309 117q86 0 158 -19l-41 -227q-37 10 -80 10q-100 0 -149 -57q-37 -47 -37 -158v-31h307v-225h-307v-768 h-266v768h-492v-768h-266v768h-256z" />
<glyph unicode="ffi" horiz-adv-x="2232" d="M41 768v225h256v41q0 221 106 324q121 117 310 117q86 0 157 -19l-41 -227q-37 10 -79 10q-100 0 -150 -57q-37 -47 -37 -158v-31h492v41q0 221 106 324q121 117 309 117q86 0 158 -19l-41 -227q-37 10 -80 10q-100 0 -149 -57q-37 -47 -37 -158v-31h758v-993h-267v768 h-491v-768h-266v768h-492v-768h-266v768h-256zM1772 1345.5q0 71.5 51 121t122.5 49.5t123 -49.5t51.5 -121t-51.5 -120.5t-123 -49t-122.5 49t-51 120.5z" />
<glyph unicode="fi" horiz-adv-x="1474" d="M41 768v225h256v41q0 221 106 324q121 117 310 117q86 0 157 -19l-41 -227q-37 10 -79 10q-100 0 -150 -57q-37 -47 -37 -158v-31h758v-993h-266v768h-492v-768h-266v768h-256zM1014 1345.5q0 71.5 51 121t123 49.5t123 -49.5t51 -121t-51 -120.5t-123 -49t-123 49 t-51 120.5z" />
<glyph unicode="fl" horiz-adv-x="1474" d="M41 768v225h256v41q0 221 106 324q121 117 310 117q86 0 157 -19l-41 -227q-37 10 -79 10q-100 0 -150 -57q-37 -47 -37 -158v-31h492v461h266v-1454h-266v768h-492v-768h-266v768h-256z" />
<glyph horiz-adv-x="0" />
<glyph horiz-adv-x="0" />
<glyph unicode="&#xd;" horiz-adv-x="552" />
<glyph unicode=" "  horiz-adv-x="552" />
<glyph unicode="&#x09;" horiz-adv-x="552" />
<glyph unicode="&#xa0;" horiz-adv-x="552" />
<glyph unicode="!" horiz-adv-x="768" d="M205 157.5q0 75.5 51 128t127 52.5t128 -52.5t52 -128t-52 -126.5t-128 -51t-127 51t-51 126.5zM250 993v441h266v-441l-41 -522h-184z" />
<glyph unicode="&#x22;" horiz-adv-x="983" d="M143 1434h267l-41 -523h-185zM573 1434h267l-41 -523h-185z" />
<glyph unicode="#" horiz-adv-x="1501" d="M72 379v225h284l62 225h-225v226h286l101 379h233l-100 -379h258l100 379h234l-101 -379h226v-226h-285l-64 -225h226l8 -225h-293l-100 -379h-234l100 379h-258l-100 -379h-233l100 379h-225zM590 604h258l61 225h-258z" />
<glyph unicode="$" horiz-adv-x="1095" d="M20 195l181 188q143 -158 338 -158q92 0 150.5 51.5t58.5 129.5q0 82 -66 132t-200 101t-193 86q-203 119 -203 326q0 143 90 243.5t230 139.5v235h245v-221q174 -18 324 -129l-144 -205q-102 94 -247 94q-88 0 -155 -39t-67 -116q0 -61 69 -107.5t165 -82.5t193.5 -83 t166 -141t68.5 -229q0 -158 -106.5 -271.5t-266.5 -146.5v-228h-245v230q-212 39 -386 201z" />
<glyph unicode="%" horiz-adv-x="1976" d="M102 1075.5q0 157.5 113 268t276.5 110.5t276.5 -110.5t113 -268t-113 -268.5t-276.5 -111t-276.5 111t-113 268.5zM348 1075.5q0 -65.5 40 -109.5t103.5 -44t103.5 44t40 109.5t-40 109.5t-103.5 44t-103.5 -44t-40 -109.5zM459 0l837 1434h228l-838 -1434h-227z M1096 358.5q0 157.5 112.5 268t276.5 110.5t276.5 -110.5t112.5 -268t-112.5 -268t-276.5 -110.5t-276.5 110.5t-112.5 268zM1341 358.5q0 -65.5 40 -109.5t103.5 -44t103.5 44t40 109.5t-40 109.5t-103.5 44t-103.5 -44t-40 -109.5z" />
<glyph unicode="&#x26;" horiz-adv-x="1351" d="M51 449q0 248 256 419q-113 150 -112 275q0 131 102 221t242 90q150 0 247 -95t97 -241q0 -172 -189 -317l275 -316q20 76 20 154q0 104 -35 225l248 60q43 -147 43 -287q0 -217 -88 -367l236 -270h-332l-76 86q-160 -106 -397 -106q-215 0 -376 131t-161 338zM317 449 q0 -92 78 -158t205 -66q125 0 215 56l-342 395q-156 -86 -156 -227zM461 1120q0 -57 69 -135q86 76 86 135q0 37 -21.5 62.5t-55.5 25.5q-33 0 -55.5 -25.5t-22.5 -62.5z" />
<glyph unicode="'" horiz-adv-x="552" d="M143 1434h267l-41 -523h-185z" />
<glyph unicode="(" horiz-adv-x="931" d="M287 512q0 526 291 942l198 -139q-244 -350 -244 -803t244 -803l-198 -139q-291 416 -291 942z" />
<glyph unicode=")" horiz-adv-x="931" d="M156 -291q244 350 243.5 803t-243.5 803l198 139q291 -416 291 -942t-291 -942z" />
<glyph unicode="*" horiz-adv-x="1056" d="M66 1016l69 211l281 -90v297h225v-297l281 92l69 -213l-282 -92l174 -240l-181 -131l-174 240l-174 -240l-180 131l174 240z" />
<glyph unicode="+" horiz-adv-x="1126" d="M92 461v225h359v358h225v-358h358v-225h-358v-359h-225v359h-359z" />
<glyph unicode="," horiz-adv-x="768" d="M102 -287l154 604h287l-246 -604h-195z" />
<glyph unicode="-" horiz-adv-x="962" d="M143 420v225h676v-225h-676z" />
<glyph unicode="." horiz-adv-x="768" d="M225 157.5q0 75.5 51.5 128t127 52.5t128 -52.5t52.5 -128t-52.5 -126.5t-128 -51t-127 51t-51.5 126.5z" />
<glyph unicode="/" horiz-adv-x="931" d="M10 0l666 1434h246l-666 -1434h-246z" />
<glyph unicode="0" horiz-adv-x="1228" d="M113 716.5q0 157.5 27.5 288t85 232.5t156.5 159.5t232.5 57.5t232.5 -57.5t156.5 -159.5t85 -232.5t27.5 -288t-27.5 -287.5t-85 -232.5t-156.5 -159.5t-232.5 -57t-232.5 57t-156.5 159.5t-85 232.5t-27.5 287.5zM389 717q0 -221 54.5 -356.5t171 -135.5t171 135.5 t54.5 356.5t-54.5 356t-171 135t-171 -135t-54.5 -356z" />
<glyph unicode="1" horiz-adv-x="870" d="M113 967v262l348 205h194v-1434h-276v1114z" />
<glyph unicode="2" horiz-adv-x="1116" d="M82 0v164l504 571q141 160 141 281q0 78 -53 135t-133 57q-70 0 -121 -44t-74 -117l-254 75q47 147 171 239.5t282 92.5q188 0 323.5 -126t135.5 -316q0 -201 -185 -412l-305 -354h500v-246h-932z" />
<glyph unicode="3" horiz-adv-x="1173" d="M51 203l199 166q102 -143 266 -144q106 0 187 75t81 185q0 113 -80.5 188t-201.5 75q-90 0 -172 -41v163l268 318h-479v246h870v-164l-260 -320q152 -57 242 -181t90 -284q0 -223 -153.5 -364t-381.5 -141q-276 0 -475 223z" />
<glyph unicode="4" horiz-adv-x="1259" d="M41 328v164l747 942h195v-861h236v-245h-236v-328h-276v328h-666zM438 573h269v336z" />
<glyph unicode="5" horiz-adv-x="1157" d="M82 164l188 176q106 -115 246 -115q100 0 172 66q80 74 80 184q0 119 -88 195q-66 57 -174 57q-117 0 -211 -78l-172 25l92 760h758v-246h-533l-22 -225q47 10 110 10q201 0 334 -109q84 -68 133 -171t49 -218q0 -211 -154.5 -353t-373.5 -142q-250 0 -434 184z" />
<glyph unicode="6" d="M92 469q0 158 141 395l338 570h306l-271 -457h19q207 0 354 -141.5t147 -352.5q0 -209 -150.5 -356t-359.5 -147q-211 0 -367.5 136t-156.5 353zM358 469q0 -100 75 -172t179.5 -72t173 73t68.5 177q0 106 -71.5 181t-184.5 75q-78 0 -154 -35q-86 -116 -86 -227z" />
<glyph unicode="7" horiz-adv-x="1095" d="M92 1188v246h942v-164l-616 -1270h-293l580 1188h-613z" />
<glyph unicode="8" horiz-adv-x="1228" d="M102 444q0 227 207 363q-115 102 -114 252q0 166 119.5 280.5t300 114.5t300 -114.5t119.5 -280.5q0 -150 -114 -252q207 -135 206 -363q0 -195 -148.5 -329.5t-363.5 -134.5t-363.5 134.5t-148.5 329.5zM379 444.5q0 -92.5 67.5 -156t168 -63.5t168 63.5t67.5 156 t-67.5 157t-168 64.5t-168 -64.5t-67.5 -157zM471 1058.5q0 -63.5 40 -105.5t103.5 -42t103.5 42t40 105.5t-40 106.5t-103.5 43t-103.5 -43t-40 -106.5z" />
<glyph unicode="9" d="M82 950q0 209 150.5 356.5t359.5 147.5q211 0 367.5 -136t156.5 -353q0 -158 -141 -396l-338 -569h-305l270 457h-18q-207 0 -354.5 141t-147.5 352zM354 958q0 -106 72 -181t184 -75q78 0 154 35q86 117 86 228q0 100 -75 171.5t-179 71.5t-173 -73t-69 -177z" />
<glyph unicode=":" horiz-adv-x="768" d="M225 153.5q0 75.5 51.5 126t127 50.5t128 -50.5t52.5 -125.5q0 -74 -52.5 -124t-128 -50t-127 49t-51.5 124.5zM225 837.5q0 75.5 51.5 126t127 50.5t128 -50.5t52.5 -125.5q0 -74 -52.5 -124t-128 -50t-127 49t-51.5 124.5z" />
<glyph unicode=";" horiz-adv-x="768" d="M102 -287l154 604h287l-246 -604h-195zM215 837.5q0 75.5 51 126t127 50.5t128 -50.5t52 -125.5q0 -74 -52 -124t-128 -50t-127 49t-51 124.5z" />
<glyph unicode="&#x3c;" horiz-adv-x="1126" d="M92 502v143l942 410v-244l-545 -238l545 -237v-244z" />
<glyph unicode="=" horiz-adv-x="1126" d="M92 246v225h942v-225h-942zM92 676v225h942v-225h-942z" />
<glyph unicode="&#x3e;" horiz-adv-x="1126" d="M92 92v244l545 237l-545 238v244l942 -410v-143z" />
<glyph unicode="?" horiz-adv-x="1024" d="M123 1151q29 129 137.5 216t267.5 87q174 0 294 -105.5t120 -263.5q0 -84 -34 -152.5t-82 -112.5t-96 -79.5t-82 -70.5t-34 -68q0 -39 35 -74l-207 -143q-94 111 -94 223q0 74 34 134.5t82 101.5t96 76.5t82 76.5t34 84q0 57 -41 92t-107 35q-63 0 -103 -37.5t-44 -87.5z M330 153.5q0 75.5 51 126t127 50.5t128 -50.5t52 -125.5q0 -74 -52 -124t-128 -50t-127 49t-51 124.5z" />
<glyph unicode="@" horiz-adv-x="2048" d="M143 512q0 375 257 638t630 263q231 0 431 -108.5t322 -305t122 -436.5q0 -213 -96.5 -352t-282.5 -139q-143 0 -242 108q-119 -109 -280 -108q-100 0 -199.5 47t-173.5 151.5t-74 241.5q0 197 135 318.5t293 121.5q127 0 223 -63v43h217v-494q0 -80 21 -114 q29 -47 86 -47.5t92 50t45 109t10 127.5q0 268 -192.5 446.5t-454.5 178.5q-276 0 -469.5 -196.5t-193.5 -479.5q0 -281 191.5 -478.5t463.5 -197.5q238 0 406 133l126 -186q-229 -172 -518 -172q-375 0 -635 263t-260 638zM782 512q0 -98 66.5 -167t169.5 -69q123 0 186 78 q-4 53 -4 90v230q-66 74 -182 74q-102 0 -169 -69t-67 -167z" />
<glyph unicode="A" horiz-adv-x="1423" d="M0 0l614 1434h195l614 -1434h-288l-136 317h-575l-135 -317h-289zM528 563h365l-182 424z" />
<glyph unicode="B" horiz-adv-x="1280" d="M164 0v1434h487q207 0 322 -101q133 -117 133 -289q0 -68 -27.5 -134t-64.5 -105q96 -47 155.5 -147.5t59.5 -219.5q0 -182 -131 -309q-129 -129 -375 -129h-559zM440 246h277q127 0 184 63q51 55 51 131t-51 131q-57 63 -184 64h-277v-389zM440 881h195q106 0 153 51 q41 45 41 102.5t-41 102.5q-47 51 -153 51h-195v-307z" />
<glyph unicode="C" horiz-adv-x="1464" d="M61 716.5q0 313.5 213 525.5t543 212q313 0 524 -205l-178 -188q-147 147 -348 147q-203 0 -340 -143t-137 -348q0 -209 141.5 -350.5t347.5 -141.5q252 0 406 199l190 -170q-98 -125 -254.5 -199.5t-347.5 -74.5q-332 0 -546 211.5t-214 525z" />
<glyph unicode="D" horiz-adv-x="1454" d="M164 0v1434h450q309 0 494 -136q133 -98 209 -251.5t76 -329.5t-76 -330t-209 -252q-184 -135 -494 -135h-450zM440 246h205q240 0 367 160q104 131 104 311t-104 311q-127 160 -367 160h-205v-942z" />
<glyph unicode="E" horiz-adv-x="1126" d="M164 0v1434h860v-246h-584v-297h441v-246h-441v-399h604v-246h-880z" />
<glyph unicode="F" horiz-adv-x="1064" d="M164 0v1434h860v-246h-584v-297h441v-246h-441v-645h-276z" />
<glyph unicode="G" horiz-adv-x="1546" d="M61 716.5q0 313.5 213 525.5t543 212q313 0 524 -205l-178 -188q-147 147 -348 147q-203 0 -340 -143t-137 -348q0 -209 141.5 -350.5t347.5 -141.5q180 0 320 111v309h-369v246h645v-637q-98 -125 -254.5 -199.5t-347.5 -74.5q-332 0 -546 211.5t-214 525z" />
<glyph unicode="H" horiz-adv-x="1597" d="M164 0v1434h276v-543h717v543h277v-1434h-277v645h-717v-645h-276z" />
<glyph unicode="I" horiz-adv-x="604" d="M164 0v1434h276v-1434h-276z" />
<glyph unicode="J" horiz-adv-x="1024" d="M31 231l237 119q49 -125 168 -125q80 0 125 58q33 43 33 137v1014h276v-983q0 -170 -45 -254q-55 -102 -160.5 -159.5t-230.5 -57.5q-139 0 -246.5 67t-156.5 184z" />
<glyph unicode="K" horiz-adv-x="1423" d="M164 0v1434h276v-574l543 574h365l-631 -656l706 -778h-354l-629 705v-705h-276z" />
<glyph unicode="L" horiz-adv-x="1095" d="M164 0v1434h276v-1188h604v-246h-880z" />
<glyph unicode="M" horiz-adv-x="1761" d="M164 0v1434h194l523 -859l522 859h194v-1434h-276v799l-344 -563h-193l-344 563v-799h-276z" />
<glyph unicode="N" horiz-adv-x="1597" d="M164 0v1434h194l799 -934v934h277v-1434h-195l-799 934v-934h-276z" />
<glyph unicode="O" horiz-adv-x="1617" d="M61 717q0 311 210 524t538 213t537.5 -213t209.5 -524t-209.5 -524t-537.5 -213t-538 213t-210 524zM338 717q0 -205 135 -348.5t336 -143.5t336 143.5t135 348.5t-135 348t-336 143t-336 -143t-135 -348z" />
<glyph unicode="P" horiz-adv-x="1228" d="M164 0v1434h538q250 0 373 -129q113 -117 113 -297.5t-113 -296.5q-121 -127 -373 -127h-262v-584h-276zM440 829h250q121 0 174 58q47 51 47 121q0 72 -47 122q-53 57 -174 58h-250v-359z" />
<glyph unicode="Q" horiz-adv-x="1638" d="M61 717q0 311 210 524t538 213t537.5 -213t209.5 -524q0 -260 -151 -457l233 -260h-313l-90 102q-188 -123 -426 -122q-328 0 -538 213t-210 524zM338 717q0 -205 135 -348.5t336 -143.5q139 0 252 74l-311 352l174 152l295 -332q61 113 61 246q0 205 -135 348t-336 143 t-336 -143t-135 -348z" />
<glyph unicode="R" horiz-adv-x="1372" d="M164 0v1434h522q197 0 313 -107q127 -121 127 -293t-127 -293q-61 -57 -143 -84l537 -657h-342l-510 635h-101v-635h-276zM440 881h230q100 0 139 43q41 45 41 108q0 66 -41 111t-139 45h-230v-307z" />
<glyph unicode="S" horiz-adv-x="1095" d="M20 195l181 188q143 -158 338 -158q92 0 150.5 51.5t58.5 129.5q0 82 -66 132t-200 101t-193 86q-203 119 -203 326q0 182 141.5 292.5t331.5 110.5q233 0 416 -135l-144 -205q-102 94 -247 94q-88 0 -155 -39t-67 -116q0 -61 69 -107.5t165 -82.5t193.5 -83t166 -141 t68.5 -229q0 -186 -143.5 -308t-341.5 -122q-283 0 -519 215z" />
<glyph unicode="T" horiz-adv-x="1136" d="M51 1188v246h1034v-246h-378v-1188h-277v1188h-379z" />
<glyph unicode="U" horiz-adv-x="1536" d="M154 604v830h276v-850q0 -178 94 -267q96 -92 243.5 -92t244.5 92q94 88 94 267v850h276v-830q0 -311 -184 -477q-166 -147 -430 -147t-430 147q-184 166 -184 477z" />
<glyph unicode="V" horiz-adv-x="1394" d="M20 1434h285l391 -979l394 979h284l-579 -1434h-195z" />
<glyph unicode="W" horiz-adv-x="2017" d="M20 1434h279l297 -895l315 895h195l315 -895l297 895h279l-475 -1434h-195l-319 907l-318 -907h-194z" />
<glyph unicode="X" horiz-adv-x="1392" d="M31 0l495 764l-434 670h318l286 -453l287 453h317l-436 -670l498 -764h-318l-348 545l-348 -545h-317z" />
<glyph unicode="Y" horiz-adv-x="1280" d="M10 1434h316l315 -504l313 504h316l-492 -785v-649h-276v649z" />
<glyph unicode="Z" horiz-adv-x="1259" d="M82 0v164l696 1024h-635v246h1004v-164l-698 -1024h739v-246h-1106z" />
<glyph unicode="[" horiz-adv-x="931" d="M287 -410v1844h563v-236h-318v-1372h318v-236h-563z" />
<glyph unicode="\" horiz-adv-x="931" d="M10 1434h246l666 -1434h-246z" />
<glyph unicode="]" horiz-adv-x="931" d="M82 -174h317v1372h-317v236h563v-1844h-563v236z" />
<glyph unicode="^" horiz-adv-x="1064" d="M61 717l379 717h185l379 -717h-254l-218 411l-217 -411h-254z" />
<glyph unicode="_" horiz-adv-x="1064" d="M31 0h1003v-225h-1003v225z" />
<glyph unicode="`" horiz-adv-x="716" d="M143 1475h287l143 -328h-184z" />
<glyph unicode="a" horiz-adv-x="1259" d="M72 496q0 219 142 368.5t345 149.5q168 0 291 -101v80h256v-993h-256v80q-119 -100 -277 -100q-229 0 -374 167q-127 148 -127 349zM338 496q0 -117 74.5 -194t187.5 -77q154 0 240 123v297q-92 123 -246 123q-113 0 -184.5 -80.5t-71.5 -191.5z" />
<glyph unicode="b" horiz-adv-x="1259" d="M154 0v1454h266v-532q117 92 280 92q203 0 345.5 -149.5t142.5 -368.5q0 -201 -127 -349q-145 -168 -375 -167q-158 0 -276 100v-80h-256zM420 348q86 -123 239 -123q113 0 188 77t75 194q0 111 -72 191.5t-184 80.5q-154 0 -246 -123v-297z" />
<glyph unicode="c" horiz-adv-x="1105" d="M72 496q0 217 153.5 367.5t380.5 150.5q127 0 236.5 -54.5t181.5 -144.5l-188 -166q-90 119 -230 119q-115 0 -191.5 -79t-76.5 -193q0 -117 77 -194t197 -77q76 0 138.5 38t99.5 93l205 -153q-168 -223 -451 -223q-229 0 -380.5 149.5t-151.5 366.5z" />
<glyph unicode="d" horiz-adv-x="1259" d="M72 496q0 219 142 368.5t345 149.5q164 0 281 -92v532h266v-1454h-256v80q-119 -100 -277 -100q-229 0 -374 167q-127 148 -127 349zM338 496q0 -117 74.5 -194t187.5 -77q154 0 240 123v297q-92 123 -246 123q-113 0 -184.5 -80.5t-71.5 -191.5z" />
<glyph unicode="e" horiz-adv-x="1095" d="M72 496q0 215 134 366.5t349 151.5q203 0 336 -148.5t133 -359.5q0 -43 -6 -76h-688q10 -104 86 -169.5t182 -65.5q143 0 250 114l151 -151q-72 -84 -181 -131t-226 -47q-225 0 -372.5 142.5t-147.5 373.5zM342 625h410q-6 70 -62.5 122t-134.5 52q-80 0 -141.5 -52 t-71.5 -122z" />
<glyph unicode="f" horiz-adv-x="942" d="M41 768v225h256v41q0 221 106 324q121 117 310 117q86 0 157 -19l-41 -227q-37 10 -79 10q-100 0 -150 -57q-37 -47 -37 -158v-31h307v-225h-307v-768h-266v768h-256z" />
<glyph unicode="g" horiz-adv-x="1259" d="M72 496q0 219 142 368.5t345 149.5q168 0 291 -101v80h256v-938q0 -242 -90 -368q-68 -94 -183.5 -146.5t-257 -52.5t-271.5 57.5t-206 147.5l168 174q133 -143 309 -143q135 0 203 79q61 68 62 234v33q-117 -90 -267 -90q-109 0 -209 45t-167 122q-125 146 -125 349z M338 496q0 -117 74.5 -194t187.5 -77q154 0 240 123v297q-92 123 -246 123q-113 0 -184.5 -80.5t-71.5 -191.5z" />
<glyph unicode="h" horiz-adv-x="1269" d="M154 0v1454h266v-532q119 92 270 92q211 0 344 -160q102 -121 103 -348v-506h-267v526q0 127 -59 187q-55 55 -149 55q-76 0 -142.5 -38t-99.5 -85v-645h-266z" />
<glyph unicode="i" horiz-adv-x="573" d="M113 1345.5q0 71.5 51 121t122.5 49.5t123 -49.5t51.5 -121t-51.5 -120.5t-123 -49t-122.5 49t-51 120.5zM154 0v993h266v-993h-266z" />
<glyph unicode="j" horiz-adv-x="655" d="M-41 -498l41 242q31 -10 70 -10q84 0 127 45q39 41 39 170v1044h266v-1044q0 -211 -72 -314q-104 -147 -338 -147q-65 0 -133 14zM195 1345.5q0 71.5 51 121t122.5 49.5t123 -49.5t51.5 -121t-51.5 -120.5t-123 -49t-122.5 49t-51 120.5z" />
<glyph unicode="k" horiz-adv-x="1218" d="M154 0v1454h266v-782l342 321h375l-486 -446l547 -547h-358l-420 430v-430h-266z" />
<glyph unicode="l" horiz-adv-x="573" d="M154 0v1454h266v-1454h-266z" />
<glyph unicode="m" horiz-adv-x="1945" d="M154 0v993h256v-80q113 100 268 101q205 0 334 -156q147 156 352 156q102 0 195.5 -43t152.5 -117q100 -123 100 -328v-526h-266v537q0 115 -49 170q-55 61 -149 61q-78 0 -142.5 -41t-97.5 -90q8 -66 8 -111v-526h-266v537q0 115 -49 170q-55 61 -150 61 q-135 0 -231 -123v-645h-266z" />
<glyph unicode="n" horiz-adv-x="1269" d="M154 0v993h256v-80q123 100 280 101q211 0 344 -160q102 -121 103 -348v-506h-267v526q0 127 -59 187q-55 55 -149 55q-76 0 -142.5 -38t-99.5 -85v-645h-266z" />
<glyph unicode="o" horiz-adv-x="1200" d="M72 496q0 217 151.5 367.5t376.5 150.5t376.5 -150.5t151.5 -367.5t-151.5 -366.5t-376.5 -149.5t-376.5 149.5t-151.5 366.5zM338 495.5q0 -114.5 73.5 -192.5t188.5 -78t188.5 78t73.5 192.5t-73.5 193.5t-188.5 79t-188.5 -79t-73.5 -193.5z" />
<glyph unicode="p" horiz-adv-x="1259" d="M154 -492v1485h256v-80q123 100 290 101q203 0 345.5 -149.5t142.5 -368.5q0 -203 -125 -349q-68 -78 -168 -122.5t-209 -44.5q-150 0 -266 90v-562h-266zM420 348q86 -123 239 -123q113 0 188 77t75 194q0 111 -72 191.5t-184 80.5q-154 0 -246 -123v-297z" />
<glyph unicode="q" horiz-adv-x="1259" d="M72 496q0 219 142 368.5t345 149.5q168 0 291 -101v80h256v-1485h-266v562q-117 -90 -267 -90q-109 0 -209 45t-167 122q-125 146 -125 349zM338 496q0 -117 74.5 -194t187.5 -77q154 0 240 123v297q-92 123 -246 123q-113 0 -184.5 -80.5t-71.5 -191.5z" />
<glyph unicode="r" horiz-adv-x="839" d="M154 0v993h256v-100q98 121 288 121q33 0 90 -8l-30 -248q-31 10 -96 10q-80 0 -146.5 -45t-95.5 -98v-625h-266z" />
<glyph unicode="s" horiz-adv-x="942" d="M55 113l129 190q109 -98 273 -98q53 0 90 23.5t37 60.5q0 41 -49.5 69.5t-120 51t-142 52.5t-121 92t-49.5 151q0 137 114 223t267 86q92 0 188.5 -30t147.5 -71l-125 -192q-94 68 -190 67q-57 0 -96 -21.5t-39 -57.5q0 -35 49 -59.5t120.5 -47t142.5 -54.5t120 -98.5 t49 -162.5q0 -137 -116 -222t-279 -85q-220 0 -400 133z" />
<glyph unicode="t" horiz-adv-x="1013" d="M41 768v225h276v277h267v-277h327v-225h-327v-379q0 -86 32 -125q43 -49 136 -49q63 0 108 10l41 -225q-57 -20 -166 -20q-236 0 -344 143q-74 98 -74 297v348h-276z" />
<glyph unicode="u" horiz-adv-x="1249" d="M133 467v526h266v-536q0 -115 50 -170q55 -61 149 -62q135 0 231 123v645h267v-993h-256v80q-113 -100 -269 -100q-209 0 -338 159q-100 123 -100 328z" />
<glyph unicode="v" horiz-adv-x="1138" d="M20 993h277l272 -606l273 606h276l-456 -993h-185z" />
<glyph unicode="w" horiz-adv-x="1744" d="M20 993h269l241 -579l250 579h185l247 -579l244 579h268l-417 -993h-185l-250 578l-249 -578h-185z" />
<glyph unicode="x" horiz-adv-x="1118" d="M10 0l381 530l-334 463h305l197 -282l197 282h305l-334 -463l381 -530h-315l-234 336l-233 -336h-316z" />
<glyph unicode="y" horiz-adv-x="1173" d="M20 993h293l291 -596l268 596h281l-684 -1485h-279l275 592z" />
<glyph unicode="z" horiz-adv-x="1085" d="M102 0v164l476 604h-435v225h799v-164l-481 -604h522v-225h-881z" />
<glyph unicode="{" horiz-adv-x="931" d="M102 430v164q184 0 185 139q0 53 -10.5 163t-10.5 171q0 180 109.5 273.5t310.5 93.5h62v-236h-80q-156 0 -156 -139q0 -49 10 -150.5t10 -156.5q0 -82 -24.5 -134.5t-52 -71t-72.5 -34.5q45 -16 72.5 -34.5t52 -71t24.5 -134.5q0 -55 -10 -156.5t-10 -150.5 q0 -139 156 -139h80v-236h-62q-201 0 -310.5 93.5t-109.5 273.5q0 61 10.5 171t10.5 163q-1 139 -185 139z" />
<glyph unicode="|" horiz-adv-x="491" d="M123 -410v1844h246v-1844h-246z" />
<glyph unicode="}" horiz-adv-x="931" d="M184 -174h80q156 0 156 139q0 49 -10.5 150.5t-10.5 156.5q0 82 25 134.5t52.5 71t72.5 34.5q-45 16 -72.5 34.5t-52.5 71t-25 134.5q0 55 10.5 156.5t10.5 150.5q0 139 -156 139h-80v236h62q201 0 310.5 -93.5t109.5 -273.5q0 -61 -10.5 -171t-10.5 -163 q0 -139 184 -139v-164q-184 0 -184 -139q0 -53 10.5 -163t10.5 -171q0 -180 -110 -273.5t-310 -93.5h-62v236z" />
<glyph unicode="~" horiz-adv-x="1167" d="M41 440q29 141 117 236.5t227 95.5q84 0 160 -43t133 -86t96 -43q49 0 85 45t48 117l219 -55q-29 -141 -116.5 -236.5t-227.5 -95.5q-84 0 -159.5 43t-133 86t-96.5 43q-49 0 -85 -45t-48 -117z" />
<glyph unicode="&#xa1;" horiz-adv-x="768" d="M205 839.5q0 75.5 51 125t127 49.5t128 -50.5t52 -123.5q0 -76 -52 -126t-128 -50t-127 50t-51 125.5zM250 -51l41 522h184l41 -522v-441h-266v441z" />
<glyph unicode="&#xa2;" horiz-adv-x="1105" d="M72 495.5q0 180.5 109.5 317.5t283.5 182v234h246v-225q195 -37 313 -189l-188 -166q-90 119 -230 119q-115 0 -191.5 -79t-76.5 -193q0 -117 77 -194t197 -77q76 0 138.5 38t99.5 93l205 -153q-137 -180 -344 -215v-224h-246v234q-176 41 -284.5 179t-108.5 318.5z" />
<glyph unicode="&#xa3;" horiz-adv-x="1085" d="M51 0v164q127 41 197.5 132t70.5 210q0 51 -10 98h-227v225h135q-41 98 -41 211q0 172 128 293t306 121q150 0 254.5 -74.5t151.5 -203.5l-232 -91q-20 53 -64 88t-102 35q-74 0 -125 -48t-51 -120q0 -78 58 -211h276v-225h-198q8 -57 8 -96q0 -141 -82 -262h561v-246 h-1014z" />
<glyph unicode="&#xa4;" horiz-adv-x="1249" d="M82 350l164 162q-53 94 -53 207q0 111 53 205l-164 163l174 175l164 -164q94 53 205 53q113 0 206 -53l162 164l174 -175l-161 -163q51 -96 51 -205q0 -111 -51 -207l161 -162l-174 -174l-162 162q-96 -51 -206 -51q-109 0 -205 51l-164 -162zM459 718.5 q0 -69.5 48 -117.5t117.5 -48t118 48t48.5 117.5t-48.5 118t-118 48.5t-117.5 -48.5t-48 -118z" />
<glyph unicode="&#xa5;" horiz-adv-x="1280" d="M10 1434h316l315 -504l313 504h316l-277 -441h181v-225h-322l-64 -102h386v-226h-396v-440h-276v440h-396v226h386l-66 102h-320v225h179z" />
<glyph unicode="&#xa6;" horiz-adv-x="573" d="M164 389h246v-799h-246v799zM164 635v799h246v-799h-246z" />
<glyph unicode="&#xa7;" horiz-adv-x="1173" d="M72 543q0 182 143 305q-61 84 -61 203q0 182 141 292.5t332 110.5q233 0 415 -135l-143 -205q-102 94 -248 94q-88 0 -154.5 -39t-66.5 -116q0 -53 50 -94t124 -65t162 -60.5t161.5 -79.5t124 -124t50.5 -190q0 -180 -144 -307q61 -88 62 -201q0 -182 -141.5 -292.5 t-331.5 -110.5q-233 0 -416 135l143 205q102 -94 248 -94q88 0 154.5 39t66.5 116q0 53 -50 94.5t-123.5 65t-162 60t-162 79.5t-123.5 124t-50 190zM348 547q0 -55 40 -96t88 -60.5t136 -48.5t138 -51q76 53 75 145q0 55 -41 96t-88 59.5t-136 48.5t-136 50 q-76 -51 -76 -143z" />
<glyph unicode="&#xa8;" horiz-adv-x="1044" d="M143 1314.5q0 67.5 48.5 114t116 46.5t115.5 -46.5t48 -114t-48 -113.5t-115.5 -46t-116 46t-48.5 113.5zM573 1314.5q0 67.5 48.5 114t116 46.5t115.5 -46.5t48 -114t-48 -113.5t-115.5 -46t-116 46t-48.5 113.5z" />
<glyph unicode="&#xa9;" horiz-adv-x="1720" d="M143 717q0 297 210 507t507 210t507 -210t210 -507t-210 -507t-507 -210t-507 210t-210 507zM287 716.5q0 -237.5 168 -405.5t405.5 -168t405.5 168t168 405.5t-168 405.5t-405.5 168t-405.5 -168t-168 -405.5zM463 717q0 176 119.5 293.5t296.5 117.5q160 0 258 -94 l-101 -121q-72 51 -155 52q-100 0 -170 -73t-70 -175.5t71.5 -174t174 -71.5t176.5 74l104 -125q-45 -47 -121.5 -80t-156.5 -33q-180 0 -303 118t-123 292z" />
<glyph unicode="&#xaa;" horiz-adv-x="851" d="M92 1126q0 137 90 232.5t219 95.5q104 0 177 -57v45h182v-631h-182v45q-70 -57 -175 -57q-139 0 -231 106q-80 94 -80 221zM276 1126q0 -70 45.5 -116.5t112.5 -46.5q90 0 141 73v178q-53 76 -143 76q-68 0 -112 -48t-44 -116z" />
<glyph unicode="&#xab;" horiz-adv-x="1349" d="M143 434v144l258 317h293l-319 -389l319 -389h-293zM717 434v144l258 317h293l-320 -389l320 -389h-293z" />
<glyph unicode="&#xac;" horiz-adv-x="1126" d="M92 676v225h942v-655h-225v430h-717z" />
<glyph unicode="&#xad;" horiz-adv-x="962" d="M143 420v225h676v-225h-676z" />
<glyph unicode="&#xae;" horiz-adv-x="1720" d="M143 717q0 297 210 507t507 210t507 -210t210 -507t-210 -507t-507 -210t-507 210t-210 507zM287 716.5q0 -237.5 168 -405.5t405.5 -168t405.5 168t168 405.5t-168 405.5t-405.5 168t-405.5 -168t-168 -405.5zM584 326v784h278q129 0 197 -61q78 -68 78 -177 q0 -121 -101 -180q-16 -12 -49 -22l236 -344h-195l-219 331h-47v-331h-178zM762 803h106q55 0 76 26q14 18 14 43q0 27 -14 46q-25 29 -76 28h-106v-143z" />
<glyph unicode="&#xaf;" horiz-adv-x="942" d="M143 1208v205h656v-205h-656z" />
<glyph unicode="&#xb0;" horiz-adv-x="880" d="M92 1106q0 143 101.5 245.5t247 102.5t246.5 -102.5t101 -245.5t-101 -245.5t-246.5 -102.5t-247 102.5t-101.5 245.5zM297 1106q0 -59 42 -101t101.5 -42t101.5 42t42 101t-42 101t-101.5 42t-101.5 -42t-42 -101z" />
<glyph unicode="&#xb1;" horiz-adv-x="1126" d="M92 61v226h942v-226h-942zM92 602v225h359v258h225v-258h358v-225h-358v-258h-225v258h-359z" />
<glyph unicode="&#xb2;" horiz-adv-x="649" d="M61 696v103l269 325q43 55 43 88q0 25 -14.5 41.5t-39.5 16.5q-45 0 -63 -53l-184 53q23 84 93.5 134t162.5 50q102 0 173.5 -65.5t71.5 -165.5q0 -96 -86 -203l-120 -150h221v-174h-527z" />
<glyph unicode="&#xb3;" horiz-adv-x="606" d="M0 776l121 123q45 -55 123 -55q41 0 70.5 25.5t29.5 66.5t-30.5 68.5t-73.5 27.5q-39 0 -80 -16v102l119 152h-234v164h471v-103l-123 -174q70 -29 111 -89t41 -132q0 -113 -87 -186.5t-208 -73.5q-150 0 -250 100z" />
<glyph unicode="&#xb4;" horiz-adv-x="716" d="M143 1147l144 328h286l-245 -328h-185z" />
<glyph unicode="&#xb5;" horiz-adv-x="1269" d="M154 -492v1485h266v-536q0 -115 49 -170q55 -61 149 -62q135 0 232 123v645h266v-993h-256v80q-113 -100 -268 -100q-98 0 -172 45v-517h-266z" />
<glyph unicode="&#xb6;" horiz-adv-x="1484" d="M51 993q0 119 61.5 221.5t161.5 159.5q100 59 285 60h834v-226h-205v-1618h-246v1618h-205v-1618h-245v963q-182 0 -311.5 129t-129.5 311zM297 993q0 -84 55.5 -145.5t139.5 -69.5v430q-84 -8 -139.5 -69.5t-55.5 -145.5z" />
<glyph unicode="&#xb7;" horiz-adv-x="768" d="M205 495.5q0 75.5 51 128t127 52.5t128 -52.5t52 -128t-52 -127t-128 -51.5t-127 51.5t-51 127z" />
<glyph unicode="&#xb8;" horiz-adv-x="634" d="M164 -307l133 327h195l-62 -327h-266z" />
<glyph unicode="&#xb9;" horiz-adv-x="532" d="M61 1108v199l246 127h123v-738h-205v496z" />
<glyph unicode="&#xba;" horiz-adv-x="851" d="M92 1126.5q0 139.5 92 233.5t241.5 94t242 -94t92.5 -233.5t-92.5 -233.5t-242 -94t-241.5 94t-92 233.5zM276 1126.5q0 -71.5 40 -117.5t110 -46t109.5 46t39.5 117.5t-39.5 117.5t-109.5 46t-110 -46t-40 -117.5z" />
<glyph unicode="&#xbb;" horiz-adv-x="1349" d="M82 117l319 389l-319 389h293l258 -317v-144l-258 -317h-293zM655 117l320 389l-320 389h293l258 -317v-144l-258 -317h-293z" />
<glyph unicode="&#xbc;" horiz-adv-x="1484" d="M133 1108v199l246 127h123v-738h-205v496zM205 0l837 1434h228l-838 -1434h-227zM727 143v103l377 491h123v-440h135v-154h-135v-143h-174v143h-326zM961 297h92v119z" />
<glyph unicode="&#xbd;" horiz-adv-x="1488" d="M133 1108v199l246 127h123v-738h-205v496zM205 0l837 1434h228l-838 -1434h-227zM901 0v102l268 326q43 55 43 88q0 25 -14 41t-39 16q-45 0 -63 -53l-185 53q23 84 93.5 134.5t162.5 50.5q102 0 174 -65.5t72 -166.5q0 -96 -86 -202l-121 -150h221v-174h-526z" />
<glyph unicode="&#xbe;" horiz-adv-x="1511" d="M0 776l121 123q45 -55 123 -55q41 0 70.5 25.5t29.5 66.5t-30.5 68.5t-73.5 27.5q-39 0 -80 -16v102l119 152h-234v164h471v-103l-123 -174q70 -29 111 -89t41 -132q0 -113 -87 -186.5t-208 -73.5q-150 0 -250 100zM176 0l838 1434h227l-838 -1434h-227zM698 143v103 l377 491h123v-440h135v-154h-135v-143h-174v143h-326zM932 297h92v119z" />
<glyph unicode="&#xbf;" horiz-adv-x="1024" d="M82 -143q0 84 34 152.5t82 112.5t96 80t82 70.5t34 67.5q0 39 -35 74l207 143q94 -111 94 -223q0 -74 -34 -134.5t-82 -101.5t-96 -76.5t-82 -76.5t-34 -84q0 -57 41 -92t107 -35q63 0 103 38t44 87l258 -68q-29 -129 -137.5 -216t-267.5 -87q-174 0 -294 105.5 t-120 263.5zM336 840q0 74 52 124t128 50t127 -49.5t51 -125t-51 -125.5t-127 -50t-128 50t-52 126z" />
<glyph unicode="&#xc0;" horiz-adv-x="1423" d="M0 0l614 1434h195l614 -1434h-288l-136 317h-575l-135 -317h-289zM373 1884h286l144 -328h-185zM528 563h365l-182 424z" />
<glyph unicode="&#xc1;" horiz-adv-x="1423" d="M0 0l614 1434h195l614 -1434h-288l-136 317h-575l-135 -317h-289zM528 563h365l-182 424zM618 1556l144 328h287l-246 -328h-185z" />
<glyph unicode="&#xc2;" horiz-adv-x="1423" d="M0 0l614 1434h195l614 -1434h-288l-136 317h-575l-135 -317h-289zM362 1556l205 328h287l205 -328h-185l-163 185l-164 -185h-185zM528 563h365l-182 424z" />
<glyph unicode="&#xc3;" horiz-adv-x="1423" d="M0 0l614 1434h195l614 -1434h-288l-136 317h-575l-135 -317h-289zM322 1610q0 117 60 195.5t167 78.5q66 0 166 -51t139 -51q72 0 82 102l164 -33q0 -117 -60.5 -195.5t-167.5 -78.5q-66 0 -166 51t-139 51q-72 0 -82 -102zM528 563h365l-182 424z" />
<glyph unicode="&#xc4;" horiz-adv-x="1423" d="M0 0l614 1434h195l614 -1434h-288l-136 317h-575l-135 -317h-289zM334 1724.5q0 67.5 48 113.5t115.5 46t116 -46t48.5 -113.5t-48.5 -113.5t-116 -46t-115.5 46t-48 113.5zM528 563h365l-182 424zM764 1724.5q0 67.5 48 113.5t115.5 46t116 -46t48.5 -113.5 t-48.5 -113.5t-116 -46t-115.5 46t-48 113.5z" />
<glyph unicode="&#xc5;" horiz-adv-x="1423" d="M0 0l614 1434h195l614 -1434h-288l-136 317h-575l-135 -317h-289zM485 1741q0 94 65.5 159.5t160 65.5t160 -65.5t65.5 -159.5t-65.5 -159.5t-160 -65.5t-160 65.5t-65.5 159.5zM528 563h365l-182 424zM649 1740.5q0 -26.5 17.5 -44t44 -17.5t44 17.5t17.5 44t-17.5 44 t-44 17.5t-44 -17.5t-17.5 -44z" />
<glyph unicode="&#xc6;" horiz-adv-x="1966" d="M-20 0l862 1434h1022v-246h-584v-297h461v-246h-461v-399h604v-246h-880v317h-525l-190 -317h-309zM627 563h377v627z" />
<glyph unicode="&#xc7;" horiz-adv-x="1464" d="M61 717q0 313 213 525t543 212q313 0 524 -205l-178 -188q-147 147 -348 147q-203 0 -340 -143t-137 -348q0 -209 141.5 -350.5t347.5 -141.5q252 0 406 199l190 -170q-195 -246 -534 -270l-53 -291h-267l121 297q-281 41 -455 243.5t-174 483.5z" />
<glyph unicode="&#xc8;" horiz-adv-x="1126" d="M164 0v1434h860v-246h-584v-297h441v-246h-441v-399h604v-246h-880zM281 1884h286l144 -328h-185z" />
<glyph unicode="&#xc9;" horiz-adv-x="1126" d="M164 0v1434h860v-246h-584v-297h441v-246h-441v-399h604v-246h-880zM492 1556l143 328h287l-246 -328h-184z" />
<glyph unicode="&#xca;" horiz-adv-x="1126" d="M164 0v1434h860v-246h-584v-297h441v-246h-441v-399h604v-246h-880zM256 1556l205 328h287l204 -328h-184l-164 185l-164 -185h-184z" />
<glyph unicode="&#xcb;" horiz-adv-x="1126" d="M164 0v1434h860v-246h-584v-297h441v-246h-441v-399h604v-246h-880zM217 1724.5q0 67.5 48 113.5t116 46t116 -46t48 -113.5t-48 -113.5t-116 -46t-116 46t-48 113.5zM647 1724.5q0 67.5 48 113.5t116 46t116 -46t48 -113.5t-48 -113.5t-116 -46t-116 46t-48 113.5z" />
<glyph unicode="&#xcc;" horiz-adv-x="604" d="M-31 1884h287l143 -328h-184zM164 0v1434h276v-1434h-276z" />
<glyph unicode="&#xcd;" horiz-adv-x="604" d="M164 0v1434h276v-1434h-276zM205 1556l143 328h287l-246 -328h-184z" />
<glyph unicode="&#xce;" horiz-adv-x="604" d="M-47 1556l205 328h286l205 -328h-184l-164 185l-164 -185h-184zM164 0v1434h276v-1434h-276z" />
<glyph unicode="&#xcf;" horiz-adv-x="604" d="M-78 1724.5q0 67.5 48 113.5t116 46t116 -46t48 -113.5t-48 -113.5t-116 -46t-116 46t-48 113.5zM164 0v1434h276v-1434h-276zM352 1724.5q0 67.5 48.5 113.5t116 46t115.5 -46t48 -113.5t-48 -113.5t-115.5 -46t-116 46t-48.5 113.5z" />
<glyph unicode="&#xd0;" horiz-adv-x="1495" d="M0 645v246h205v543h450q309 0 494 -136q133 -98 209 -251.5t76 -329.5t-76 -330t-209 -252q-184 -135 -494 -135h-450v645h-205zM481 246h205q240 0 367 160q104 131 104 311t-104 311q-127 160 -367 160h-205v-297h410v-246h-410v-399z" />
<glyph unicode="&#xd1;" horiz-adv-x="1597" d="M164 0v1434h194l799 -934v934h277v-1434h-195l-799 934v-934h-276zM399 1610q0 117 60.5 195.5t167.5 78.5q66 0 166 -51t139 -51q72 0 82 102l164 -33q0 -117 -60.5 -195.5t-167.5 -78.5q-66 0 -166 51t-139 51q-72 0 -82 -102z" />
<glyph unicode="&#xd2;" horiz-adv-x="1617" d="M61 717q0 311 210 524t538 213t537.5 -213t209.5 -524t-209.5 -524t-537.5 -213t-538 213t-210 524zM338 717q0 -205 135 -348.5t336 -143.5t336 143.5t135 348.5t-135 348t-336 143t-336 -143t-135 -348zM471 1884h287l143 -328h-184z" />
<glyph unicode="&#xd3;" horiz-adv-x="1617" d="M61 717q0 311 210 524t538 213t537.5 -213t209.5 -524t-209.5 -524t-537.5 -213t-538 213t-210 524zM338 717q0 -205 135 -348.5t336 -143.5t336 143.5t135 348.5t-135 348t-336 143t-336 -143t-135 -348zM717 1556l143 328h287l-246 -328h-184z" />
<glyph unicode="&#xd4;" horiz-adv-x="1617" d="M61 717q0 311 210 524t538 213t537.5 -213t209.5 -524t-209.5 -524t-537.5 -213t-538 213t-210 524zM338 717q0 -205 135 -348.5t336 -143.5t336 143.5t135 348.5t-135 348t-336 143t-336 -143t-135 -348zM461 1556l205 328h286l205 -328h-184l-164 185l-164 -185h-184z " />
<glyph unicode="&#xd5;" horiz-adv-x="1617" d="M61 717q0 311 210 524t538 213t537.5 -213t209.5 -524t-209.5 -524t-537.5 -213t-538 213t-210 524zM338 717q0 -205 135 -348.5t336 -143.5t336 143.5t135 348.5t-135 348t-336 143t-336 -143t-135 -348zM420 1610q0 117 60.5 195.5t166.5 78.5q66 0 166 -51t139 -51 q72 0 82 102l164 -33q0 -117 -60.5 -195.5t-166.5 -78.5q-66 0 -166 51t-139 51q-72 0 -82 -102z" />
<glyph unicode="&#xd6;" horiz-adv-x="1617" d="M61 717q0 311 210 524t538 213t537.5 -213t209.5 -524t-209.5 -524t-537.5 -213t-538 213t-210 524zM338 717q0 -205 135 -348.5t336 -143.5t336 143.5t135 348.5t-135 348t-336 143t-336 -143t-135 -348zM430 1724.5q0 67.5 48 113.5t116 46t116 -46t48 -113.5 t-48 -113.5t-116 -46t-116 46t-48 113.5zM860 1724.5q0 67.5 48 113.5t116 46t116 -46t48 -113.5t-48 -113.5t-116 -46t-116 46t-48 113.5z" />
<glyph unicode="&#xd7;" horiz-adv-x="1085" d="M86 276l297 297l-297 297l160 160l297 -297l297 297l159 -160l-297 -297l297 -297l-159 -159l-297 297l-297 -297z" />
<glyph unicode="&#xd8;" horiz-adv-x="1617" d="M18 -20l215 253q-172 201 -172 484q0 311 210 524t538 213q205 0 377 -94l76 94h335l-213 -256q172 -205 172 -481q0 -311 -209.5 -524t-537.5 -213q-207 0 -379 94l-78 -94h-334zM338 717q0 -150 74 -271l604 713q-98 49 -207 49q-201 0 -336 -143t-135 -348zM600 274 q98 -49 209 -49q201 0 336 143.5t135 348.5q0 145 -76 270z" />
<glyph unicode="&#xd9;" horiz-adv-x="1536" d="M154 604v830h276v-850q0 -178 94 -267q96 -92 243.5 -92t244.5 92q94 88 94 267v850h276v-830q0 -311 -184 -477q-166 -147 -430 -147t-430 147q-184 166 -184 477zM432 1884h287l143 -328h-184z" />
<glyph unicode="&#xda;" horiz-adv-x="1536" d="M154 604v830h276v-850q0 -178 94 -267q96 -92 243.5 -92t244.5 92q94 88 94 267v850h276v-830q0 -311 -184 -477q-166 -147 -430 -147t-430 147q-184 166 -184 477zM676 1556l143 328h287l-246 -328h-184z" />
<glyph unicode="&#xdb;" horiz-adv-x="1536" d="M154 604v830h276v-850q0 -178 94 -267q96 -92 243.5 -92t244.5 92q94 88 94 267v850h276v-830q0 -311 -184 -477q-166 -147 -430 -147t-430 147q-184 166 -184 477zM420 1556l205 328h286l205 -328h-184l-164 185l-164 -185h-184z" />
<glyph unicode="&#xdc;" horiz-adv-x="1536" d="M154 604v830h276v-850q0 -178 94 -267q96 -92 243.5 -92t244.5 92q94 88 94 267v850h276v-830q0 -311 -184 -477q-166 -147 -430 -147t-430 147q-184 166 -184 477zM389 1724.5q0 67.5 48 113.5t116 46t116 -46t48 -113.5t-48 -113.5t-116 -46t-116 46t-48 113.5z M819 1724.5q0 67.5 48 113.5t116 46t116 -46t48 -113.5t-48 -113.5t-116 -46t-116 46t-48 113.5z" />
<glyph unicode="&#xdd;" horiz-adv-x="1280" d="M10 1434h316l315 -504l313 504h316l-492 -785v-649h-276v649zM547 1556l143 328h287l-246 -328h-184z" />
<glyph unicode="&#xde;" horiz-adv-x="1228" d="M164 0v1434h276v-287h262q246 0 373 -133q113 -117 113 -293t-113 -293q-125 -131 -373 -131h-262v-297h-276zM440 543h250q121 0 174 57q47 51 47 121q0 72 -47 123q-53 57 -174 57h-250v-358z" />
<glyph unicode="&#xdf;" horiz-adv-x="1239" d="M154 0v1034q0 53 6 96q16 117 80 199q129 166 350 166q186 0 313 -123t127 -297q0 -139 -88 -239q102 -57 163.5 -163t61.5 -229q0 -195 -134 -329.5t-328 -134.5q-127 0 -228 55l115 211q51 -20 96 -21q94 0 153.5 61.5t59.5 151.5q0 109 -80 172q-63 49 -178 49h-68 v246q84 0 134 45q55 51 55 127q0 72 -49 122t-123 50q-82 0 -131 -59q-41 -47 -41 -154v-1036h-266z" />
<glyph unicode="&#xe0;" horiz-adv-x="1259" d="M72 496q0 219 142 368.5t345 149.5q168 0 291 -101v80h256v-993h-256v80q-119 -100 -277 -100q-229 0 -374 167q-127 148 -127 349zM338 496q0 -117 74.5 -194t187.5 -77q154 0 240 123v297q-92 123 -246 123q-113 0 -184.5 -80.5t-71.5 -191.5zM389 1475h287l143 -328 h-184z" />
<glyph unicode="&#xe1;" horiz-adv-x="1259" d="M72 496q0 219 142 368.5t345 149.5q168 0 291 -101v80h256v-993h-256v80q-119 -100 -277 -100q-229 0 -374 167q-127 148 -127 349zM338 496q0 -117 74.5 -194t187.5 -77q154 0 240 123v297q-92 123 -246 123q-113 0 -184.5 -80.5t-71.5 -191.5zM532 1147l144 328h287 l-246 -328h-185z" />
<glyph unicode="&#xe2;" horiz-adv-x="1259" d="M72 496q0 219 142 368.5t345 149.5q168 0 291 -101v80h256v-993h-256v80q-119 -100 -277 -100q-229 0 -374 167q-127 148 -127 349zM297 1147l205 328h286l205 -328h-184l-164 184l-164 -184h-184zM338 496q0 -117 74.5 -194t187.5 -77q154 0 240 123v297 q-92 123 -246 123q-113 0 -184.5 -80.5t-71.5 -191.5z" />
<glyph unicode="&#xe3;" horiz-adv-x="1259" d="M72 496q0 219 142 368.5t345 149.5q168 0 291 -101v80h256v-993h-256v80q-119 -100 -277 -100q-229 0 -374 167q-127 148 -127 349zM266 1200q0 117 60.5 196t167.5 79q66 0 166 -51.5t139 -51.5q72 0 82 103l163 -33q0 -117 -60 -196t-167 -79q-66 0 -166 51.5 t-139 51.5q-72 0 -82 -103zM338 496q0 -117 74.5 -194t187.5 -77q154 0 240 123v297q-92 123 -246 123q-113 0 -184.5 -80.5t-71.5 -191.5z" />
<glyph unicode="&#xe4;" horiz-adv-x="1259" d="M72 496q0 219 142 368.5t345 149.5q168 0 291 -101v80h256v-993h-256v80q-119 -100 -277 -100q-229 0 -374 167q-127 148 -127 349zM266 1314.5q0 67.5 48 114t116 46.5t116 -46.5t48 -114t-48 -113.5t-116 -46t-116 46t-48 113.5zM338 496q0 -117 74.5 -194t187.5 -77 q154 0 240 123v297q-92 123 -246 123q-113 0 -184.5 -80.5t-71.5 -191.5zM696 1314.5q0 67.5 48.5 114t116 46.5t115.5 -46.5t48 -114t-48 -113.5t-115.5 -46t-116 46t-48.5 113.5z" />
<glyph unicode="&#xe5;" horiz-adv-x="1259" d="M72 496q0 219 142 368.5t345 149.5q168 0 291 -101v80h256v-993h-256v80q-119 -100 -277 -100q-229 0 -374 167q-127 148 -127 349zM338 496q0 -117 74.5 -194t187.5 -77q154 0 240 123v297q-92 123 -246 123q-113 0 -184.5 -80.5t-71.5 -191.5zM440 1331 q0 94 65.5 159.5t160 65.5t160 -65.5t65.5 -159.5t-65.5 -159.5t-160 -65.5t-160 65.5t-65.5 159.5zM604 1331.5q0 -26.5 17.5 -44t44 -17.5t44 17.5t17.5 44t-17.5 44t-44 17.5t-44 -17.5t-17.5 -44z" />
<glyph unicode="&#xe6;" horiz-adv-x="1886" d="M72 496q0 219 142 368.5t345 149.5q168 0 291 -101v80h235v-80q104 100 254 101q197 0 336.5 -148.5t139.5 -359.5q0 -43 -7 -76h-708q10 -102 90 -168.5t188 -66.5q78 0 148.5 34.5t111.5 79.5l152 -151q-72 -84 -181.5 -131t-226.5 -47q-76 0 -158.5 27.5t-138.5 72.5 v-80h-235v80q-119 -100 -277 -100q-229 0 -374 167q-127 148 -127 349zM338 496q0 -117 74.5 -194t187.5 -77q154 0 240 123v297q-92 123 -246 123q-113 0 -184.5 -80.5t-71.5 -191.5zM1112 625h430q-10 74 -71.5 124t-139.5 50t-140.5 -48t-78.5 -126z" />
<glyph unicode="&#xe7;" horiz-adv-x="1105" d="M72 496q0 217 153.5 367.5t380.5 150.5q127 0 236.5 -54.5t181.5 -144.5l-188 -166q-90 119 -230 119q-115 0 -191.5 -79t-76.5 -193q0 -117 77 -194t197 -77q76 0 138.5 38t99.5 93l205 -153q-141 -188 -353 -215l-55 -295h-266l119 297q-188 33 -308 174.5t-120 331.5z " />
<glyph unicode="&#xe8;" horiz-adv-x="1095" d="M72 496q0 215 134 366.5t349 151.5q203 0 336 -148.5t133 -359.5q0 -43 -6 -76h-688q10 -104 86 -169.5t182 -65.5q143 0 250 114l151 -151q-72 -84 -181 -131t-226 -47q-225 0 -372.5 142.5t-147.5 373.5zM240 1475h286l144 -328h-185zM342 625h410q-6 70 -62.5 122 t-134.5 52q-80 0 -141.5 -52t-71.5 -122z" />
<glyph unicode="&#xe9;" horiz-adv-x="1095" d="M72 496q0 215 134 366.5t349 151.5q203 0 336 -148.5t133 -359.5q0 -43 -6 -76h-688q10 -104 86 -169.5t182 -65.5q143 0 250 114l151 -151q-72 -84 -181 -131t-226 -47q-225 0 -372.5 142.5t-147.5 373.5zM342 625h410q-6 70 -62.5 122t-134.5 52q-80 0 -141.5 -52 t-71.5 -122zM465 1147l143 328h287l-246 -328h-184z" />
<glyph unicode="&#xea;" horiz-adv-x="1095" d="M72 496q0 215 134 366.5t349 151.5q203 0 336 -148.5t133 -359.5q0 -43 -6 -76h-688q10 -104 86 -169.5t182 -65.5q143 0 250 114l151 -151q-72 -84 -181 -131t-226 -47q-225 0 -372.5 142.5t-147.5 373.5zM219 1147l205 328h287l204 -328h-184l-164 184l-164 -184h-184z M342 625h410q-6 70 -62.5 122t-134.5 52q-80 0 -141.5 -52t-71.5 -122z" />
<glyph unicode="&#xeb;" horiz-adv-x="1095" d="M72 496q0 215 134 366.5t349 151.5q203 0 336 -148.5t133 -359.5q0 -43 -6 -76h-688q10 -104 86 -169.5t182 -65.5q143 0 250 114l151 -151q-72 -84 -181 -131t-226 -47q-225 0 -372.5 142.5t-147.5 373.5zM188 1314.5q0 67.5 48.5 114t116 46.5t115.5 -46.5t48 -114 t-48 -113.5t-115.5 -46t-116 46t-48.5 113.5zM342 625h410q-6 70 -62.5 122t-134.5 52q-80 0 -141.5 -52t-71.5 -122zM618 1314.5q0 67.5 48.5 114t116 46.5t115.5 -46.5t48 -114t-48 -113.5t-115.5 -46t-116 46t-48.5 113.5z" />
<glyph unicode="&#xec;" horiz-adv-x="573" d="M-31 1475h287l143 -328h-184zM154 0v993h266v-993h-266z" />
<glyph unicode="&#xed;" horiz-adv-x="573" d="M154 0v993h266v-993h-266zM174 1147l143 328h287l-246 -328h-184z" />
<glyph unicode="&#xee;" horiz-adv-x="573" d="M-61 1147l204 328h287l205 -328h-184l-164 184l-164 -184h-184zM154 0v993h266v-993h-266z" />
<glyph unicode="&#xef;" horiz-adv-x="573" d="M-90 1314.5q0 67.5 48 114t115.5 46.5t116 -46.5t48.5 -114t-48.5 -113.5t-116 -46t-115.5 46t-48 113.5zM154 0v993h266v-993h-266zM340 1314.5q0 67.5 48 114t115.5 46.5t116 -46.5t48.5 -114t-48.5 -113.5t-116 -46t-115.5 46t-48 113.5z" />
<glyph unicode="&#xf0;" horiz-adv-x="1200" d="M72 496q0 211 141 359.5t360 156.5l-75 104l-203 -115l-102 179l184 104l-119 170h309l31 -43l184 105l101 -181l-164 -94l227 -313q182 -250 182 -432q0 -215 -150.5 -365.5t-373.5 -150.5q-227 0 -379.5 149.5t-152.5 366.5zM338 496q0 -115 75.5 -193t190.5 -78 q113 0 187.5 79t74.5 192q0 117 -75 211l-19 22q-59 39 -151 39q-125 0 -204 -75.5t-79 -196.5z" />
<glyph unicode="&#xf1;" horiz-adv-x="1269" d="M154 0v993h256v-80q123 100 280 101q211 0 344 -160q102 -121 103 -348v-506h-267v526q0 127 -59 187q-55 55 -149 55q-76 0 -142.5 -38t-99.5 -85v-645h-266zM246 1200q0 117 60.5 196t166.5 79q66 0 166 -51.5t139 -51.5q72 0 82 103l164 -33q0 -117 -60.5 -196 t-166.5 -79q-66 0 -166.5 51.5t-138.5 51.5q-72 0 -82 -103z" />
<glyph unicode="&#xf2;" horiz-adv-x="1200" d="M72 496q0 217 151.5 367.5t376.5 150.5t376.5 -150.5t151.5 -367.5t-151.5 -366.5t-376.5 -149.5t-376.5 149.5t-151.5 366.5zM262 1475h287l143 -328h-184zM338 495.5q0 -114.5 73.5 -192.5t188.5 -78t188.5 78t73.5 192.5t-73.5 193.5t-188.5 79t-188.5 -79 t-73.5 -193.5z" />
<glyph unicode="&#xf3;" horiz-adv-x="1200" d="M72 496q0 217 151.5 367.5t376.5 150.5t376.5 -150.5t151.5 -367.5t-151.5 -366.5t-376.5 -149.5t-376.5 149.5t-151.5 366.5zM338 495.5q0 -114.5 73.5 -192.5t188.5 -78t188.5 78t73.5 192.5t-73.5 193.5t-188.5 79t-188.5 -79t-73.5 -193.5zM508 1147l143 328h287 l-246 -328h-184z" />
<glyph unicode="&#xf4;" horiz-adv-x="1200" d="M72 496q0 217 151.5 367.5t376.5 150.5t376.5 -150.5t151.5 -367.5t-151.5 -366.5t-376.5 -149.5t-376.5 149.5t-151.5 366.5zM252 1147l205 328h286l205 -328h-184l-164 184l-164 -184h-184zM338 495.5q0 -114.5 73.5 -192.5t188.5 -78t188.5 78t73.5 192.5t-73.5 193.5 t-188.5 79t-188.5 -79t-73.5 -193.5z" />
<glyph unicode="&#xf5;" horiz-adv-x="1200" d="M72 496q0 217 151.5 367.5t376.5 150.5t376.5 -150.5t151.5 -367.5t-151.5 -366.5t-376.5 -149.5t-376.5 149.5t-151.5 366.5zM211 1200q0 117 60.5 196t166.5 79q66 0 166.5 -51.5t138.5 -51.5q72 0 82 103l164 -33q0 -117 -60.5 -196t-166.5 -79q-66 0 -166 51.5 t-139 51.5q-72 0 -82 -103zM338 495.5q0 -114.5 73.5 -192.5t188.5 -78t188.5 78t73.5 192.5t-73.5 193.5t-188.5 79t-188.5 -79t-73.5 -193.5z" />
<glyph unicode="&#xf6;" horiz-adv-x="1200" d="M72 496q0 217 151.5 367.5t376.5 150.5t376.5 -150.5t151.5 -367.5t-151.5 -366.5t-376.5 -149.5t-376.5 149.5t-151.5 366.5zM221 1314.5q0 67.5 48 114t116 46.5t116 -46.5t48 -114t-48 -113.5t-116 -46t-116 46t-48 113.5zM338 495.5q0 -114.5 73.5 -192.5t188.5 -78 t188.5 78t73.5 192.5t-73.5 193.5t-188.5 79t-188.5 -79t-73.5 -193.5zM651 1314.5q0 67.5 48.5 114t116 46.5t115.5 -46.5t48 -114t-48 -113.5t-115.5 -46t-116 46t-48.5 113.5z" />
<glyph unicode="&#xf7;" horiz-adv-x="1126" d="M92 461v225h942v-225h-942zM410 210.5q0 63.5 45 106.5t108.5 43t108.5 -43t45 -106.5t-45 -106.5t-108.5 -43t-108.5 43t-45 106.5zM410 935.5q0 63.5 45 106.5t108.5 43t108.5 -43t45 -106.5t-45 -106.5t-108.5 -43t-108.5 43t-45 106.5z" />
<glyph unicode="&#xf8;" horiz-adv-x="1200" d="M12 -20l166 200q-106 135 -106 316q0 217 151.5 367.5t376.5 150.5q133 0 248 -58l47 58h293l-168 -201q109 -141 108 -317q0 -217 -151.5 -366.5t-376.5 -149.5q-137 0 -248 57l-47 -57h-293zM338 496q0 -57 18 -103l308 367q-27 8 -64 8q-115 0 -188.5 -78.5 t-73.5 -193.5zM535 231q31 -6 65 -6q115 0 188.5 78t73.5 193q0 55 -18 104z" />
<glyph unicode="&#xf9;" horiz-adv-x="1249" d="M133 467v526h266v-536q0 -115 50 -170q55 -61 149 -62q135 0 231 123v645h267v-993h-256v80q-113 -100 -269 -100q-209 0 -338 159q-100 123 -100 328zM287 1475h286l144 -328h-185z" />
<glyph unicode="&#xfa;" horiz-adv-x="1249" d="M133 467v526h266v-536q0 -115 50 -170q55 -61 149 -62q135 0 231 123v645h267v-993h-256v80q-113 -100 -269 -100q-209 0 -338 159q-100 123 -100 328zM532 1147l144 328h287l-246 -328h-185z" />
<glyph unicode="&#xfb;" horiz-adv-x="1249" d="M133 467v526h266v-536q0 -115 50 -170q55 -61 149 -62q135 0 231 123v645h267v-993h-256v80q-113 -100 -269 -100q-209 0 -338 159q-100 123 -100 328zM266 1147l205 328h287l205 -328h-185l-164 184l-163 -184h-185z" />
<glyph unicode="&#xfc;" horiz-adv-x="1249" d="M133 467v526h266v-536q0 -115 50 -170q55 -61 149 -62q135 0 231 123v645h267v-993h-256v80q-113 -100 -269 -100q-209 0 -338 159q-100 123 -100 328zM236 1314.5q0 67.5 48 114t115.5 46.5t115.5 -46.5t48 -114t-48 -113.5t-115.5 -46t-115.5 46t-48 113.5zM666 1314.5 q0 67.5 48 114t115.5 46.5t115.5 -46.5t48 -114t-48 -113.5t-115.5 -46t-115.5 46t-48 113.5z" />
<glyph unicode="&#xfd;" horiz-adv-x="1173" d="M20 993h293l291 -596l268 596h281l-684 -1485h-279l275 592zM512 1147l143 328h287l-246 -328h-184z" />
<glyph unicode="&#xfe;" horiz-adv-x="1259" d="M154 -492v1946h266v-532q117 92 280 92q203 0 345.5 -149.5t142.5 -368.5q0 -203 -125 -349q-68 -78 -168 -122.5t-209 -44.5q-150 0 -266 90v-562h-266zM420 348q86 -123 239 -123q113 0 188 77t75 194q0 111 -72 191.5t-184 80.5q-154 0 -246 -123v-297z" />
<glyph unicode="&#xff;" horiz-adv-x="1173" d="M20 993h293l291 -596l268 596h281l-684 -1485h-279l275 592zM215 1314.5q0 67.5 48 114t115.5 46.5t116 -46.5t48.5 -114t-48.5 -113.5t-116 -46t-115.5 46t-48 113.5zM645 1314.5q0 67.5 48 114t116 46.5t116 -46.5t48 -114t-48 -113.5t-116 -46t-116 46t-48 113.5z" />
<glyph unicode="&#x100;" horiz-adv-x="1423" d="M0 0l614 1434h195l614 -1434h-288l-136 317h-575l-135 -317h-289zM383 1618v205h655v-205h-655zM528 563h365l-182 424z" />
<glyph unicode="&#x101;" horiz-adv-x="1259" d="M72 496q0 219 142 368.5t345 149.5q168 0 291 -101v80h256v-993h-256v80q-119 -100 -277 -100q-229 0 -374 167q-127 148 -127 349zM322 1208v205h655v-205h-655zM338 496q0 -117 74.5 -194t187.5 -77q154 0 240 123v297q-92 123 -246 123q-113 0 -184.5 -80.5 t-71.5 -191.5z" />
<glyph unicode="&#x102;" horiz-adv-x="1423" d="M0 0l614 1434h195l614 -1434h-288l-136 317h-575l-135 -317h-289zM403 1884h215q0 -39 27 -65.5t66 -26.5t65.5 26.5t26.5 65.5h215q0 -127 -90 -217t-217 -90t-217.5 90t-90.5 217zM528 563h365l-182 424z" />
<glyph unicode="&#x103;" horiz-adv-x="1259" d="M72 496q0 219 142 368.5t345 149.5q168 0 291 -101v80h256v-993h-256v80q-119 -100 -277 -100q-229 0 -374 167q-127 148 -127 349zM338 496q0 -117 74.5 -194t187.5 -77q154 0 240 123v297q-92 123 -246 123q-113 0 -184.5 -80.5t-71.5 -191.5zM342 1475h215 q0 -39 26.5 -66t65.5 -27t65.5 27t26.5 66h215q0 -127 -90 -217.5t-217 -90.5t-217 90.5t-90 217.5z" />
<glyph unicode="&#x104;" horiz-adv-x="1423" d="M0 0l614 1434h195l614 -1434q-53 -78 -53 -129q0 -37 22.5 -61.5t59.5 -24.5q27 0 51 8l31 -223q-41 -20 -133 -21q-125 0 -201 71t-76 175q0 74 33 152l-158 370h-575l-135 -317h-289zM528 563h365l-182 424z" />
<glyph unicode="&#x105;" horiz-adv-x="1259" d="M72 496q0 219 142 368.5t345 149.5q168 0 291 -101v80h256v-993q-53 -78 -53 -129q0 -37 22.5 -61.5t59.5 -24.5q27 0 51 8l31 -223q-41 -20 -134 -21q-125 0 -200.5 71t-75.5 175q0 86 43 191v94q-119 -100 -277 -100q-229 0 -374 167q-127 148 -127 349zM338 496 q0 -117 74.5 -194t187.5 -77q154 0 240 123v297q-92 123 -246 123q-113 0 -184.5 -80.5t-71.5 -191.5z" />
<glyph unicode="&#x106;" horiz-adv-x="1464" d="M61 716.5q0 313.5 213 525.5t543 212q313 0 524 -205l-178 -188q-147 147 -348 147q-203 0 -340 -143t-137 -348q0 -209 141.5 -350.5t347.5 -141.5q252 0 406 199l190 -170q-98 -125 -254.5 -199.5t-347.5 -74.5q-332 0 -546 211.5t-214 525zM680 1556l143 328h287 l-246 -328h-184z" />
<glyph unicode="&#x107;" horiz-adv-x="1105" d="M72 496q0 217 153.5 367.5t380.5 150.5q127 0 236.5 -54.5t181.5 -144.5l-188 -166q-90 119 -230 119q-115 0 -191.5 -79t-76.5 -193q0 -117 77 -194t197 -77q76 0 138.5 38t99.5 93l205 -153q-168 -223 -451 -223q-229 0 -380.5 149.5t-151.5 366.5zM502 1147l143 328 h287l-246 -328h-184z" />
<glyph unicode="&#x108;" horiz-adv-x="1464" d="M61 716.5q0 313.5 213 525.5t543 212q313 0 524 -205l-178 -188q-147 147 -348 147q-203 0 -340 -143t-137 -348q0 -209 141.5 -350.5t347.5 -141.5q252 0 406 199l190 -170q-98 -125 -254.5 -199.5t-347.5 -74.5q-332 0 -546 211.5t-214 525zM461 1556l205 328h286 l205 -328h-184l-164 185l-164 -185h-184z" />
<glyph unicode="&#x109;" horiz-adv-x="1105" d="M72 496q0 217 153.5 367.5t380.5 150.5q127 0 236.5 -54.5t181.5 -144.5l-188 -166q-90 119 -230 119q-115 0 -191.5 -79t-76.5 -193q0 -117 77 -194t197 -77q76 0 138.5 38t99.5 93l205 -153q-168 -223 -451 -223q-229 0 -380.5 149.5t-151.5 366.5zM246 1147l205 328 h286l205 -328h-184l-164 184l-164 -184h-184z" />
<glyph unicode="&#x10a;" horiz-adv-x="1464" d="M61 716.5q0 313.5 213 525.5t543 212q313 0 524 -205l-178 -188q-147 147 -348 147q-203 0 -340 -143t-137 -348q0 -209 141.5 -350.5t347.5 -141.5q252 0 406 199l190 -170q-98 -125 -254.5 -199.5t-347.5 -74.5q-332 0 -546 211.5t-214 525zM645 1755q0 72 51.5 121 t123 49t122.5 -49t51 -121t-51 -121t-122.5 -49t-123 49t-51.5 121z" />
<glyph unicode="&#x10b;" horiz-adv-x="1105" d="M72 496q0 217 153.5 367.5t380.5 150.5q127 0 236.5 -54.5t181.5 -144.5l-188 -166q-90 119 -230 119q-115 0 -191.5 -79t-76.5 -193q0 -117 77 -194t197 -77q76 0 138.5 38t99.5 93l205 -153q-168 -223 -451 -223q-229 0 -380.5 149.5t-151.5 366.5zM379 1345.5 q0 71.5 51 121t123 49.5t123 -49.5t51 -121t-51 -120.5t-123 -49t-123 49t-51 120.5z" />
<glyph unicode="&#x10c;" horiz-adv-x="1464" d="M61 716.5q0 313.5 213 525.5t543 212q313 0 524 -205l-178 -188q-147 147 -348 147q-203 0 -340 -143t-137 -348q0 -209 141.5 -350.5t347.5 -141.5q252 0 406 199l190 -170q-98 -125 -254.5 -199.5t-347.5 -74.5q-332 0 -546 211.5t-214 525zM461 1884h184l164 -184 l164 184h184l-205 -328h-286z" />
<glyph unicode="&#x10d;" horiz-adv-x="1105" d="M72 496q0 217 153.5 367.5t380.5 150.5q127 0 236.5 -54.5t181.5 -144.5l-188 -166q-90 119 -230 119q-115 0 -191.5 -79t-76.5 -193q0 -117 77 -194t197 -77q76 0 138.5 38t99.5 93l205 -153q-168 -223 -451 -223q-229 0 -380.5 149.5t-151.5 366.5zM246 1475h184 l164 -185l164 185h184l-205 -328h-286z" />
<glyph unicode="&#x10e;" horiz-adv-x="1454" d="M164 0v1434h450q309 0 494 -136q133 -98 209 -251.5t76 -329.5t-76 -330t-209 -252q-184 -135 -494 -135h-450zM276 1884h185l164 -184l163 184h185l-205 -328h-287zM440 246h205q240 0 367 160q104 131 104 311t-104 311q-127 160 -367 160h-205v-942z" />
<glyph unicode="&#x10f;" horiz-adv-x="1402" d="M72 496q0 219 142 368.5t345 149.5q164 0 281 -92v532h266v-1454h-256v80q-119 -100 -277 -100q-229 0 -374 167q-127 148 -127 349zM338 496q0 -117 74.5 -194t187.5 -77q154 0 240 123v297q-92 123 -246 123q-113 0 -184.5 -80.5t-71.5 -191.5zM1188 1106l143 328h287 l-246 -328h-184z" />
<glyph unicode="&#x110;" horiz-adv-x="1495" d="M0 645v246h205v543h450q309 0 494 -136q133 -98 209 -251.5t76 -329.5t-76 -330t-209 -252q-184 -135 -494 -135h-450v645h-205zM481 246h205q240 0 367 160q104 131 104 311t-104 311q-127 160 -367 160h-205v-297h410v-246h-410v-399z" />
<glyph unicode="&#x111;" horiz-adv-x="1259" d="M72 496q0 219 142 368.5t345 149.5q164 0 281 -92v184h-267v225h267v123h266v-123h164v-225h-164v-1106h-256v80q-119 -100 -277 -100q-229 0 -374 167q-127 148 -127 349zM338 496q0 -117 74.5 -194t187.5 -77q154 0 240 123v297q-92 123 -246 123q-113 0 -184.5 -80.5 t-71.5 -191.5z" />
<glyph unicode="&#x112;" horiz-adv-x="1126" d="M164 0v1434h860v-246h-584v-297h441v-246h-441v-399h604v-246h-880zM256 1618v205h655v-205h-655z" />
<glyph unicode="&#x113;" horiz-adv-x="1095" d="M72 496q0 215 134 366.5t349 151.5q203 0 336 -148.5t133 -359.5q0 -43 -6 -76h-688q10 -104 86 -169.5t182 -65.5q143 0 250 114l151 -151q-72 -84 -181 -131t-226 -47q-225 0 -372.5 142.5t-147.5 373.5zM225 1208v205h656v-205h-656zM342 625h410q-6 70 -62.5 122 t-134.5 52q-80 0 -141.5 -52t-71.5 -122z" />
<glyph unicode="&#x114;" horiz-adv-x="1126" d="M164 0v1434h860v-246h-584v-297h441v-246h-441v-399h604v-246h-880zM289 1884h215q0 -39 26.5 -65.5t65.5 -26.5t65.5 26.5t26.5 65.5h215q0 -127 -90 -217t-217 -90t-217 90t-90 217z" />
<glyph unicode="&#x115;" horiz-adv-x="1095" d="M72 496q0 215 134 366.5t349 151.5q203 0 336 -148.5t133 -359.5q0 -43 -6 -76h-688q10 -104 86 -169.5t182 -65.5q143 0 250 114l151 -151q-72 -84 -181 -131t-226 -47q-225 0 -372.5 142.5t-147.5 373.5zM260 1475h215q0 -39 26.5 -66t65.5 -27t65.5 27t26.5 66h215 q0 -127 -90 -217.5t-217 -90.5t-217 90.5t-90 217.5zM342 625h410q-6 70 -62.5 122t-134.5 52q-80 0 -141.5 -52t-71.5 -122z" />
<glyph unicode="&#x116;" horiz-adv-x="1126" d="M164 0v1434h860v-246h-584v-297h441v-246h-441v-399h604v-246h-880zM430 1755q0 72 51 121t123 49t123 -49t51 -121t-51 -121t-123 -49t-123 49t-51 121z" />
<glyph unicode="&#x117;" horiz-adv-x="1095" d="M72 496q0 215 134 366.5t349 151.5q203 0 336 -148.5t133 -359.5q0 -43 -6 -76h-688q10 -104 86 -169.5t182 -65.5q143 0 250 114l151 -151q-72 -84 -181 -131t-226 -47q-225 0 -372.5 142.5t-147.5 373.5zM342 625h410q-6 70 -62.5 122t-134.5 52q-80 0 -141.5 -52 t-71.5 -122zM393 1345.5q0 71.5 51.5 121t123 49.5t122.5 -49.5t51 -121t-51 -120.5t-122.5 -49t-123 49t-51.5 120.5z" />
<glyph unicode="&#x118;" horiz-adv-x="1126" d="M164 0v1434h860v-246h-584v-297h441v-246h-441v-399h604v-246h-143q-51 -74 -51 -129q0 -37 22.5 -61.5t59.5 -24.5q27 0 51 8l31 -223q-41 -20 -133 -21q-125 0 -201 71t-76 175q0 113 62 205h-502z" />
<glyph unicode="&#x119;" horiz-adv-x="1095" d="M72 496q0 215 134 366.5t349 151.5q203 0 336 -148.5t133 -359.5q0 -43 -6 -76h-688q10 -104 86 -169.5t182 -65.5q143 0 250 114l151 -151q-82 -98 -217 -146q-59 -76 -59 -141q0 -37 22.5 -61.5t59.5 -24.5q27 0 51 8l31 -223q-41 -20 -133 -21q-125 0 -201 71t-76 175 q0 96 51 189q-201 18 -328.5 158.5t-127.5 353.5zM342 625h410q-6 70 -62.5 122t-134.5 52q-80 0 -141.5 -52t-71.5 -122z" />
<glyph unicode="&#x11a;" horiz-adv-x="1126" d="M164 0v1434h860v-246h-584v-297h441v-246h-441v-399h604v-246h-880zM236 1884h184l164 -184l164 184h184l-205 -328h-287z" />
<glyph unicode="&#x11b;" horiz-adv-x="1095" d="M72 496q0 215 134 366.5t349 151.5q203 0 336 -148.5t133 -359.5q0 -43 -6 -76h-688q10 -104 86 -169.5t182 -65.5q143 0 250 114l151 -151q-72 -84 -181 -131t-226 -47q-225 0 -372.5 142.5t-147.5 373.5zM205 1475h184l164 -185l164 185h184l-205 -328h-286zM342 625 h410q-6 70 -62.5 122t-134.5 52q-80 0 -141.5 -52t-71.5 -122z" />
<glyph unicode="&#x11c;" horiz-adv-x="1546" d="M61 716.5q0 313.5 213 525.5t543 212q313 0 524 -205l-178 -188q-147 147 -348 147q-203 0 -340 -143t-137 -348q0 -209 141.5 -350.5t347.5 -141.5q180 0 320 111v309h-369v246h645v-637q-98 -125 -254.5 -199.5t-347.5 -74.5q-332 0 -546 211.5t-214 525zM461 1556 l205 328h286l205 -328h-184l-164 185l-164 -185h-184z" />
<glyph unicode="&#x11d;" horiz-adv-x="1259" d="M72 496q0 219 142 368.5t345 149.5q168 0 291 -101v80h256v-938q0 -242 -90 -368q-68 -94 -183.5 -146.5t-257 -52.5t-271.5 57.5t-206 147.5l168 174q133 -143 309 -143q135 0 203 79q61 68 62 234v33q-117 -90 -267 -90q-109 0 -209 45t-167 122q-125 146 -125 349z M297 1147l205 328h286l205 -328h-184l-164 184l-164 -184h-184zM338 496q0 -117 74.5 -194t187.5 -77q154 0 240 123v297q-92 123 -246 123q-113 0 -184.5 -80.5t-71.5 -191.5z" />
<glyph unicode="&#x11e;" horiz-adv-x="1546" d="M61 716.5q0 313.5 213 525.5t543 212q313 0 524 -205l-178 -188q-147 147 -348 147q-203 0 -340 -143t-137 -348q0 -209 141.5 -350.5t347.5 -141.5q180 0 320 111v309h-369v246h645v-637q-98 -125 -254.5 -199.5t-347.5 -74.5q-332 0 -546 211.5t-214 525zM506 1884h215 q0 -39 26.5 -65.5t65.5 -26.5t65.5 26.5t26.5 65.5h215q0 -127 -90 -217t-217 -90t-217 90t-90 217z" />
<glyph unicode="&#x11f;" horiz-adv-x="1259" d="M72 496q0 219 142 368.5t345 149.5q168 0 291 -101v80h256v-938q0 -242 -90 -368q-68 -94 -183.5 -146.5t-257 -52.5t-271.5 57.5t-206 147.5l168 174q133 -143 309 -143q135 0 203 79q61 68 62 234v33q-117 -90 -267 -90q-109 0 -209 45t-167 122q-125 146 -125 349z M338 496q0 -117 74.5 -194t187.5 -77q154 0 240 123v297q-92 123 -246 123q-113 0 -184.5 -80.5t-71.5 -191.5zM342 1475h215q0 -39 26.5 -66t65.5 -27t65.5 27t26.5 66h215q0 -127 -90 -217.5t-217 -90.5t-217 90.5t-90 217.5z" />
<glyph unicode="&#x120;" horiz-adv-x="1546" d="M61 716.5q0 313.5 213 525.5t543 212q313 0 524 -205l-178 -188q-147 147 -348 147q-203 0 -340 -143t-137 -348q0 -209 141.5 -350.5t347.5 -141.5q180 0 320 111v309h-369v246h645v-637q-98 -125 -254.5 -199.5t-347.5 -74.5q-332 0 -546 211.5t-214 525zM645 1755 q0 72 51.5 121t123 49t122.5 -49t51 -121t-51 -121t-122.5 -49t-123 49t-51.5 121z" />
<glyph unicode="&#x121;" horiz-adv-x="1259" d="M72 496q0 219 142 368.5t345 149.5q168 0 291 -101v80h256v-938q0 -242 -90 -368q-68 -94 -183.5 -146.5t-257 -52.5t-271.5 57.5t-206 147.5l168 174q133 -143 309 -143q135 0 203 79q61 68 62 234v33q-117 -90 -267 -90q-109 0 -209 45t-167 122q-125 146 -125 349z M338 496q0 -117 74.5 -194t187.5 -77q154 0 240 123v297q-92 123 -246 123q-113 0 -184.5 -80.5t-71.5 -191.5zM471 1345.5q0 71.5 51 121t123 49.5t123 -49.5t51 -121t-51 -120.5t-123 -49t-123 49t-51 120.5z" />
<glyph unicode="&#x122;" horiz-adv-x="1546" d="M61 716.5q0 313.5 213 525.5t543 212q313 0 524 -205l-178 -188q-147 147 -348 147q-203 0 -340 -143t-137 -348q0 -209 141.5 -350.5t347.5 -141.5q180 0 320 111v309h-369v246h645v-637q-98 -125 -254.5 -199.5t-347.5 -74.5q-332 0 -546 211.5t-214 525zM557 -451 l143 328h287l-246 -328h-184z" />
<glyph unicode="&#x123;" horiz-adv-x="1259" d="M72 496q0 219 142 368.5t345 149.5q168 0 291 -101v80h256v-938q0 -242 -90 -368q-68 -94 -183.5 -146.5t-257 -52.5t-271.5 57.5t-206 147.5l168 174q133 -143 309 -143q135 0 203 79q61 68 62 234v33q-117 -90 -267 -90q-109 0 -209 45t-167 122q-125 146 -125 349z M338 496q0 -117 74.5 -194t187.5 -77q154 0 240 123v297q-92 123 -246 123q-113 0 -184.5 -80.5t-71.5 -191.5zM440 1147l246 328h184l-143 -328h-287z" />
<glyph unicode="&#x124;" horiz-adv-x="1597" d="M164 0v1434h276v-543h717v543h277v-1434h-277v645h-717v-645h-276zM451 1556l204 328h287l205 -328h-184l-164 185l-164 -185h-184z" />
<glyph unicode="&#x125;" horiz-adv-x="1269" d="M-39 1577l205 328h287l204 -328h-184l-164 184l-164 -184h-184zM154 0v1454h266v-532q119 92 270 92q211 0 344 -160q102 -121 103 -348v-506h-267v526q0 127 -59 187q-55 55 -149 55q-76 0 -142.5 -38t-99.5 -85v-645h-266z" />
<glyph unicode="&#x126;" horiz-adv-x="1597" d="M-41 1067v246h205v121h276v-121h717v121h277v-121h204v-246h-204v-1067h-277v645h-717v-645h-276v1067h-205zM440 891h717v176h-717v-176z" />
<glyph unicode="&#x127;" horiz-adv-x="1269" d="M-10 1106v205h164v143h266v-143h266v-205h-266v-184q119 92 270 92q211 0 344 -160q102 -121 103 -348v-506h-267v526q0 127 -59 187q-55 55 -149 55q-76 0 -142.5 -38t-99.5 -85v-645h-266v1106h-164z" />
<glyph unicode="&#x128;" horiz-adv-x="604" d="M-86 1610q0 117 60.5 195.5t166.5 78.5q66 0 166.5 -51t138.5 -51q72 0 82 102l164 -33q0 -117 -60.5 -195.5t-166.5 -78.5q-66 0 -166 51t-139 51q-72 0 -82 -102zM164 0v1434h276v-1434h-276z" />
<glyph unicode="&#x129;" horiz-adv-x="573" d="M-102 1200q0 117 60 196t167 79q66 0 166 -51.5t139 -51.5q72 0 82 103l164 -33q0 -117 -60.5 -196t-166.5 -79q-66 0 -166.5 51.5t-139.5 51.5q-72 0 -82 -103zM154 0v993h266v-993h-266z" />
<glyph unicode="&#x12a;" horiz-adv-x="604" d="M-25 1618v205h656v-205h-656zM164 0v1434h276v-1434h-276z" />
<glyph unicode="&#x12b;" horiz-adv-x="573" d="M-41 1208v205h655v-205h-655zM154 0v993h266v-993h-266z" />
<glyph unicode="&#x12c;" horiz-adv-x="604" d="M-4 1884h215q0 -39 26.5 -65.5t65.5 -26.5t65.5 26.5t26.5 65.5h215q0 -127 -90 -217t-217 -90t-217 90t-90 217zM164 0v1434h276v-1434h-276z" />
<glyph unicode="&#x12d;" horiz-adv-x="573" d="M-20 1475h215q0 -39 26.5 -66t65.5 -27t65.5 27t26.5 66h215q0 -127 -90 -217.5t-217 -90.5t-217 90.5t-90 217.5zM154 0v993h266v-993h-266z" />
<glyph unicode="&#x12e;" horiz-adv-x="604" d="M141 -205q0 113 62 205h-39v1434h276v-1434q-53 -78 -53 -129q0 -37 22.5 -61.5t59.5 -24.5q27 0 51 8l31 -223q-41 -20 -133 -21q-125 0 -201 71t-76 175z" />
<glyph unicode="&#x12f;" horiz-adv-x="573" d="M113 1345.5q0 71.5 51 121t122.5 49.5t123 -49.5t51.5 -121t-51.5 -120.5t-123 -49t-122.5 49t-51 120.5zM121 -205q0 78 33 164v1034h266v-993q-53 -78 -53 -129q0 -37 22.5 -61.5t59.5 -24.5q27 0 51 8l30 -223q-41 -20 -133 -21q-125 0 -200.5 71t-75.5 175z" />
<glyph unicode="&#x130;" horiz-adv-x="604" d="M129 1755q0 72 51 121t123 49t123 -49t51 -121t-51 -121t-123 -49t-123 49t-51 121zM164 0v1434h276v-1434h-276z" />
<glyph unicode="&#x131;" horiz-adv-x="573" d="M154 0v993h266v-993h-266z" />
<glyph unicode="&#x132;" horiz-adv-x="1628" d="M164 0v1434h276v-1434h-276zM635 231l237 119q49 -125 168 -125q80 0 125 58q33 43 33 137v1014h277v-983q0 -170 -45 -254q-55 -102 -161 -159.5t-231 -57.5q-139 0 -246.5 67t-156.5 184z" />
<glyph unicode="&#x133;" horiz-adv-x="1228" d="M113 1345.5q0 71.5 51 121t122.5 49.5t123 -49.5t51.5 -121t-51.5 -120.5t-123 -49t-122.5 49t-51 120.5zM154 0v993h266v-993h-266zM532 -498l41 242q31 -10 70 -10q84 0 127 45q39 41 39 170v1044h266v-1044q0 -211 -71 -314q-104 -147 -338 -147q-66 0 -134 14z M768 1345.5q0 71.5 51 121t123 49.5t123 -49.5t51 -121t-51 -120.5t-123 -49t-123 49t-51 120.5z" />
<glyph unicode="&#x134;" horiz-adv-x="1024" d="M31 231l237 119q49 -125 168 -125q80 0 125 58q33 43 33 137v1014h276v-983q0 -170 -45 -254q-55 -102 -160.5 -159.5t-230.5 -57.5q-139 0 -246.5 67t-156.5 184zM362 1556l205 328h287l205 -328h-185l-163 185l-164 -185h-185z" />
<glyph unicode="&#x135;" horiz-adv-x="655" d="M-41 -498l41 242q31 -10 70 -10q84 0 127 45q39 41 39 170v1044h266v-1044q0 -211 -72 -314q-104 -147 -338 -147q-65 0 -133 14zM0 1147l205 328h287l204 -328h-184l-164 184l-164 -184h-184z" />
<glyph unicode="&#x136;" horiz-adv-x="1423" d="M164 0v1434h276v-574l543 574h365l-631 -656l706 -778h-354l-629 705v-705h-276zM455 -451l143 328h287l-246 -328h-184z" />
<glyph unicode="&#x137;" horiz-adv-x="1218" d="M154 0v1434h266v-762l342 321h375l-486 -446l547 -547h-358l-420 430v-430h-266zM332 -451l143 328h287l-246 -328h-184z" />
<glyph unicode="&#x138;" horiz-adv-x="1218" d="M154 0v993h266v-321l342 321h375l-486 -446l547 -547h-358l-420 430v-430h-266z" />
<glyph unicode="&#x139;" horiz-adv-x="1095" d="M164 0v1434h276v-1188h604v-246h-880zM205 1556l143 328h287l-246 -328h-184z" />
<glyph unicode="&#x13a;" horiz-adv-x="573" d="M154 0v1454h266v-1454h-266zM195 1577l143 328h287l-246 -328h-184z" />
<glyph unicode="&#x13b;" horiz-adv-x="1095" d="M164 0v1434h276v-1188h604v-246h-880zM332 -451l143 328h287l-246 -328h-184z" />
<glyph unicode="&#x13c;" horiz-adv-x="573" d="M10 -451l144 328h286l-245 -328h-185zM154 0v1454h266v-1454h-266z" />
<glyph unicode="&#x13d;" horiz-adv-x="1095" d="M164 0v1434h276v-1188h604v-246h-880zM522 1106l144 328h286l-245 -328h-185z" />
<glyph unicode="&#x13e;" horiz-adv-x="716" d="M154 0v1454h266v-1454h-266zM502 1106l143 328h287l-246 -328h-184z" />
<glyph unicode="&#x13f;" horiz-adv-x="1095" d="M164 0v1434h276v-1188h604v-246h-880zM602 716.5q0 71.5 51.5 121t123 49.5t122.5 -49.5t51 -121t-51 -120.5t-122.5 -49t-123 49t-51.5 120.5z" />
<glyph unicode="&#x140;" horiz-adv-x="696" d="M154 0v1454h266v-1454h-266zM522 716.5q0 71.5 51.5 121t123 49.5t122.5 -49.5t51 -121t-51 -120.5t-122.5 -49t-123 49t-51.5 120.5z" />
<glyph unicode="&#x141;" horiz-adv-x="1116" d="M-51 414v270l225 131v619h277v-459l286 166v-271l-286 -165v-459h604v-246h-881v545z" />
<glyph unicode="&#x142;" horiz-adv-x="573" d="M-72 414v270l226 131v639h266v-485l225 131v-271l-225 -131v-698h-266v545z" />
<glyph unicode="&#x143;" horiz-adv-x="1597" d="M164 0v1434h194l799 -934v934h277v-1434h-195l-799 934v-934h-276zM686 1556l143 328h287l-246 -328h-184z" />
<glyph unicode="&#x144;" horiz-adv-x="1269" d="M154 0v993h256v-80q123 100 280 101q211 0 344 -160q102 -121 103 -348v-506h-267v526q0 127 -59 187q-55 55 -149 55q-76 0 -142.5 -38t-99.5 -85v-645h-266zM543 1147l143 328h287l-246 -328h-184z" />
<glyph unicode="&#x145;" horiz-adv-x="1597" d="M164 0v1434h194l799 -934v934h277v-1434h-195l-799 934v-934h-276zM537 -451l143 328h287l-246 -328h-184z" />
<glyph unicode="&#x146;" horiz-adv-x="1269" d="M154 0v993h256v-80q123 100 280 101q211 0 344 -160q102 -121 103 -348v-506h-267v526q0 127 -59 187q-55 55 -149 55q-76 0 -142.5 -38t-99.5 -85v-645h-266zM352 -451l144 328h286l-245 -328h-185z" />
<glyph unicode="&#x147;" horiz-adv-x="1597" d="M164 0v1434h194l799 -934v934h277v-1434h-195l-799 934v-934h-276zM451 1884h184l164 -184l164 184h184l-205 -328h-287z" />
<glyph unicode="&#x148;" horiz-adv-x="1269" d="M154 0v993h256v-80q123 100 280 101q211 0 344 -160q102 -121 103 -348v-506h-267v526q0 127 -59 187q-55 55 -149 55q-76 0 -142.5 -38t-99.5 -85v-645h-266zM307 1475h185l163 -185l164 185h185l-205 -328h-287z" />
<glyph unicode="&#x149;" horiz-adv-x="1269" d="M154 0v993h256v-80q123 100 280 101q211 0 344 -160q102 -121 103 -348v-506h-267v526q0 127 -59 187q-55 55 -149 55q-76 0 -142.5 -38t-99.5 -85v-645h-266zM154 1106l143 328h287l-246 -328h-184z" />
<glyph unicode="&#x14a;" horiz-adv-x="1597" d="M164 0v1434h194l799 -934v934h277v-1475q0 -170 -45 -254q-55 -102 -161 -159.5t-231 -57.5q-139 0 -246.5 67.5t-156.5 184.5l237 119q49 -125 168 -125q80 0 125 57q33 43 33 137v168l-717 838v-934h-276z" />
<glyph unicode="&#x14b;" horiz-adv-x="1269" d="M154 0v993h256v-80q123 100 280 101q211 0 344 -160q102 -121 103 -348v-557q0 -213 -88 -318q-121 -143 -322 -143q-147 0 -246 55l105 209q57 -29 119 -28q92 0 135 53q31 37 30 121v628q0 127 -59 187q-55 55 -149 55q-76 0 -142.5 -38t-99.5 -85v-645h-266z" />
<glyph unicode="&#x14c;" horiz-adv-x="1617" d="M61 717q0 311 210 524t538 213t537.5 -213t209.5 -524t-209.5 -524t-537.5 -213t-538 213t-210 524zM338 717q0 -205 135 -348.5t336 -143.5t336 143.5t135 348.5t-135 348t-336 143t-336 -143t-135 -348zM481 1618v205h656v-205h-656z" />
<glyph unicode="&#x14d;" horiz-adv-x="1200" d="M72 496q0 217 151.5 367.5t376.5 150.5t376.5 -150.5t151.5 -367.5t-151.5 -366.5t-376.5 -149.5t-376.5 149.5t-151.5 366.5zM272 1208v205h656v-205h-656zM338 495.5q0 -114.5 73.5 -192.5t188.5 -78t188.5 78t73.5 192.5t-73.5 193.5t-188.5 79t-188.5 -79 t-73.5 -193.5z" />
<glyph unicode="&#x14e;" horiz-adv-x="1617" d="M61 717q0 311 210 524t538 213t537.5 -213t209.5 -524t-209.5 -524t-537.5 -213t-538 213t-210 524zM338 717q0 -205 135 -348.5t336 -143.5t336 143.5t135 348.5t-135 348t-336 143t-336 -143t-135 -348zM502 1884h215q0 -39 26.5 -65.5t65.5 -26.5t65.5 26.5t26.5 65.5 h215q0 -127 -90 -217t-217 -90t-217 90t-90 217z" />
<glyph unicode="&#x14f;" horiz-adv-x="1200" d="M72 496q0 217 151.5 367.5t376.5 150.5t376.5 -150.5t151.5 -367.5t-151.5 -366.5t-376.5 -149.5t-376.5 149.5t-151.5 366.5zM293 1475h215q0 -39 26.5 -66t65.5 -27t65.5 27t26.5 66h215q0 -127 -90 -217.5t-217 -90.5t-217 90.5t-90 217.5zM338 495.5 q0 -114.5 73.5 -192.5t188.5 -78t188.5 78t73.5 192.5t-73.5 193.5t-188.5 79t-188.5 -79t-73.5 -193.5z" />
<glyph unicode="&#x150;" horiz-adv-x="1617" d="M61 717q0 311 210 524t538 213t537.5 -213t209.5 -524t-209.5 -524t-537.5 -213t-538 213t-210 524zM338 717q0 -205 135 -348.5t336 -143.5t336 143.5t135 348.5t-135 348t-336 143t-336 -143t-135 -348zM492 1567l143 327h287l-246 -327h-184zM942 1567l143 327h287 l-246 -327h-184z" />
<glyph unicode="&#x151;" horiz-adv-x="1200" d="M72 496q0 217 151.5 367.5t376.5 150.5t376.5 -150.5t151.5 -367.5t-151.5 -366.5t-376.5 -149.5t-376.5 149.5t-151.5 366.5zM283 1147l143 328h287l-246 -328h-184zM338 495.5q0 -114.5 73.5 -192.5t188.5 -78t188.5 78t73.5 192.5t-73.5 193.5t-188.5 79t-188.5 -79 t-73.5 -193.5zM733 1147l144 328h286l-245 -328h-185z" />
<glyph unicode="&#x152;" horiz-adv-x="2242" d="M61 717q0 309 213 523t535 214q270 0 471 -162v142h860v-246h-584v-297h461v-246h-461v-399h605v-246h-881v141q-197 -162 -471 -161q-322 0 -535 214t-213 523zM338 717q0 -205 135 -348.5t336 -143.5t336 143.5t135 348.5t-135 348t-336 143t-336 -143t-135 -348z" />
<glyph unicode="&#x153;" horiz-adv-x="1886" d="M72 496q0 217 151.5 367.5t376.5 150.5q238 0 387 -176q129 176 359 176q203 0 336 -148.5t133 -359.5q0 -43 -7 -76h-688q10 -104 86 -169.5t183 -65.5q143 0 249 114l152 -151q-72 -84 -181.5 -131t-226.5 -47q-256 0 -393 176q-152 -176 -389 -176 q-225 0 -376.5 149.5t-151.5 366.5zM338 495.5q0 -114.5 73.5 -192.5t188.5 -78t188.5 78t73.5 192.5t-73.5 193.5t-188.5 79t-188.5 -79t-73.5 -193.5zM1133 625h409q-6 70 -62.5 122t-133.5 52q-80 0 -141.5 -52t-71.5 -122z" />
<glyph unicode="&#x154;" horiz-adv-x="1372" d="M164 0v1434h522q197 0 313 -107q127 -121 127 -293t-127 -293q-61 -57 -143 -84l537 -657h-342l-510 635h-101v-635h-276zM440 881h230q100 0 139 43q41 45 41 108q0 66 -41 111t-139 45h-230v-307zM451 1556l143 328h287l-246 -328h-184z" />
<glyph unicode="&#x155;" horiz-adv-x="839" d="M154 0v993h256v-100q98 121 288 121q33 0 90 -8l-30 -248q-31 10 -96 10q-80 0 -146.5 -45t-95.5 -98v-625h-266zM389 1147l143 328h287l-246 -328h-184z" />
<glyph unicode="&#x156;" horiz-adv-x="1372" d="M164 0v1434h522q197 0 313 -107q127 -121 127 -293t-127 -293q-61 -57 -143 -84l537 -657h-342l-510 635h-101v-635h-276zM434 -451l144 328h286l-246 -328h-184zM440 881h230q100 0 139 43q41 45 41 108q0 66 -41 111t-139 45h-230v-307z" />
<glyph unicode="&#x157;" horiz-adv-x="839" d="M10 -451l144 328h286l-245 -328h-185zM154 0v993h256v-100q98 121 288 121q33 0 90 -8l-30 -248q-31 10 -96 10q-80 0 -146.5 -45t-95.5 -98v-625h-266z" />
<glyph unicode="&#x158;" horiz-adv-x="1372" d="M164 0v1434h522q197 0 313 -107q127 -121 127 -293t-127 -293q-61 -57 -143 -84l537 -657h-342l-510 635h-101v-635h-276zM276 1882h185l164 -184l163 184h185l-205 -328h-287zM440 881h230q100 0 139 43q41 45 41 108q0 66 -41 111t-139 45h-230v-307z" />
<glyph unicode="&#x159;" horiz-adv-x="839" d="M154 0v993h256v-100q98 121 288 121q33 0 90 -8l-30 -248q-31 10 -96 10q-80 0 -146.5 -45t-95.5 -98v-625h-266zM154 1475h184l164 -185l164 185h184l-205 -328h-287z" />
<glyph unicode="&#x15a;" horiz-adv-x="1095" d="M20 195l181 188q143 -158 338 -158q92 0 150.5 51.5t58.5 129.5q0 82 -66 132t-200 101t-193 86q-203 119 -203 326q0 182 141.5 292.5t331.5 110.5q233 0 416 -135l-144 -205q-102 94 -247 94q-88 0 -155 -39t-67 -116q0 -61 69 -107.5t165 -82.5t193.5 -83t166 -141 t68.5 -229q0 -186 -143.5 -308t-341.5 -122q-283 0 -519 215zM455 1556l143 328h287l-246 -328h-184z" />
<glyph unicode="&#x15b;" horiz-adv-x="942" d="M55 113l129 190q109 -98 273 -98q53 0 90 23.5t37 60.5q0 41 -49.5 69.5t-120 51t-142 52.5t-121 92t-49.5 151q0 137 114 223t267 86q92 0 188.5 -30t147.5 -71l-125 -192q-94 68 -190 67q-57 0 -96 -21.5t-39 -57.5q0 -35 49 -59.5t120.5 -47t142.5 -54.5t120 -98.5 t49 -162.5q0 -137 -116 -222t-279 -85q-220 0 -400 133zM338 1147l143 328h287l-246 -328h-184z" />
<glyph unicode="&#x15c;" horiz-adv-x="1095" d="M20 195l181 188q143 -158 338 -158q92 0 150.5 51.5t58.5 129.5q0 82 -66 132t-200 101t-193 86q-203 119 -203 326q0 182 141.5 292.5t331.5 110.5q233 0 416 -135l-144 -205q-102 94 -247 94q-88 0 -155 -39t-67 -116q0 -61 69 -107.5t165 -82.5t193.5 -83t166 -141 t68.5 -229q0 -186 -143.5 -308t-341.5 -122q-283 0 -519 215zM205 1556l205 328h286l205 -328h-184l-164 185l-164 -185h-184z" />
<glyph unicode="&#x15d;" horiz-adv-x="942" d="M55 113l129 190q109 -98 273 -98q53 0 90 23.5t37 60.5q0 41 -49.5 69.5t-120 51t-142 52.5t-121 92t-49.5 151q0 137 114 223t267 86q92 0 188.5 -30t147.5 -71l-125 -192q-94 68 -190 67q-57 0 -96 -21.5t-39 -57.5q0 -35 49 -59.5t120.5 -47t142.5 -54.5t120 -98.5 t49 -162.5q0 -137 -116 -222t-279 -85q-220 0 -400 133zM125 1147l205 328h286l205 -328h-184l-164 184l-164 -184h-184z" />
<glyph unicode="&#x15e;" horiz-adv-x="1095" d="M20 195l181 188q143 -158 338 -158q92 0 150.5 51.5t58.5 129.5q0 82 -66 132t-200 101t-193 86q-203 119 -203 326q0 182 141.5 292.5t331.5 110.5q233 0 416 -135l-144 -205q-102 94 -247 94q-88 0 -155 -39t-67 -116q0 -61 69 -107.5t165 -82.5t193.5 -83t166 -141 t68.5 -229q0 -162 -110.5 -277t-276.5 -143l-53 -297h-267l121 295q-230 31 -418 207z" />
<glyph unicode="&#x15f;" horiz-adv-x="942" d="M55 113l129 190q109 -98 273 -98q53 0 90 23.5t37 60.5q0 41 -49.5 69.5t-120 51t-142 52.5t-121 92t-49.5 151q0 137 114 223t267 86q92 0 188.5 -30t147.5 -71l-125 -192q-94 68 -190 67q-57 0 -96 -21.5t-39 -57.5q0 -35 49 -59.5t120.5 -47t142.5 -54.5t120 -98.5 t49 -162.5q0 -106 -72.5 -183t-187.5 -106l-58 -305h-266l117 291q-187 23 -328 129z" />
<glyph unicode="&#x160;" horiz-adv-x="1095" d="M20 195l181 188q143 -158 338 -158q92 0 150.5 51.5t58.5 129.5q0 82 -66 132t-200 101t-193 86q-203 119 -203 326q0 182 141.5 292.5t331.5 110.5q233 0 416 -135l-144 -205q-102 94 -247 94q-88 0 -155 -39t-67 -116q0 -61 69 -107.5t165 -82.5t193.5 -83t166 -141 t68.5 -229q0 -186 -143.5 -308t-341.5 -122q-283 0 -519 215zM195 1884h184l164 -184l164 184h184l-205 -328h-287z" />
<glyph unicode="&#x161;" horiz-adv-x="942" d="M55 113l129 190q109 -98 273 -98q53 0 90 23.5t37 60.5q0 41 -49.5 69.5t-120 51t-142 52.5t-121 92t-49.5 151q0 137 114 223t267 86q92 0 188.5 -30t147.5 -71l-125 -192q-94 68 -190 67q-57 0 -96 -21.5t-39 -57.5q0 -35 49 -59.5t120.5 -47t142.5 -54.5t120 -98.5 t49 -162.5q0 -137 -116 -222t-279 -85q-220 0 -400 133zM123 1475h184l164 -185l164 185h184l-205 -328h-286z" />
<glyph unicode="&#x162;" horiz-adv-x="1136" d="M51 1188v246h1034v-246h-378v-1188h-277v1188h-379zM287 -451l143 328h287l-246 -328h-184z" />
<glyph unicode="&#x163;" horiz-adv-x="1013" d="M41 768v225h276v277h267v-277h327v-225h-327v-379q0 -86 32 -125q43 -49 136 -49q63 0 108 10l41 -225q-57 -20 -166 -20q-236 0 -344 143q-74 98 -74 297v348h-276zM389 -451l143 328h287l-246 -328h-184z" />
<glyph unicode="&#x164;" horiz-adv-x="1136" d="M51 1188v246h1034v-246h-378v-1188h-277v1188h-379zM219 1884h184l164 -184l164 184h184l-204 -328h-287z" />
<glyph unicode="&#x165;" horiz-adv-x="1013" d="M41 768v225h276v277h267v-277h327v-225h-327v-379q0 -86 32 -125q43 -49 136 -49q63 0 108 10l41 -225q-57 -20 -166 -20q-236 0 -344 143q-74 98 -74 297v348h-276zM666 1106l143 328h287l-246 -328h-184z" />
<glyph unicode="&#x166;" horiz-adv-x="1136" d="M51 1188v246h1034v-246h-378v-297h286v-246h-286v-645h-277v645h-287v246h287v297h-379z" />
<glyph unicode="&#x167;" horiz-adv-x="1013" d="M41 399v226h276v143h-276v225h276v277h267v-277h327v-225h-327v-143h327v-226h-327v-10q0 -86 32 -125q43 -49 136 -49q63 0 108 10l41 -225q-57 -20 -166 -20q-236 0 -344 143q-72 92 -74 276h-276z" />
<glyph unicode="&#x168;" horiz-adv-x="1536" d="M154 604v830h276v-850q0 -178 94 -267q96 -92 243.5 -92t244.5 92q94 88 94 267v850h276v-830q0 -311 -184 -477q-166 -147 -430 -147t-430 147q-184 166 -184 477zM379 1610q0 117 60.5 195.5t166.5 78.5q66 0 166 -51t139 -51q72 0 82 102l164 -33q0 -117 -60.5 -195.5 t-166.5 -78.5q-66 0 -166 51t-139 51q-72 0 -82 -102z" />
<glyph unicode="&#x169;" horiz-adv-x="1249" d="M133 467v526h266v-536q0 -115 50 -170q55 -61 149 -62q135 0 231 123v645h267v-993h-256v80q-113 -100 -269 -100q-209 0 -338 159q-100 123 -100 328zM236 1200q0 117 60 196t167 79q66 0 166 -51.5t139 -51.5q72 0 82 103l164 -33q0 -117 -60.5 -196t-167.5 -79 q-66 0 -166 51.5t-139 51.5q-72 0 -82 -103z" />
<glyph unicode="&#x16a;" horiz-adv-x="1536" d="M154 604v830h276v-850q0 -178 94 -267q96 -92 243.5 -92t244.5 92q94 88 94 267v850h276v-830q0 -311 -184 -477q-166 -147 -430 -147t-430 147q-184 166 -184 477zM440 1618v205h656v-205h-656z" />
<glyph unicode="&#x16b;" horiz-adv-x="1249" d="M133 467v526h266v-536q0 -115 50 -170q55 -61 149 -62q135 0 231 123v645h267v-993h-256v80q-113 -100 -269 -100q-209 0 -338 159q-100 123 -100 328zM297 1208v205h655v-205h-655z" />
<glyph unicode="&#x16c;" horiz-adv-x="1536" d="M154 604v830h276v-850q0 -178 94 -267q96 -92 243.5 -92t244.5 92q94 88 94 267v850h276v-830q0 -311 -184 -477q-166 -147 -430 -147t-430 147q-184 166 -184 477zM461 1884h215q0 -39 26.5 -65.5t65.5 -26.5t65.5 26.5t26.5 65.5h215q0 -127 -90 -217t-217 -90t-217 90 t-90 217z" />
<glyph unicode="&#x16d;" horiz-adv-x="1249" d="M133 467v526h266v-536q0 -115 50 -170q55 -61 149 -62q135 0 231 123v645h267v-993h-256v80q-113 -100 -269 -100q-209 0 -338 159q-100 123 -100 328zM317 1475h215q0 -39 27 -66t66 -27t65.5 27t26.5 66h215q0 -127 -90 -217.5t-217 -90.5t-217.5 90.5t-90.5 217.5z " />
<glyph unicode="&#x16e;" horiz-adv-x="1536" d="M154 604v830h276v-850q0 -178 94 -267q96 -92 243.5 -92t244.5 92q94 88 94 267v850h276v-830q0 -311 -184 -477q-166 -147 -430 -147t-430 147q-184 166 -184 477zM543 1741q0 94 65.5 159.5t159.5 65.5t159.5 -65.5t65.5 -159.5t-65.5 -159.5t-159.5 -65.5t-159.5 65.5 t-65.5 159.5zM707 1740.5q0 -26.5 17 -44t44 -17.5t44 17.5t17 44t-17 44t-44 17.5t-44 -17.5t-17 -44z" />
<glyph unicode="&#x16f;" horiz-adv-x="1249" d="M133 467v526h266v-536q0 -115 50 -170q55 -61 149 -62q135 0 231 123v645h267v-993h-256v80q-113 -100 -269 -100q-209 0 -338 159q-100 123 -100 328zM399 1331q0 94 65.5 159.5t160 65.5t160 -65.5t65.5 -159.5t-65.5 -159.5t-160 -65.5t-160 65.5t-65.5 159.5z M563 1331.5q0 -26.5 17.5 -44t44 -17.5t44 17.5t17.5 44t-17.5 44t-44 17.5t-44 -17.5t-17.5 -44z" />
<glyph unicode="&#x170;" horiz-adv-x="1536" d="M154 604v830h276v-850q0 -178 94 -267q96 -92 243.5 -92t244.5 92q94 88 94 267v850h276v-830q0 -311 -184 -477q-166 -147 -430 -147t-430 147q-184 166 -184 477zM451 1587l143 328h287l-246 -328h-184zM901 1587l143 328h287l-246 -328h-184z" />
<glyph unicode="&#x171;" horiz-adv-x="1249" d="M133 467v526h266v-536q0 -115 50 -170q55 -61 149 -62q135 0 231 123v645h267v-993h-256v80q-113 -100 -269 -100q-209 0 -338 159q-100 123 -100 328zM307 1147l144 328h286l-245 -328h-185zM758 1147l143 328h287l-246 -328h-184z" />
<glyph unicode="&#x172;" horiz-adv-x="1536" d="M154 604v830h276v-850q0 -178 94 -267q96 -92 243.5 -92t244.5 92q94 88 94 267v850h276v-830q0 -311 -184 -477q-82 -72 -188 -109q-66 -78 -66 -147q0 -37 22.5 -61.5t59.5 -24.5q27 0 51 8l31 -223q-41 -20 -133 -21q-125 0 -201 71t-76 175q0 100 50 185 q-250 6 -410 147q-184 166 -184 477z" />
<glyph unicode="&#x173;" horiz-adv-x="1249" d="M133 467v526h266v-536q0 -115 50 -170q55 -61 149 -62q135 0 231 123v645h267v-993q-53 -78 -54 -129q0 -37 22.5 -61.5t59.5 -24.5q27 0 52 8l30 -223q-41 -20 -133 -21q-125 0 -200.5 71t-75.5 175q0 86 43 191v94q-113 -100 -269 -100q-209 0 -338 159 q-100 123 -100 328z" />
<glyph unicode="&#x174;" horiz-adv-x="2017" d="M20 1434h279l297 -895l315 895h195l315 -895l297 895h279l-475 -1434h-195l-319 907l-318 -907h-194zM659 1556l205 328h287l205 -328h-185l-163 185l-164 -185h-185z" />
<glyph unicode="&#x175;" horiz-adv-x="1744" d="M20 993h269l241 -579l250 579h185l247 -579l244 579h268l-417 -993h-185l-250 578l-249 -578h-185zM524 1147l205 328h287l205 -328h-185l-164 184l-163 -184h-185z" />
<glyph unicode="&#x176;" horiz-adv-x="1280" d="M10 1434h316l315 -504l313 504h316l-492 -785v-649h-276v649zM291 1556l205 328h286l205 -328h-184l-164 185l-164 -185h-184z" />
<glyph unicode="&#x177;" horiz-adv-x="1173" d="M20 993h293l291 -596l268 596h281l-684 -1485h-279l275 592zM238 1147l204 328h287l205 -328h-184l-164 184l-164 -184h-184z" />
<glyph unicode="&#x178;" horiz-adv-x="1280" d="M10 1434h316l315 -504l313 504h316l-492 -785v-649h-276v649zM262 1724.5q0 67.5 48 113.5t116 46t116 -46t48 -113.5t-48 -113.5t-116 -46t-116 46t-48 113.5zM692 1724.5q0 67.5 48 113.5t116 46t116 -46t48 -113.5t-48 -113.5t-116 -46t-116 46t-48 113.5z" />
<glyph unicode="&#x179;" horiz-adv-x="1259" d="M82 0v164l696 1024h-635v246h1004v-164l-698 -1024h739v-246h-1106zM537 1556l143 328h287l-246 -328h-184z" />
<glyph unicode="&#x17a;" horiz-adv-x="1085" d="M102 0v164l476 604h-435v225h799v-164l-481 -604h522v-225h-881zM453 1147l143 328h287l-246 -328h-184z" />
<glyph unicode="&#x17b;" horiz-adv-x="1259" d="M82 0v164l696 1024h-635v246h1004v-164l-698 -1024h739v-246h-1106zM475 1755q0 72 51.5 121t123 49t122.5 -49t51 -121t-51 -121t-122.5 -49t-123 49t-51.5 121z" />
<glyph unicode="&#x17c;" horiz-adv-x="1085" d="M102 0v164l476 604h-435v225h799v-164l-481 -604h522v-225h-881zM389 1345.5q0 71.5 51.5 121t123 49.5t122.5 -49.5t51 -121t-51 -120.5t-122.5 -49t-123 49t-51.5 120.5z" />
<glyph unicode="&#x17d;" horiz-adv-x="1259" d="M82 0v164l696 1024h-635v246h1004v-164l-698 -1024h739v-246h-1106zM287 1884h184l164 -184l164 184h184l-205 -328h-286z" />
<glyph unicode="&#x17e;" horiz-adv-x="1085" d="M102 0v164l476 604h-435v225h799v-164l-481 -604h522v-225h-881zM195 1475h184l164 -185l164 185h184l-205 -328h-287z" />
<glyph unicode="&#x17f;" horiz-adv-x="841" d="M154 0v1034q0 227 120 342q125 119 332 119q125 0 225 -53l-94 -213q-66 31 -131 31q-94 0 -141 -54q-45 -49 -45 -141v-1065h-266z" />
<glyph unicode="&#x18f;" horiz-adv-x="1478" d="M61 705q0 66 9 108h1065q-18 172 -144.5 283.5t-300.5 111.5q-129 0 -241.5 -57t-184.5 -135l-168 184q111 119 268.5 186.5t323.5 67.5q317 0 523 -203.5t206 -531.5q0 -307 -189.5 -522t-498.5 -215q-293 0 -480.5 211t-187.5 512zM354 567q20 -135 124 -238.5 t251 -103.5q154 0 262.5 102.5t126.5 239.5h-764z" />
<glyph unicode="&#x192;" horiz-adv-x="1097" d="M-170 -469l68 221q74 -29 135 -28q186 0 246 190q12 39 23 93t19.5 98.5t19.5 122t15 116.5t15.5 135t15.5 125h-328v225h357q31 203 55 283q111 362 498 363q106 0 202 -43l-67 -222q-74 29 -135 29q-186 0 -246 -190q-25 -72 -49 -220h348v-225h-381 q-8 -61 -24.5 -205.5t-25.5 -221.5t-26.5 -173t-34.5 -154q-111 -362 -497 -362q-107 0 -203 43z" />
<glyph unicode="&#x1b5;" horiz-adv-x="1259" d="M82 0v164l328 481h-205v246h370l203 297h-635v246h1004v-164l-258 -379h196v-246h-364l-272 -399h739v-246h-1106z" />
<glyph unicode="&#x1b6;" horiz-adv-x="1085" d="M102 0v164l185 235h-103v226h281l113 143h-435v225h799v-164l-164 -204h123v-226h-303l-137 -174h522v-225h-881z" />
<glyph unicode="&#x1fa;" horiz-adv-x="1423" d="M0 0l614 1434h195l614 -1434h-288l-136 317h-575l-135 -317h-289zM485 1741q0 94 65.5 159.5t160 65.5t160 -65.5t65.5 -159.5t-65.5 -159.5t-160 -65.5t-160 65.5t-65.5 159.5zM528 563h365l-182 424zM618 2048l144 328h287l-246 -328h-185zM649 1740.5 q0 -26.5 17.5 -44t44 -17.5t44 17.5t17.5 44t-17.5 44t-44 17.5t-44 -17.5t-17.5 -44z" />
<glyph unicode="&#x1fb;" horiz-adv-x="1259" d="M72 496q0 219 142 368.5t345 149.5q168 0 291 -101v80h256v-993h-256v80q-119 -100 -277 -100q-229 0 -374 167q-127 148 -127 349zM338 496q0 -117 74.5 -194t187.5 -77q154 0 240 123v297q-92 123 -246 123q-113 0 -184.5 -80.5t-71.5 -191.5zM440 1331 q0 94 65.5 159.5t160 65.5t160 -65.5t65.5 -159.5t-65.5 -159.5t-160 -65.5t-160 65.5t-65.5 159.5zM573 1638l144 328h287l-246 -328h-185zM604 1331.5q0 -26.5 17.5 -44t44 -17.5t44 17.5t17.5 44t-17.5 44t-44 17.5t-44 -17.5t-17.5 -44z" />
<glyph unicode="&#x1fc;" horiz-adv-x="1966" d="M-20 0l862 1434h1022v-246h-584v-297h461v-246h-461v-399h604v-246h-880v317h-525l-190 -317h-309zM627 563h377v627zM891 1556l143 328h287l-246 -328h-184z" />
<glyph unicode="&#x1fd;" horiz-adv-x="1886" d="M72 496q0 219 142 368.5t345 149.5q168 0 291 -101v80h235v-80q104 100 254 101q197 0 336.5 -148.5t139.5 -359.5q0 -43 -7 -76h-708q10 -102 90 -168.5t188 -66.5q78 0 148.5 34.5t111.5 79.5l152 -151q-72 -84 -181.5 -131t-226.5 -47q-76 0 -158.5 27.5t-138.5 72.5 v-80h-235v80q-119 -100 -277 -100q-229 0 -374 167q-127 148 -127 349zM338 496q0 -117 74.5 -194t187.5 -77q154 0 240 123v297q-92 123 -246 123q-113 0 -184.5 -80.5t-71.5 -191.5zM870 1147l144 328h286l-245 -328h-185zM1112 625h430q-10 74 -71.5 124t-139.5 50 t-140.5 -48t-78.5 -126z" />
<glyph unicode="&#x1fe;" horiz-adv-x="1617" d="M18 -20l215 253q-172 201 -172 484q0 311 210 524t538 213q205 0 377 -94l76 94h335l-213 -256q172 -205 172 -481q0 -311 -209.5 -524t-537.5 -213q-207 0 -379 94l-78 -94h-334zM338 717q0 -150 74 -271l604 713q-98 49 -207 49q-201 0 -336 -143t-135 -348zM600 274 q98 -49 209 -49q201 0 336 143.5t135 348.5q0 145 -76 270zM717 1556l143 328h287l-246 -328h-184z" />
<glyph unicode="&#x1ff;" horiz-adv-x="1200" d="M12 -20l166 200q-106 135 -106 316q0 217 151.5 367.5t376.5 150.5q133 0 248 -58l47 58h293l-168 -201q109 -141 108 -317q0 -217 -151.5 -366.5t-376.5 -149.5q-137 0 -248 57l-47 -57h-293zM338 496q0 -57 18 -103l308 367q-27 8 -64 8q-115 0 -188.5 -78.5 t-73.5 -193.5zM508 1147l143 328h287l-246 -328h-184zM535 231q31 -6 65 -6q115 0 188.5 78t73.5 193q0 55 -18 104z" />
<glyph unicode="&#x218;" horiz-adv-x="1095" d="M31 205l184 184q137 -164 315 -164q94 0 156 53.5t62 135.5q0 37 -15.5 67.5t-36 52t-62.5 45t-70.5 36t-85 36t-83.5 35.5q-143 63 -223 144t-80 223q0 178 131 289.5t324 111.5q217 0 399 -143l-170 -197q-90 94 -217 94q-80 0 -135 -41t-55 -110q0 -33 14 -58.5 t49 -47t62.5 -35t84 -35t85.5 -33.5q78 -35 131 -66.5t111.5 -83t88 -123t29.5 -161.5q0 -188 -143.5 -311t-352.5 -123q-292 0 -497 225zM266 -451l144 328h286l-245 -328h-185z" />
<glyph unicode="&#x219;" horiz-adv-x="942" d="M55 113l129 190q109 -98 273 -98q53 0 90 23.5t37 60.5q0 41 -49.5 69.5t-120 51t-142 52.5t-121 92t-49.5 151q0 137 114 223t267 86q92 0 188.5 -30t147.5 -71l-125 -192q-94 68 -190 67q-57 0 -96 -21.5t-39 -57.5q0 -35 49 -59.5t120.5 -47t142.5 -54.5t120 -98.5 t49 -162.5q0 -137 -116 -222t-279 -85q-220 0 -400 133zM184 -451l144 328h286l-245 -328h-185z" />
<glyph unicode="&#x21a;" horiz-adv-x="1136" d="M51 1188v246h1034v-246h-378v-1188h-277v1188h-379zM287 -451l143 328h287l-246 -328h-184z" />
<glyph unicode="&#x21b;" horiz-adv-x="1013" d="M41 768v225h276v277h267v-277h327v-225h-327v-379q0 -86 32 -125q43 -49 136 -49q63 0 108 10l41 -225q-57 -20 -166 -20q-236 0 -344 143q-74 98 -74 297v348h-276zM389 -451l143 328h287l-246 -328h-184z" />
<glyph unicode="&#x237;" horiz-adv-x="655" d="M-41 -498l41 242q31 -10 70 -10q84 0 127 45q39 41 39 170v1044h266v-1044q0 -211 -72 -314q-104 -147 -338 -147q-65 0 -133 14z" />
<glyph unicode="&#x259;" horiz-adv-x="1095" d="M72 489q0 43 6 76h688q-10 104 -86 170t-182 66q-143 0 -250 -115l-152 152q72 84 181.5 131t226.5 47q225 0 372.5 -142.5t147.5 -373.5q0 -215 -134 -366.5t-349 -151.5q-203 0 -336 148t-133 359zM344 371q6 -70 62.5 -122t134.5 -52q80 0 141 52t72 122h-410z" />
<glyph unicode="&#x2c6;" horiz-adv-x="983" d="M143 1147l205 328h287l205 -328h-185l-163 184l-164 -184h-185z" />
<glyph unicode="&#x2c7;" horiz-adv-x="983" d="M143 1475h185l164 -185l163 185h185l-205 -328h-287z" />
<glyph unicode="&#x2c9;" horiz-adv-x="1024" d="M143 1208v205h656v-205h-656z" />
<glyph unicode="&#x2d8;" horiz-adv-x="901" d="M143 1475h215q0 -39 27 -66t65.5 -27t65.5 27t27 66h215q0 -127 -90 -217.5t-217 -90.5t-217.5 90.5t-90.5 217.5z" />
<glyph unicode="&#x2d9;" horiz-adv-x="634" d="M143 1345.5q0 71.5 51.5 121t123 49.5t123 -49.5t51.5 -121t-51.5 -120.5t-123 -49t-123 49t-51.5 120.5z" />
<glyph unicode="&#x2da;" horiz-adv-x="737" d="M143 1331q0 94 65.5 159.5t160 65.5t160 -65.5t65.5 -159.5t-65.5 -159.5t-160 -65.5t-160 65.5t-65.5 159.5zM307 1331.5q0 -26.5 17.5 -44t44 -17.5t44 17.5t17.5 44t-17.5 44t-44 17.5t-44 -17.5t-17.5 -44z" />
<glyph unicode="&#x2db;" horiz-adv-x="696" d="M143 -205q0 117 78 225h236q-68 -82 -68 -149q0 -37 22.5 -61.5t59.5 -24.5q27 0 51 8l31 -223q-41 -20 -133 -21q-125 0 -201 71t-76 175z" />
<glyph unicode="&#x2dc;" horiz-adv-x="1064" d="M143 1200q0 117 60.5 196t167.5 79q66 0 166 -51.5t139 -51.5q72 0 82 103l164 -33q0 -117 -60.5 -196t-167.5 -79q-66 0 -166 51.5t-139 51.5q-72 0 -82 -103z" />
<glyph unicode="&#x2dd;" horiz-adv-x="1167" d="M143 1147l144 328h286l-245 -328h-185zM594 1147l143 328h287l-246 -328h-184z" />
<glyph unicode="&#x394;" d="M20 0v143l492 1291h184l492 -1291v-143h-1168zM293 225h622l-311 819z" />
<glyph unicode="&#x3a9;" horiz-adv-x="1536" d="M51 0v246h150q-150 199 -150 471q0 309 206 523t511 214t511 -214t206 -523q0 -272 -150 -471h150v-246h-559v164q293 217 293 543q0 213 -126 357t-325 144t-325 -144t-126 -357q0 -326 293 -543v-164h-559z" />
<glyph unicode="&#x3bc;" horiz-adv-x="1269" d="M154 -492v1485h266v-536q0 -115 49 -170q55 -61 149 -62q135 0 232 123v645h266v-993h-256v80q-113 -100 -268 -100q-98 0 -172 45v-517h-266z" />
<glyph unicode="&#x3c0;" horiz-adv-x="1181" d="M-10 809q57 86 166 125q76 29 190 29h815v-226h-205v-424q0 -66 14.5 -100.5t55.5 -69.5l-174 -163q-86 66 -113.5 141.5t-27.5 208.5v407h-203v-737h-246v735q-78 -10 -129 -73z" />
<glyph unicode="&#x1e80;" horiz-adv-x="2017" d="M20 1434h279l297 -895l315 895h195l315 -895l297 895h279l-475 -1434h-195l-319 907l-318 -907h-194zM668 1884h286l144 -328h-185z" />
<glyph unicode="&#x1e81;" horiz-adv-x="1744" d="M20 993h269l241 -579l250 579h185l247 -579l244 579h268l-417 -993h-185l-250 578l-249 -578h-185zM535 1475h286l144 -328h-185z" />
<glyph unicode="&#x1e82;" horiz-adv-x="2017" d="M20 1434h279l297 -895l315 895h195l315 -895l297 895h279l-475 -1434h-195l-319 907l-318 -907h-194zM922 1556l143 328h287l-246 -328h-184z" />
<glyph unicode="&#x1e83;" horiz-adv-x="1744" d="M20 993h269l241 -579l250 579h185l247 -579l244 579h268l-417 -993h-185l-250 578l-249 -578h-185zM780 1147l144 328h286l-245 -328h-185z" />
<glyph unicode="&#x1e84;" horiz-adv-x="2017" d="M20 1434h279l297 -895l315 895h195l315 -895l297 895h279l-475 -1434h-195l-319 907l-318 -907h-194zM629 1724.5q0 67.5 48 113.5t115.5 46t115.5 -46t48 -113.5t-48 -113.5t-115.5 -46t-115.5 46t-48 113.5zM1059 1724.5q0 67.5 48 113.5t115.5 46t115.5 -46t48 -113.5 t-48 -113.5t-115.5 -46t-115.5 46t-48 113.5z" />
<glyph unicode="&#x1e85;" horiz-adv-x="1744" d="M20 993h269l241 -579l250 579h185l247 -579l244 579h268l-417 -993h-185l-250 578l-249 -578h-185zM494 1314.5q0 67.5 48 114t115.5 46.5t115.5 -46.5t48 -114t-48 -113.5t-115.5 -46t-115.5 46t-48 113.5zM924 1314.5q0 67.5 48 114t115.5 46.5t115.5 -46.5t48 -114 t-48 -113.5t-115.5 -46t-115.5 46t-48 113.5z" />
<glyph unicode="&#x1e8a;" horiz-adv-x="1392" d="M31 0l495 764l-434 670h318l286 -453l287 453h317l-436 -670l498 -764h-318l-348 545l-348 -545h-317zM522 1755q0 72 51.5 121t123 49t122.5 -49t51 -121t-51 -121t-122.5 -49t-123 49t-51.5 121z" />
<glyph unicode="&#x1e8b;" horiz-adv-x="1118" d="M10 0l381 530l-334 463h305l197 -282l197 282h305l-334 -463l381 -530h-315l-234 336l-233 -336h-316zM385 1345.5q0 71.5 51 121t123 49.5t123 -49.5t51 -121t-51 -120.5t-123 -49t-123 49t-51 120.5z" />
<glyph unicode="&#x1ef2;" horiz-adv-x="1280" d="M10 1434h316l315 -504l313 504h316l-492 -785v-649h-276v649zM307 1884h287l143 -328h-184z" />
<glyph unicode="&#x1ef3;" horiz-adv-x="1173" d="M20 993h293l291 -596l268 596h281l-684 -1485h-279l275 592zM266 1475h287l143 -328h-184z" />
<glyph unicode="&#x2000;" horiz-adv-x="1187" />
<glyph unicode="&#x2001;" horiz-adv-x="2375" />
<glyph unicode="&#x2002;" horiz-adv-x="1187" />
<glyph unicode="&#x2003;" horiz-adv-x="2375" />
<glyph unicode="&#x2004;" horiz-adv-x="790" />
<glyph unicode="&#x2005;" horiz-adv-x="593" />
<glyph unicode="&#x2006;" horiz-adv-x="395" />
<glyph unicode="&#x2007;" horiz-adv-x="395" />
<glyph unicode="&#x2008;" horiz-adv-x="296" />
<glyph unicode="&#x2009;" horiz-adv-x="475" />
<glyph unicode="&#x200a;" horiz-adv-x="131" />
<glyph unicode="&#x2010;" horiz-adv-x="962" d="M143 420v225h676v-225h-676z" />
<glyph unicode="&#x2011;" horiz-adv-x="962" d="M143 420v225h676v-225h-676z" />
<glyph unicode="&#x2012;" horiz-adv-x="962" d="M143 420v225h676v-225h-676z" />
<glyph unicode="&#x2013;" horiz-adv-x="1064" d="M31 420v225h1003v-225h-1003z" />
<glyph unicode="&#x2014;" horiz-adv-x="1679" d="M31 420v225h1618v-225h-1618z" />
<glyph unicode="&#x2018;" horiz-adv-x="665" d="M102 829l246 605h195l-154 -605h-287z" />
<glyph unicode="&#x2019;" horiz-adv-x="665" d="M123 829l153 605h287l-246 -605h-194z" />
<glyph unicode="&#x201a;" horiz-adv-x="665" d="M123 -287l153 604h287l-246 -604h-194z" />
<glyph unicode="&#x201c;" horiz-adv-x="1157" d="M102 829l246 605h195l-154 -605h-287zM594 829l246 605h194l-153 -605h-287z" />
<glyph unicode="&#x201d;" horiz-adv-x="1157" d="M123 829l153 605h287l-246 -605h-194zM614 829l154 605h287l-246 -605h-195z" />
<glyph unicode="&#x201e;" horiz-adv-x="1157" d="M123 -287l153 604h287l-246 -604h-194zM614 -287l154 604h287l-246 -604h-195z" />
<glyph unicode="&#x2020;" horiz-adv-x="1126" d="M92 748v225h348v461h246v-461h348v-225h-348v-1158h-246v1158h-348z" />
<glyph unicode="&#x2021;" horiz-adv-x="1126" d="M92 197v225h348v326h-348v225h348v461h246v-461h348v-225h-348v-326h348v-225h-348v-607h-246v607h-348z" />
<glyph unicode="&#x2022;" horiz-adv-x="1228" d="M164 495.5q0 186.5 132 318.5t318.5 132t318.5 -132t132 -318.5t-132 -318.5t-318.5 -132t-318.5 132t-132 318.5z" />
<glyph unicode="&#x2026;" horiz-adv-x="2037" d="M225 153.5q0 75.5 51.5 126t127 50.5t128 -50.5t52.5 -125.5q0 -74 -52.5 -124t-128 -50t-127 49t-51.5 124.5zM860 153.5q0 75.5 51.5 126t127 50.5t128 -50.5t52.5 -125.5q0 -74 -52.5 -124t-128 -50t-127 49t-51.5 124.5zM1495 153.5q0 75.5 51 126t127 50.5 t128 -50.5t52 -125.5q0 -74 -52 -124t-128 -50t-127 49t-51 124.5z" />
<glyph unicode="&#x202f;" horiz-adv-x="475" />
<glyph unicode="&#x2030;" horiz-adv-x="2508" d="M102 1075.5q0 157.5 113 268t276.5 110.5t276.5 -110.5t113 -268t-113 -268.5t-276.5 -111t-276.5 111t-113 268.5zM348 1075.5q0 -65.5 40 -109.5t103.5 -44t103.5 44t40 109.5t-40 109.5t-103.5 44t-103.5 -44t-40 -109.5zM459 0l837 1434h228l-838 -1434h-227z M1096 358.5q0 157.5 112.5 268t276.5 110.5q152 0 266 -100q111 100 266 100q164 0 276.5 -110.5t112.5 -268t-112.5 -268t-276.5 -110.5q-160 0 -266 100q-111 -100 -266 -100q-164 0 -276.5 110.5t-112.5 268zM1341 358.5q0 -65.5 40 -109.5t103.5 -44t103.5 44t40 109.5 t-40 109.5t-103.5 44t-103.5 -44t-40 -109.5zM1874 358.5q0 -65.5 40 -109.5t103.5 -44t103.5 44t40 109.5t-40 109.5t-103.5 44t-103.5 -44t-40 -109.5z" />
<glyph unicode="&#x2039;" horiz-adv-x="776" d="M143 434v144l258 317h293l-319 -389l319 -389h-293z" />
<glyph unicode="&#x203a;" horiz-adv-x="776" d="M82 117l319 389l-319 389h293l258 -317v-144l-258 -317h-293z" />
<glyph unicode="&#x2044;" horiz-adv-x="1085" d="M10 0l838 1434h227l-837 -1434h-228z" />
<glyph unicode="&#x205f;" horiz-adv-x="593" />
<glyph unicode="&#x2070;" horiz-adv-x="692" d="M61 1065q0 170 68 279.5t217 109.5q285 0 285 -389t-285 -389q-150 0 -217.5 109.5t-67.5 279.5zM266 1065q0 -205 80 -205t80 205t-80 205t-80 -205z" />
<glyph unicode="&#x2074;" horiz-adv-x="716" d="M41 840v102l377 492h123v-441h135v-153h-135v-144h-174v144h-326zM274 993h93v119z" />
<glyph unicode="&#x2075;" horiz-adv-x="602" d="M20 782l136 111q41 -53 104 -53q43 0 71.5 27.5t28.5 70.5t-30.5 70.5t-73.5 27.5q-39 0 -74 -22l-110 16l39 404h389v-164h-226l-6 -72h15q127 0 197.5 -79t70.5 -181q0 -117 -81 -189.5t-208 -72.5q-156 0 -242 106z" />
<glyph unicode="&#x2076;" horiz-adv-x="675" d="M51 936q0 84 74 211l176 287h221l-149 -242q117 -2 184.5 -75t67.5 -177q0 -111 -86 -187.5t-205 -76.5q-121 0 -202 75.5t-81 184.5zM246 940q0 -39 26.5 -64.5t67.5 -25.5q37 0 63.5 26.5t26.5 63.5q0 39 -24.5 64.5t-65.5 25.5q-39 0 -70 -22q-24 -31 -24 -68z" />
<glyph unicode="&#x2077;" horiz-adv-x="583" d="M41 1260v174h512v-103l-287 -635h-205l252 564h-272z" />
<glyph unicode="&#x2078;" horiz-adv-x="663" d="M51 926q0 109 90 182q-55 55 -55 129q0 88 70.5 152.5t175.5 64.5q106 0 176 -66.5t70 -156.5q0 -76 -52 -123q86 -63 86 -182q0 -104 -78.5 -177t-201.5 -73t-202 73t-79 177zM246 930q0 -35 23.5 -57.5t62.5 -22.5t62.5 22.5t23.5 57.5t-23.5 58.5t-62.5 23.5 t-62.5 -23.5t-23.5 -58.5zM276 1223q0 -23 15.5 -39.5t40 -16.5t40 16.5t15.5 39.5q0 25 -15.5 41t-40 16t-40 -16t-15.5 -41z" />
<glyph unicode="&#x2079;" horiz-adv-x="675" d="M51 1190q0 109 85 186.5t202 77.5q111 0 199 -72.5t88 -187.5q0 -84 -74 -211l-176 -287h-221l149 242q-117 2 -184.5 75t-67.5 177zM246 1190q0 -39 24.5 -64.5t65.5 -25.5q39 0 70 22q25 31 24 68q0 39 -26.5 64.5t-67.5 25.5q-37 0 -63.5 -26.5t-26.5 -63.5z" />
<glyph unicode="&#x2080;" horiz-adv-x="692" d="M61 369q0 170 68 279.5t217 109.5q285 0 285 -389t-285 -389q-150 0 -217.5 109.5t-67.5 279.5zM266 368.5q0 -204.5 80 -204.5t80 204.5t-80 204.5t-80 -204.5z" />
<glyph unicode="&#x2081;" horiz-adv-x="542" d="M61 371v209l267 137h123v-717h-205v465z" />
<glyph unicode="&#x2082;" horiz-adv-x="638" d="M61 0v102l269 326q43 55 43 88q0 25 -14.5 41t-39.5 16q-45 0 -63 -53l-184 53q23 84 93.5 134.5t162.5 50.5q102 0 173.5 -65.5t71.5 -166.5q0 -96 -86 -202l-120 -150h221v-174h-527z" />
<glyph unicode="&#x2083;" horiz-adv-x="606" d="M0 80l121 123q45 -55 123 -56q41 0 70.5 26t29.5 67t-30.5 68.5t-73.5 27.5q-39 0 -80 -17v103l119 151h-234v164h471v-102l-123 -174q70 -29 111 -89.5t41 -131.5q0 -113 -87 -186.5t-208 -73.5q-150 0 -250 100z" />
<glyph unicode="&#x2084;" horiz-adv-x="716" d="M41 143v103l377 491h123v-440h135v-154h-135v-143h-174v143h-326zM274 297h93v119z" />
<glyph unicode="&#x2085;" horiz-adv-x="602" d="M20 86l136 111q41 -53 104 -54q43 0 71.5 28t28.5 71t-30.5 70.5t-73.5 27.5q-39 0 -74 -23l-110 17l39 403h389v-164h-226l-6 -71h15q127 0 197.5 -79t70.5 -181q0 -117 -81 -189.5t-208 -72.5q-156 0 -242 106z" />
<glyph unicode="&#x2086;" horiz-adv-x="675" d="M51 240q0 84 74 211l176 286h221l-149 -241q117 -2 184.5 -75t67.5 -177q0 -111 -86 -187.5t-205 -76.5q-121 0 -202 75.5t-81 184.5zM246 244q0 -39 26.5 -64.5t67.5 -25.5q37 0 63.5 26.5t26.5 63.5q0 39 -24.5 64.5t-65.5 25.5q-39 0 -70 -23q-24 -30 -24 -67z" />
<glyph unicode="&#x2087;" horiz-adv-x="583" d="M41 563v174h512v-102l-287 -635h-205l252 563h-272z" />
<glyph unicode="&#x2088;" horiz-adv-x="663" d="M51 229q0 109 90 183q-55 55 -55 129q0 88 70.5 152.5t175.5 64.5q106 0 176 -66.5t70 -156.5q0 -76 -52 -123q86 -63 86 -183q0 -104 -78.5 -176.5t-201.5 -72.5t-202 72.5t-79 176.5zM246 233.5q0 -34.5 23.5 -57t62.5 -22.5t62.5 22.5t23.5 57t-23.5 58t-62.5 23.5 t-62.5 -23.5t-23.5 -58zM276 526q0 -23 15.5 -39t40 -16t40 16.5t15.5 38.5q0 25 -15.5 41.5t-40 16.5t-40 -16.5t-15.5 -41.5z" />
<glyph unicode="&#x2089;" horiz-adv-x="675" d="M51 494q0 109 85 186.5t202 77.5q111 0 199 -73t88 -187q0 -84 -74 -211l-176 -287h-221l149 242q-117 2 -184.5 75t-67.5 177zM246 494q0 -39 24.5 -65t65.5 -26q39 0 70 23q25 31 24 68q0 39 -26.5 64.5t-67.5 25.5q-37 0 -63.5 -26.5t-26.5 -63.5z" />
<glyph unicode="&#x20ac;" horiz-adv-x="1331" d="M-10 440v226h143v102h-143v225h186q72 207 234.5 334t377.5 127q293 0 476 -240l-199 -161q-106 156 -272 155q-104 0 -188.5 -56t-131.5 -159h481v-225h-542q-2 -16 -2 -51t2 -51h542v-226h-485q43 -100 129 -157.5t195 -57.5q201 0 313 187l205 -154 q-203 -279 -518 -278q-221 0 -385 124.5t-234 335.5h-184z" />
<glyph unicode="&#x2122;" horiz-adv-x="1802" d="M143 1270v164h588v-164h-205v-621h-178v621h-205zM831 649v785h111l305 -445l303 445h109v-785h-182v375l-187 -268h-90l-186 268v-375h-183z" />
<glyph unicode="&#x2126;" horiz-adv-x="1536" d="M51 0v246h150q-150 199 -150 471q0 309 206 523t511 214t511 -214t206 -523q0 -272 -150 -471h150v-246h-559v164q293 217 293 543q0 213 -126 357t-325 144t-325 -144t-126 -357q0 -326 293 -543v-164h-559z" />
<glyph unicode="&#x2190;" horiz-adv-x="1466" d="M123 461v143l387 389h319l-348 -348h862v-225h-862l348 -348h-319z" />
<glyph unicode="&#x2192;" horiz-adv-x="1466" d="M123 420v225h862l-348 348h319l387 -389v-143l-387 -389h-319l348 348h-862z" />
<glyph unicode="&#x2196;" horiz-adv-x="1239" d="M123 348v543l102 102h545l225 -225h-489l610 -610l-158 -158l-610 610v-487z" />
<glyph unicode="&#x2197;" horiz-adv-x="1239" d="M123 158l610 610h-489l225 225h545l102 -102v-543l-225 -225v487l-610 -610z" />
<glyph unicode="&#x2198;" horiz-adv-x="1239" d="M123 836l158 157l610 -610v487l225 -225v-543l-102 -102h-545l-225 225h489z" />
<glyph unicode="&#x2199;" horiz-adv-x="1239" d="M123 102v543l225 225v-487l610 610l158 -157l-610 -611h489l-225 -225h-545z" />
<glyph unicode="&#x2202;" horiz-adv-x="1220" d="M82 496q0 211 141.5 359.5t360.5 156.5l-316 442h310l378 -526q182 -250 183 -432q0 -215 -150.5 -365.5t-374.5 -150.5q-227 0 -379.5 149.5t-152.5 366.5zM348 496q0 -115 76 -193t190 -78q113 0 188 79t75 192q0 117 -76 211l-19 22q-57 39 -151 39q-125 0 -204 -75.5 t-79 -196.5z" />
<glyph unicode="&#x2206;" d="M20 0v143l492 1291h184l492 -1291v-143h-1168zM293 225h622l-311 819z" />
<glyph unicode="&#x220f;" d="M31 1208v226h1147v-226h-205v-1208h-246v1208h-246v-1208h-245v1208h-205z" />
<glyph unicode="&#x2211;" horiz-adv-x="1198" d="M-10 0v143l561 594l-541 553v144h1086v-430h-226v204h-464l393 -397v-143l-422 -443h514v205h225v-430h-1126z" />
<glyph unicode="&#x2212;" horiz-adv-x="1126" d="M92 461v225h942v-225h-942z" />
<glyph unicode="&#x2215;" horiz-adv-x="1085" d="M10 0l838 1434h227l-837 -1434h-228z" />
<glyph unicode="&#x2219;" horiz-adv-x="768" d="M205 495.5q0 75.5 51 128t127 52.5t128 -52.5t52 -128t-52 -127t-128 -51.5t-127 51.5t-51 127z" />
<glyph unicode="&#x221a;" horiz-adv-x="1249" d="M-20 768v225h342l288 -626l381 1067h238l-510 -1434h-184l-359 768h-196z" />
<glyph unicode="&#x221e;" horiz-adv-x="1597" d="M51 567.5q0 186.5 121 305t293 118.5q205 0 334 -192q129 193 334 192q172 0 292.5 -118.5t120.5 -305t-120.5 -305.5t-292.5 -119q-207 0 -334 193q-127 -193 -334 -193q-172 0 -293 119t-121 305.5zM276 567q0 -86 51.5 -142t137.5 -56q68 0 115 50t96 148 q-49 98 -96.5 148.5t-114.5 50.5q-86 0 -137.5 -56.5t-51.5 -142.5zM922 567q49 -98 95 -148t116 -50q86 0 137 56t51 142t-51 142.5t-137 56.5q-70 0 -116 -50.5t-95 -148.5z" />
<glyph unicode="&#x222b;" horiz-adv-x="1136" d="M-215 -469l68 221q74 -29 135 -28q186 0 245 190q47 152 100.5 611.5t92.5 586.5q111 362 498 363q106 0 202 -43l-67 -222q-74 29 -135 29q-186 0 -246 -190q-47 -152 -100.5 -612t-92.5 -587q-111 -362 -497 -362q-107 0 -203 43z" />
<glyph unicode="&#x2248;" horiz-adv-x="1167" d="M41 215q29 141 117 236.5t227 95.5q84 0 160 -43t133 -86t96 -43q49 0 85 45t48 117l219 -56q-29 -141 -116.5 -236t-227.5 -95q-84 0 -159.5 43t-133 86t-96.5 43q-49 0 -85 -45.5t-48 -116.5zM41 666q29 141 117 236t227 95q84 0 160 -43t133 -86t96 -43q49 0 85 45 t48 117l219 -55q-29 -141 -116.5 -236.5t-227.5 -95.5q-84 0 -159.5 43t-133 86t-96.5 43q-49 0 -85 -45t-48 -117z" />
<glyph unicode="&#x2260;" horiz-adv-x="1126" d="M92 246v225h295l115 205h-410v225h537l127 225h258l-127 -225h147v-225h-274l-115 -205h389v-225h-516l-127 -226h-258l127 226h-168z" />
<glyph unicode="&#x2264;" horiz-adv-x="1126" d="M92 61v226h942v-226h-942zM92 643v143l942 310v-238l-446 -143l446 -144v-237z" />
<glyph unicode="&#x2265;" horiz-adv-x="1126" d="M92 61v226h942v-226h-942zM92 334v237l447 144l-447 143v238l942 -310v-143z" />
<glyph unicode="&#x25ca;" horiz-adv-x="1146" d="M72 645v143l409 646h185l409 -646v-143l-409 -645h-185zM291 717l282 -443l281 443l-281 440z" />
<glyph unicode="&#xe000;" horiz-adv-x="995" d="M0 995h995v-995h-995v995z" />
<glyph unicode="&#xfb00;" horiz-adv-x="1699" d="M41 768v225h256v41q0 221 106 324q121 117 310 117q86 0 157 -19l-41 -227q-37 10 -79 10q-100 0 -150 -57q-37 -47 -37 -158v-31h492v41q0 221 106 324q121 117 309 117q86 0 158 -19l-41 -227q-37 10 -80 10q-100 0 -149 -57q-37 -47 -37 -158v-31h307v-225h-307v-768 h-266v768h-492v-768h-266v768h-256z" />
<glyph unicode="&#xfb01;" horiz-adv-x="1474" d="M41 768v225h256v41q0 221 106 324q121 117 310 117q86 0 157 -19l-41 -227q-37 10 -79 10q-100 0 -150 -57q-37 -47 -37 -158v-31h758v-993h-266v768h-492v-768h-266v768h-256zM1014 1345.5q0 71.5 51 121t123 49.5t123 -49.5t51 -121t-51 -120.5t-123 -49t-123 49 t-51 120.5z" />
<glyph unicode="&#xfb02;" horiz-adv-x="1474" d="M41 768v225h256v41q0 221 106 324q121 117 310 117q86 0 157 -19l-41 -227q-37 10 -79 10q-100 0 -150 -57q-37 -47 -37 -158v-31h492v461h266v-1454h-266v768h-492v-768h-266v768h-256z" />
<glyph unicode="&#xfb03;" horiz-adv-x="2232" d="M41 768v225h256v41q0 221 106 324q121 117 310 117q86 0 157 -19l-41 -227q-37 10 -79 10q-100 0 -150 -57q-37 -47 -37 -158v-31h492v41q0 221 106 324q121 117 309 117q86 0 158 -19l-41 -227q-37 10 -80 10q-100 0 -149 -57q-37 -47 -37 -158v-31h758v-993h-267v768 h-491v-768h-266v768h-492v-768h-266v768h-256zM1772 1345.5q0 71.5 51 121t122.5 49.5t123 -49.5t51.5 -121t-51.5 -120.5t-123 -49t-122.5 49t-51 120.5z" />
<glyph unicode="&#xfb04;" horiz-adv-x="2232" d="M41 768v225h256v41q0 221 106 324q121 117 310 117q86 0 157 -19l-41 -227q-37 10 -79 10q-100 0 -150 -57q-37 -47 -37 -158v-31h492v41q0 221 106 324q121 117 309 117q86 0 158 -19l-41 -227q-37 10 -80 10q-100 0 -149 -57q-37 -47 -37 -158v-31h491v461h267v-1454 h-267v768h-491v-768h-266v768h-492v-768h-266v768h-256z" />
<glyph horiz-adv-x="573" d="M113 1345.5q0 71.5 51 121t122.5 49.5t123 -49.5t51.5 -121t-51.5 -120.5t-123 -49t-122.5 49t-51 120.5zM154 0v993h266v-993h-266z" />
<glyph horiz-adv-x="692" d="M61 1065q0 170 68 279.5t217 109.5q285 0 285 -389t-285 -389q-150 0 -217.5 109.5t-67.5 279.5zM266 1065q0 -205 80 -205t80 205t-80 205t-80 -205z" />
<glyph horiz-adv-x="532" d="M61 1108v199l246 127h123v-738h-205v496z" />
<glyph horiz-adv-x="649" d="M61 696v103l269 325q43 55 43 88q0 25 -14.5 41.5t-39.5 16.5q-45 0 -63 -53l-184 53q23 84 93.5 134t162.5 50q102 0 173.5 -65.5t71.5 -165.5q0 -96 -86 -203l-120 -150h221v-174h-527z" />
<glyph horiz-adv-x="606" d="M0 776l121 123q45 -55 123 -55q41 0 70.5 25.5t29.5 66.5t-30.5 68.5t-73.5 27.5q-39 0 -80 -16v102l119 152h-234v164h471v-103l-123 -174q70 -29 111 -89t41 -132q0 -113 -87 -186.5t-208 -73.5q-150 0 -250 100z" />
<glyph horiz-adv-x="716" d="M41 840v102l377 492h123v-441h135v-153h-135v-144h-174v144h-326zM274 993h93v119z" />
<glyph horiz-adv-x="602" d="M20 782l136 111q41 -53 104 -53q43 0 71.5 27.5t28.5 70.5t-30.5 70.5t-73.5 27.5q-39 0 -74 -22l-110 16l39 404h389v-164h-226l-6 -72h15q127 0 197.5 -79t70.5 -181q0 -117 -81 -189.5t-208 -72.5q-156 0 -242 106z" />
<glyph horiz-adv-x="675" d="M51 936q0 84 74 211l176 287h221l-149 -242q117 -2 184.5 -75t67.5 -177q0 -111 -86 -187.5t-205 -76.5q-121 0 -202 75.5t-81 184.5zM246 940q0 -39 26.5 -64.5t67.5 -25.5q37 0 63.5 26.5t26.5 63.5q0 39 -24.5 64.5t-65.5 25.5q-39 0 -70 -22q-24 -31 -24 -68z" />
<glyph horiz-adv-x="583" d="M41 1260v174h512v-103l-287 -635h-205l252 564h-272z" />
<glyph horiz-adv-x="663" d="M51 926q0 109 90 182q-55 55 -55 129q0 88 70.5 152.5t175.5 64.5q106 0 176 -66.5t70 -156.5q0 -76 -52 -123q86 -63 86 -182q0 -104 -78.5 -177t-201.5 -73t-202 73t-79 177zM246 930q0 -35 23.5 -57.5t62.5 -22.5t62.5 22.5t23.5 57.5t-23.5 58.5t-62.5 23.5 t-62.5 -23.5t-23.5 -58.5zM276 1223q0 -23 15.5 -39.5t40 -16.5t40 16.5t15.5 39.5q0 25 -15.5 41t-40 16t-40 -16t-15.5 -41z" />
<glyph horiz-adv-x="675" d="M51 1190q0 109 85 186.5t202 77.5q111 0 199 -72.5t88 -187.5q0 -84 -74 -211l-176 -287h-221l149 242q-117 2 -184.5 75t-67.5 177zM246 1190q0 -39 24.5 -64.5t65.5 -25.5q39 0 70 22q25 31 24 68q0 39 -26.5 64.5t-67.5 25.5q-37 0 -63.5 -26.5t-26.5 -63.5z" />
<glyph horiz-adv-x="692" d="M61 369q0 170 68 279.5t217 109.5q285 0 285 -389t-285 -389q-150 0 -217.5 109.5t-67.5 279.5zM266 368.5q0 -204.5 80 -204.5t80 204.5t-80 204.5t-80 -204.5z" />
<glyph horiz-adv-x="532" d="M61 412v198l246 127h123v-737h-205v496z" />
<glyph horiz-adv-x="649" d="M61 0v102l269 326q43 55 43 88q0 25 -14.5 41t-39.5 16q-45 0 -63 -53l-184 53q23 84 93.5 134.5t162.5 50.5q102 0 173.5 -65.5t71.5 -166.5q0 -96 -86 -202l-120 -150h221v-174h-527z" />
<glyph horiz-adv-x="606" d="M0 80l121 123q45 -55 123 -56q41 0 70.5 26t29.5 67t-30.5 68.5t-73.5 27.5q-39 0 -80 -17v103l119 151h-234v164h471v-102l-123 -174q70 -29 111 -89.5t41 -131.5q0 -113 -87 -186.5t-208 -73.5q-150 0 -250 100z" />
<glyph horiz-adv-x="716" d="M41 143v103l377 491h123v-440h135v-154h-135v-143h-174v143h-326zM274 297h93v119z" />
<glyph horiz-adv-x="602" d="M20 86l136 111q41 -53 104 -54q43 0 71.5 28t28.5 71t-30.5 70.5t-73.5 27.5q-39 0 -74 -23l-110 17l39 403h389v-164h-226l-6 -71h15q127 0 197.5 -79t70.5 -181q0 -117 -81 -189.5t-208 -72.5q-156 0 -242 106z" />
<glyph horiz-adv-x="675" d="M51 240q0 84 74 211l176 286h221l-149 -241q117 -2 184.5 -75t67.5 -177q0 -111 -86 -187.5t-205 -76.5q-121 0 -202 75.5t-81 184.5zM246 244q0 -39 26.5 -64.5t67.5 -25.5q37 0 63.5 26.5t26.5 63.5q0 39 -24.5 64.5t-65.5 25.5q-39 0 -70 -23q-24 -30 -24 -67z" />
<glyph horiz-adv-x="583" d="M41 563v174h512v-102l-287 -635h-205l252 563h-272z" />
<glyph horiz-adv-x="663" d="M51 229q0 109 90 183q-55 55 -55 129q0 88 70.5 152.5t175.5 64.5q106 0 176 -66.5t70 -156.5q0 -76 -52 -123q86 -63 86 -183q0 -104 -78.5 -176.5t-201.5 -72.5t-202 72.5t-79 176.5zM246 233.5q0 -34.5 23.5 -57t62.5 -22.5t62.5 22.5t23.5 57t-23.5 58t-62.5 23.5 t-62.5 -23.5t-23.5 -58zM276 526q0 -23 15.5 -39t40 -16t40 16.5t15.5 38.5q0 25 -15.5 41.5t-40 16.5t-40 -16.5t-15.5 -41.5z" />
<glyph horiz-adv-x="675" d="M51 494q0 109 85 186.5t202 77.5q111 0 199 -73t88 -187q0 -84 -74 -211l-176 -287h-221l149 242q-117 2 -184.5 75t-67.5 177zM246 494q0 -39 24.5 -65t65.5 -26q39 0 70 23q25 31 24 68q0 39 -26.5 64.5t-67.5 25.5q-37 0 -63.5 -26.5t-26.5 -63.5z" />
<glyph d="M256 1434h266l-41 -523h-184zM686 1434h266l-41 -523h-184z" />
<glyph d="M-74 379v225h285l61 225h-225v226h287l100 379h234l-101 -379h258l101 379h233l-100 -379h225v-226h-285l-63 -225h225l8 -225h-292l-101 -379h-233l100 379h-258l-100 -379h-234l101 379h-226zM444 604h258l62 225h-258z" />
<glyph d="M102 195l181 188q143 -158 338 -158q92 0 150 51.5t58 129.5q0 82 -65.5 132t-199.5 101t-193 86q-203 119 -203 326q0 143 90 243.5t229 139.5v235h246v-221q174 -18 324 -129l-144 -205q-102 94 -247 94q-88 0 -155 -39t-67 -116q0 -61 69 -107.5t165 -82.5t193.5 -83 t166 -141t68.5 -229q0 -158 -106.5 -271.5t-266.5 -146.5v-228h-246v230q-211 39 -385 201z" />
<glyph d="M471 1434h266l-41 -523h-184z" />
<glyph d="M133 461v225h359v358h225v-358h358v-225h-358v-359h-225v359h-359z" />
<glyph d="M102 716.5q0 157.5 28 288t85 232.5t156.5 159.5t232.5 57.5t232.5 -57.5t157 -159.5t85 -232.5t27.5 -288t-27.5 -287.5t-85 -232.5t-157 -159.5t-232.5 -57t-232.5 57t-156.5 159.5t-85 232.5t-28 287.5zM379 717q0 -221 54 -356.5t171 -135.5t171 135.5t54 356.5 t-54 356t-171 135t-171 -135t-54 -356z" />
<glyph d="M113 0v246h409v868l-307 -172v262l389 230h195v-1188h317v-246h-1003z" />
<glyph d="M123 0v164l504 571q141 160 141 281q0 78 -53 135t-133 57q-70 0 -121 -44t-74 -117l-254 75q43 150 166 241t283 91q188 0 325 -126t137 -316q0 -201 -184 -412l-305 -354h500v-246h-932z" />
<glyph d="M88 203l199 166q102 -143 266 -144q106 0 187 75t81 185q0 113 -81 188t-201 75q-90 0 -172 -41v163l268 318h-479v246h870v-164l-260 -320q152 -57 242 -181t90 -284q0 -223 -153.5 -364t-381.5 -141q-276 0 -475 223z" />
<glyph d="M20 328v164l748 942h195v-861h235v-245h-235v-328h-277v328h-666zM418 573h268v336z" />
<glyph d="M123 164l188 176q106 -115 246 -115q100 0 172 66q80 74 80 184q0 119 -88 195q-66 57 -174 57q-117 0 -211 -78l-172 25l92 760h758v-246h-533l-22 -225q47 10 110 10q201 0 334 -109q84 -68 133 -171t49 -218q0 -211 -154.5 -353t-373.5 -142q-250 0 -434 184z" />
<glyph d="M92 469q0 158 141 395l338 570h306l-271 -457h19q207 0 354 -141.5t147 -352.5q0 -209 -150.5 -356t-359.5 -147q-211 0 -367.5 136t-156.5 353zM358 469q0 -100 75 -172t179.5 -72t173 73t68.5 177q0 106 -71.5 181t-184.5 75q-78 0 -154 -35q-86 -116 -86 -227z" />
<glyph d="M143 1188v246h942v-164l-616 -1270h-293l580 1188h-613z" />
<glyph d="M92 444q0 227 207 363q-115 102 -115 252q0 166 120 280.5t300 114.5t300 -114.5t120 -280.5q0 -150 -115 -252q207 -135 207 -363q0 -195 -148.5 -329.5t-363.5 -134.5t-363.5 134.5t-148.5 329.5zM369 444.5q0 -92.5 67.5 -156t168 -63.5t168 63.5t67.5 156t-67.5 157 t-168 64.5t-168 -64.5t-67.5 -157zM461 1058.5q0 -63.5 40 -105.5t103.5 -42t103.5 42t40 105.5t-40 106.5t-103.5 43t-103.5 -43t-40 -106.5z" />
<glyph d="M82 950q0 209 150.5 356.5t359.5 147.5q211 0 367.5 -136t156.5 -353q0 -158 -141 -396l-338 -569h-305l270 457h-18q-207 0 -354.5 141t-147.5 352zM354 958q0 -106 72 -181t184 -75q78 0 154 35q86 117 86 228q0 100 -75 171.5t-179 71.5t-173 -73t-69 -177z" />
<glyph d="M133 502v143l942 410v-244l-545 -238l545 -237v-244z" />
<glyph d="M133 246v225h942v-225h-942zM133 676v225h942v-225h-942z" />
<glyph d="M133 92v244l545 237l-545 238v244l942 -410v-143z" />
<glyph d="M133 717l379 717h184l379 -717h-254l-217 411l-217 -411h-254z" />
<glyph d="M61 440q29 141 117 236.5t228 95.5q84 0 159.5 -43t133 -86t96.5 -43q49 0 84.5 45t48.5 117l219 -55q-29 -141 -117 -236.5t-227 -95.5q-84 0 -160 43t-133 86t-96 43q-49 0 -85 -45t-48 -117z" />
<glyph d="M133 495.5q0 180.5 109.5 317.5t283.5 182v234h246v-225q195 -37 313 -189l-188 -166q-90 119 -229 119q-115 0 -192 -79t-77 -193q0 -117 76 -194t195 -77q78 0 142.5 38t98.5 93l205 -153q-137 -180 -344 -215v-224h-246v234q-176 41 -284.5 179t-108.5 318.5z" />
<glyph d="M113 0v164q127 41 197.5 132t70.5 210q0 51 -10 98h-228v225h136q-41 98 -41 211q0 172 128 293t306 121q150 0 254 -74.5t151 -203.5l-231 -91q-20 53 -64.5 88t-101.5 35q-74 0 -125 -48t-51 -120q0 -78 57 -211h277v-225h-199q8 -57 8 -96q0 -141 -82 -262h561v-246 h-1013z" />
<glyph d="M61 350l164 162q-53 94 -53 207q0 111 53 205l-164 163l175 175l163 -164q94 53 205 53q113 0 207 -53l162 164l174 -175l-162 -163q51 -96 51 -205q0 -111 -51 -207l162 -162l-174 -174l-162 162q-96 -51 -207 -51q-109 0 -205 51l-163 -162zM438 718.5 q0 -69.5 48.5 -117.5t118 -48t117.5 48t48 117.5t-48 118t-117.5 48.5t-118 -48.5t-48.5 -118z" />
<glyph d="M-27 1434h316l315 -504l314 504h315l-277 -441h181v-225h-322l-63 -102h385v-226h-396v-440h-276v440h-395v226h385l-66 102h-319v225h178z" />
<glyph d="M96 543q0 182 144 305q-61 84 -62 203q0 182 141.5 292.5t331.5 110.5q233 0 416 -135l-143 -205q-102 94 -248 94q-88 0 -154.5 -39t-66.5 -116q0 -53 50 -94t123.5 -65t162 -60.5t162 -79.5t123.5 -124t50 -190q0 -180 -143 -307q61 -88 61 -201q0 -182 -141 -292.5 t-332 -110.5q-233 0 -415 135l143 205q102 -94 248 -94q88 0 154.5 39t66.5 116q0 53 -50 94.5t-124 65t-162 60t-161.5 79.5t-124 124t-50.5 190zM373 547q0 -55 40 -96t88 -60.5t136 -48.5t137 -51q76 53 76 145q0 55 -41 96t-88 59.5t-136 48.5t-136 50q-76 -51 -76 -143 z" />
<glyph d="M133 676v225h942v-655h-225v430h-717z" />
<glyph d="M133 61v226h942v-226h-942zM133 602v225h359v258h225v-258h358v-225h-358v-258h-225v258h-359z" />
<glyph d="M123 -492v1485h266v-536q0 -115 49 -170q55 -61 150 -62q135 0 231 123v645h266v-993h-256v80q-113 -100 -268 -100q-98 0 -172 45v-517h-266z" />
<glyph d="M147 276l297 297l-297 297l160 160l297 -297l297 297l160 -160l-297 -297l297 -297l-160 -159l-297 297l-297 -297z" />
<glyph d="M133 461v225h942v-225h-942zM451 210.5q0 63.5 45 106.5t108.5 43t108.5 -43t45 -106.5t-45 -106.5t-108.5 -43t-108.5 43t-45 106.5zM451 935.5q0 63.5 45 106.5t108.5 43t108.5 -43t45 -106.5t-45 -106.5t-108.5 -43t-108.5 43t-45 106.5z" />
<glyph d="M-154 -469l68 221q74 -29 135 -28q186 0 246 190q12 39 23.5 93t19.5 98.5t19.5 122t15.5 116.5t15 135t15 125h-327v225h356q31 203 55 283q111 362 498 363q106 0 203 -43l-68 -222q-74 29 -135 29q-186 0 -246 -190q-25 -72 -49 -220h328v-225h-361 q-8 -61 -24.5 -205.5t-25.5 -221.5t-26.5 -173t-33.5 -154q-111 -362 -498 -362q-107 0 -203 43z" />
<glyph d="M18 809q57 86 166 125q76 29 191 29h815v-226h-205v-424q0 -66 14.5 -100.5t55.5 -69.5l-174 -163q-86 66 -114 141.5t-28 208.5v407h-202v-737h-246v735q-78 -10 -129 -73z" />
<glyph d="M-51 440v226h143v102h-143v225h186q72 207 234.5 334t378.5 127q293 0 475 -240l-199 -161q-106 156 -272 155q-104 0 -188.5 -56t-131.5 -159h481v-225h-542q-2 -16 -2 -51t2 -51h542v-226h-485q43 -100 129 -157.5t195 -57.5q201 0 313 187l205 -154 q-203 -279 -518 -278q-221 0 -385 124.5t-234 335.5h-184z" />
<glyph d="M76 496q0 211 141 359.5t361 156.5l-316 442h309l379 -526q182 -250 183 -432q0 -215 -151 -365.5t-374 -150.5q-227 0 -379.5 149.5t-152.5 366.5zM342 496q0 -115 76 -193t190 -78q113 0 187.5 79t74.5 192q0 117 -75 211l-19 22q-59 39 -151 39q-125 0 -204 -75.5 t-79 -196.5z" />
<glyph d="M20 0v143l492 1291h184l492 -1291v-143h-1168zM293 225h622l-311 819z" />
<glyph d="M31 1208v226h1147v-226h-205v-1208h-246v1208h-246v-1208h-245v1208h-205z" />
<glyph d="M20 0v143l562 594l-541 553v144h1085v-430h-225v204h-465l393 -397v-143l-421 -443h514v205h225v-430h-1127z" />
<glyph d="M133 461v225h942v-225h-942z" />
<glyph d="M-41 768v225h342l289 -626l381 1067h237l-510 -1434h-184l-358 768h-197z" />
<glyph d="M-154 -469l68 221q74 -29 135 -28q186 0 246 190q47 152 100.5 611.5t91.5 586.5q111 362 498 363q106 0 203 -43l-68 -222q-74 29 -135 29q-186 0 -246 -190q-47 -152 -100 -612t-92 -587q-111 -362 -498 -362q-107 0 -203 43z" />
<glyph d="M61 215q29 141 117 236.5t228 95.5q84 0 159.5 -43t133 -86t96.5 -43q49 0 84.5 45t48.5 117l219 -56q-29 -141 -117 -236t-227 -95q-84 0 -160 43t-133 86t-96 43q-49 0 -85 -45.5t-48 -116.5zM61 666q29 141 117 236t228 95q84 0 159.5 -43t133 -86t96.5 -43 q49 0 84.5 45t48.5 117l219 -55q-29 -141 -117 -236.5t-227 -95.5q-84 0 -160 43t-133 86t-96 43q-49 0 -85 -45t-48 -117z" />
<glyph d="M133 246v225h295l115 205h-410v225h537l127 225h258l-127 -225h147v-225h-274l-115 -205h389v-225h-516l-127 -226h-258l127 226h-168z" />
<glyph d="M133 61v226h942v-226h-942zM133 643v143l942 310v-238l-446 -143l446 -144v-237z" />
<glyph d="M133 61v226h942v-226h-942zM133 334v237l447 144l-447 143v238l942 -310v-143z" />
<glyph d="M102 645v143l410 646h184l410 -646v-143l-410 -645h-184zM322 717l282 -443l281 443l-281 440z" />
<glyph horiz-adv-x="931" d="M287 716.5q0 526.5 291 942.5l198 -139q-244 -350 -244 -803t244 -803l-198 -139q-291 415 -291 941.5z" />
<glyph horiz-adv-x="931" d="M156 -86q244 350 243.5 802.5t-243.5 803.5l198 139q291 -416 291 -942.5t-291 -941.5z" />
<glyph horiz-adv-x="962" d="M143 655v226h676v-226h-676z" />
<glyph horiz-adv-x="2048" d="M143 717q0 375 257 638t630 263q231 0 431 -108.5t322 -305t122 -436.5q0 -213 -96.5 -352.5t-282.5 -139.5q-143 0 -242 109q-119 -109 -280 -109q-100 0 -199.5 47.5t-173.5 152t-74 241.5q0 197 135 318.5t293 121.5q127 0 223 -63v43h217v-494q0 -80 21 -115 q29 -47 86 -47t92 50.5t45 108.5t10 128q0 268 -192.5 446.5t-454.5 178.5q-276 0 -469.5 -197t-193.5 -479q0 -281 191.5 -478.5t463.5 -197.5q238 0 406 133l126 -186q-229 -172 -518 -172q-375 0 -635 263t-260 638zM782 716.5q0 -98.5 66.5 -167t169.5 -68.5 q123 0 186 78q-4 53 -4 90v230q-66 74 -182 73q-102 0 -169 -68.5t-67 -167z" />
<glyph horiz-adv-x="931" d="M287 -205v1843h563v-235h-318v-1372h318v-236h-563z" />
<glyph horiz-adv-x="931" d="M82 31h317v1372h-317v235h563v-1843h-563v236z" />
<glyph horiz-adv-x="931" d="M102 635v164q184 0 185 139q0 53 -10.5 162.5t-10.5 171.5q0 180 109.5 273t310.5 93h62v-235h-80q-156 0 -156 -139q0 -49 10 -150.5t10 -157.5q0 -82 -24.5 -134t-52 -70.5t-72.5 -34.5q45 -16 72.5 -34.5t52 -71t24.5 -134.5q0 -55 -10 -156.5t-10 -150.5 q0 -139 156 -139h80v-236h-62q-201 0 -310.5 93.5t-109.5 273.5q0 61 10.5 170.5t10.5 163.5q-1 139 -185 139z" />
<glyph horiz-adv-x="491" d="M123 -205v1843h246v-1843h-246z" />
<glyph horiz-adv-x="931" d="M184 31h80q156 0 156 139q0 49 -10.5 150.5t-10.5 156.5q0 82 25 134.5t52.5 70.5t72.5 35q-45 16 -72.5 34.5t-52.5 70.5t-25 134q0 55 10.5 156.5t10.5 151.5q0 139 -156 139h-80v235h62q201 0 310.5 -93t109.5 -273q0 -61 -10.5 -171t-10.5 -163q0 -139 184 -139v-164 q-184 0 -184 -139q0 -53 10.5 -163t10.5 -171q0 -180 -110 -273.5t-310 -93.5h-62v236z" />
<glyph horiz-adv-x="1349" d="M143 618v144l258 317h293l-319 -389l319 -389h-293zM717 618v144l258 317h293l-320 -389l320 -389h-293z" />
<glyph horiz-adv-x="768" d="M205 717q0 76 51 126t127 50t128 -50t52 -126q0 -74 -52 -124t-128 -50t-127 49t-51 125z" />
<glyph horiz-adv-x="1349" d="M82 301l319 389l-319 389h293l258 -317v-144l-258 -317h-293zM655 301l320 389l-320 389h293l258 -317v-144l-258 -317h-293z" />
<glyph horiz-adv-x="1064" d="M31 655v226h1003v-226h-1003z" />
<glyph horiz-adv-x="1679" d="M31 655v226h1618v-226h-1618z" />
<glyph horiz-adv-x="1228" d="M164 716.5q0 186.5 132 318.5t318.5 132t318.5 -132t132 -318.5t-132 -318.5t-318.5 -132t-318.5 132t-132 318.5z" />
<glyph horiz-adv-x="776" d="M143 618v144l258 317h293l-319 -389l319 -389h-293z" />
<glyph horiz-adv-x="776" d="M82 301l319 389l-319 389h293l258 -317v-144l-258 -317h-293z" />
<glyph horiz-adv-x="1228" d="M113 716.5q0 157.5 27.5 288t85 232.5t156.5 159.5t232.5 57.5t232.5 -57.5t156.5 -159.5t85 -232.5t27.5 -288t-27.5 -287.5t-85 -232.5t-156.5 -159.5t-232.5 -57t-232.5 57t-156.5 159.5t-85 232.5t-27.5 287.5zM389 717q0 -92 4 -133l336 575q-49 49 -115 49 q-117 0 -171 -135t-54 -356zM500 272q47 -47 114 -47q117 0 171.5 135.5t54.5 356.5q0 68 -6 129z" />
<glyph horiz-adv-x="692" d="M61 1065q0 170 68 279.5t217 109.5q285 0 285 -389t-285 -389q-150 0 -217.5 109.5t-67.5 279.5zM266 1059l115 198q-16 12 -35 13q-80 0 -80 -211zM309 874q14 -14 37 -14q80 0 80 215z" />
<glyph horiz-adv-x="692" d="M61 369q0 170 68 279.5t217 109.5q285 0 285 -389t-285 -389q-150 0 -217.5 109.5t-67.5 279.5zM266 362l115 199q-16 12 -35 12q-80 0 -80 -211zM309 178q14 -14 37 -14q80 0 80 215z" />
<glyph horiz-adv-x="692" d="M61 1065q0 170 68 279.5t217 109.5q285 0 285 -389t-285 -389q-150 0 -217.5 109.5t-67.5 279.5zM266 1059l115 198q-16 12 -35 13q-80 0 -80 -211zM309 874q14 -14 37 -14q80 0 80 215z" />
<glyph horiz-adv-x="692" d="M61 369q0 170 68 279.5t217 109.5q285 0 285 -389t-285 -389q-150 0 -217.5 109.5t-67.5 279.5zM266 362l115 199q-16 12 -35 12q-80 0 -80 -211zM309 178q14 -14 37 -14q80 0 80 215z" />
<glyph d="M102 716.5q0 157.5 28 288t85 232.5t156.5 159.5t232.5 57.5t232.5 -57.5t157 -159.5t85 -232.5t27.5 -288t-27.5 -287.5t-85 -232.5t-157 -159.5t-232.5 -57t-232.5 57t-156.5 159.5t-85 232.5t-28 287.5zM379 717q0 -92 4 -133l336 575q-49 49 -115 49 q-117 0 -171 -135t-54 -356zM489 272q47 -47 115 -47q117 0 171 135.5t54 356.5q0 68 -6 129z" />
<glyph horiz-adv-x="1095" d="M92 311q0 158 119 251t289 93q106 0 196 -43q0 92 -57 134t-145 42q-133 0 -265 -81l-86 204q156 102 375 103q229 0 354 -156q90 -113 91 -305v-553h-256v80q-29 -39 -99.5 -69.5t-156.5 -30.5q-152 0 -255.5 96t-103.5 235zM358 311q0 -47 39 -76.5t95 -29.5 q121 0 204 102v103q-53 31 -133 30q-47 0 -90 -10t-79 -41t-36 -78z" />
<glyph horiz-adv-x="1095" d="M92 311q0 158 119 251t289 93q106 0 196 -43q0 92 -57 134t-145 42q-133 0 -265 -81l-86 204q156 102 375 103q229 0 354 -156q90 -113 91 -305v-553h-256v80q-29 -39 -99.5 -69.5t-156.5 -30.5q-152 0 -255.5 96t-103.5 235zM246 1475h286l144 -328h-184zM358 311 q0 -47 39 -76.5t95 -29.5q121 0 204 102v103q-53 31 -133 30q-47 0 -90 -10t-79 -41t-36 -78z" />
<glyph horiz-adv-x="1095" d="M92 311q0 158 119 251t289 93q106 0 196 -43q0 92 -57 134t-145 42q-133 0 -265 -81l-86 204q156 102 375 103q229 0 354 -156q90 -113 91 -305v-553h-256v80q-29 -39 -99.5 -69.5t-156.5 -30.5q-152 0 -255.5 96t-103.5 235zM358 311q0 -47 39 -76.5t95 -29.5 q121 0 204 102v103q-53 31 -133 30q-47 0 -90 -10t-79 -41t-36 -78zM430 1147l143 328h287l-246 -328h-184z" />
<glyph horiz-adv-x="1095" d="M92 311q0 158 119 251t289 93q106 0 196 -43q0 92 -57 134t-145 42q-133 0 -265 -81l-86 204q156 102 375 103q229 0 354 -156q90 -113 91 -305v-553h-256v80q-29 -39 -99.5 -69.5t-156.5 -30.5q-152 0 -255.5 96t-103.5 235zM195 1147l204 328h287l205 -328h-184 l-164 184l-164 -184h-184zM358 311q0 -47 39 -76.5t95 -29.5q121 0 204 102v103q-53 31 -133 30q-47 0 -90 -10t-79 -41t-36 -78z" />
<glyph horiz-adv-x="1095" d="M92 311q0 158 119 251t289 93q106 0 196 -43q0 92 -57 134t-145 42q-133 0 -265 -81l-86 204q156 102 375 103q229 0 354 -156q90 -113 91 -305v-553h-256v80q-29 -39 -99.5 -69.5t-156.5 -30.5q-152 0 -255.5 96t-103.5 235zM158 1200q0 117 60.5 196t166.5 79 q66 0 166 -51.5t139 -51.5q72 0 82 103l164 -33q0 -117 -60.5 -196t-166.5 -79q-66 0 -166.5 51.5t-139.5 51.5q-72 0 -81 -103zM358 311q0 -47 39 -76.5t95 -29.5q121 0 204 102v103q-53 31 -133 30q-47 0 -90 -10t-79 -41t-36 -78z" />
<glyph horiz-adv-x="1095" d="M92 311q0 158 119 251t289 93q106 0 196 -43q0 92 -57 134t-145 42q-133 0 -265 -81l-86 204q156 102 375 103q229 0 354 -156q90 -113 91 -305v-553h-256v80q-29 -39 -99.5 -69.5t-156.5 -30.5q-152 0 -255.5 96t-103.5 235zM178 1314.5q0 67.5 48 114t116 46.5 t116 -46.5t48 -114t-48 -113.5t-116 -46t-116 46t-48 113.5zM358 311q0 -47 39 -76.5t95 -29.5q121 0 204 102v103q-53 31 -133 30q-47 0 -90 -10t-79 -41t-36 -78zM608 1314.5q0 67.5 48.5 114t116 46.5t115.5 -46.5t48 -114t-48 -113.5t-115.5 -46t-116 46t-48.5 113.5z " />
<glyph horiz-adv-x="1095" d="M92 311q0 158 119 251t289 93q106 0 196 -43q0 92 -57 134t-145 42q-133 0 -265 -81l-86 204q156 102 375 103q229 0 354 -156q90 -113 91 -305v-553h-256v80q-29 -39 -99.5 -69.5t-156.5 -30.5q-152 0 -255.5 96t-103.5 235zM317 1331q0 94 66 159.5t160 65.5 t159.5 -65.5t65.5 -159.5t-65.5 -159.5t-159.5 -65.5t-160 65.5t-66 159.5zM358 311q0 -47 39 -76.5t95 -29.5q121 0 204 102v103q-53 31 -133 30q-47 0 -90 -10t-79 -41t-36 -78zM481 1331.5q0 -26.5 17.5 -44t44 -17.5t44 17.5t17.5 44t-17.5 44t-44 17.5t-44 -17.5 t-17.5 -44z" />
<glyph horiz-adv-x="1710" d="M92 311q0 158 119 251t289 93q106 0 196 -43q0 92 -57 134t-145 42q-133 0 -265 -81l-86 204q156 102 375 103q203 0 328 -137q127 137 323 137q203 0 336 -148.5t133 -359.5q0 -43 -6 -76h-688q10 -104 86 -169.5t182 -65.5q143 0 250 114l152 -151q-72 -84 -181.5 -131 t-226.5 -47q-162 0 -276 73v-53h-223v80q-29 -39 -99.5 -69.5t-156.5 -30.5q-152 0 -255.5 96t-103.5 235zM358 311q0 -47 39 -76.5t95 -29.5q121 0 204 102v103q-53 31 -133 30q-47 0 -90 -10t-79 -41t-36 -78zM956 625h410q-6 70 -62.5 122t-134.5 52q-80 0 -141.5 -52 t-71.5 -122z" />
<glyph horiz-adv-x="1095" d="M92 311q0 158 119 251t289 93q106 0 196 -43q0 92 -57 134t-145 42q-133 0 -265 -81l-86 204q156 102 375 103q229 0 354 -156q90 -113 91 -305v-553h-256v80q-29 -39 -99.5 -69.5t-156.5 -30.5q-152 0 -255.5 96t-103.5 235zM240 1208v205h655v-205h-655zM358 311 q0 -47 39 -76.5t95 -29.5q121 0 204 102v103q-53 31 -133 30q-47 0 -90 -10t-79 -41t-36 -78z" />
<glyph horiz-adv-x="1095" d="M92 311q0 158 119 251t289 93q106 0 196 -43q0 92 -57 134t-145 42q-133 0 -265 -81l-86 204q156 102 375 103q229 0 354 -156q90 -113 91 -305v-553h-256v80q-29 -39 -99.5 -69.5t-156.5 -30.5q-152 0 -255.5 96t-103.5 235zM260 1475h215q0 -39 26.5 -66t65.5 -27 t65.5 27t26.5 66h215q0 -127 -90 -217.5t-217 -90.5t-217 90.5t-90 217.5zM358 311q0 -47 39 -76.5t95 -29.5q121 0 204 102v103q-53 31 -133 30q-47 0 -90 -10t-79 -41t-36 -78z" />
<glyph horiz-adv-x="1095" d="M92 311q0 158 119 251t289 93q106 0 196 -43q0 92 -57 134t-145 42q-133 0 -265 -81l-86 204q156 102 375 103q229 0 354 -156q90 -113 91 -305v-553q-53 -78 -54 -129q0 -37 22.5 -61.5t59.5 -24.5q27 0 51 8l31 -223q-41 -20 -133 -21q-125 0 -200.5 71t-75.5 175 q0 86 43 191v94q-29 -39 -99.5 -69.5t-156.5 -30.5q-152 0 -255.5 96t-103.5 235zM358 311q0 -47 39 -76.5t95 -29.5q121 0 204 102v103q-53 31 -133 30q-47 0 -90 -10t-79 -41t-36 -78z" />
<glyph horiz-adv-x="1095" d="M92 311q0 158 119 251t289 93q106 0 196 -43q0 92 -57 134t-145 42q-133 0 -265 -81l-86 204q156 102 375 103q229 0 354 -156q90 -113 91 -305v-553h-256v80q-29 -39 -99.5 -69.5t-156.5 -30.5q-152 0 -255.5 96t-103.5 235zM317 1331q0 94 66 159.5t160 65.5 t159.5 -65.5t65.5 -159.5t-65.5 -159.5t-159.5 -65.5t-160 65.5t-66 159.5zM358 311q0 -47 39 -76.5t95 -29.5q121 0 204 102v103q-53 31 -133 30q-47 0 -90 -10t-79 -41t-36 -78zM451 1638l143 328h287l-246 -328h-184zM481 1331.5q0 -26.5 17.5 -44t44 -17.5t44 17.5 t17.5 44t-17.5 44t-44 17.5t-44 -17.5t-17.5 -44z" />
<glyph horiz-adv-x="1710" d="M92 311q0 158 119 251t289 93q106 0 196 -43q0 92 -57 134t-145 42q-133 0 -265 -81l-86 204q156 102 375 103q203 0 328 -137q127 137 323 137q203 0 336 -148.5t133 -359.5q0 -43 -6 -76h-688q10 -104 86 -169.5t182 -65.5q143 0 250 114l152 -151q-72 -84 -181.5 -131 t-226.5 -47q-162 0 -276 73v-53h-223v80q-29 -39 -99.5 -69.5t-156.5 -30.5q-152 0 -255.5 96t-103.5 235zM358 311q0 -47 39 -76.5t95 -29.5q121 0 204 102v103q-53 31 -133 30q-47 0 -90 -10t-79 -41t-36 -78zM737 1147l144 328h286l-245 -328h-185zM956 625h410 q-6 70 -62.5 122t-134.5 52q-80 0 -141.5 -52t-71.5 -122z" />
<glyph horiz-adv-x="1024" d="M41 768v225h256v21q0 227 121 342q125 119 332 119q123 0 223 -54l-92 -213q-66 31 -131 31q-94 0 -142 -53q-45 -49 -45 -142v-51h389v-225h-389v-768h-266v768h-256z" />
<glyph horiz-adv-x="655" d="M-154 -457l105 209q57 -29 119 -28q92 0 135 53q31 37 31 121v1095h266v-1044q0 -213 -88 -318q-121 -143 -322 -143q-148 0 -246 55zM195 1345.5q0 71.5 51 121t122.5 49.5t123 -49.5t51.5 -121t-51.5 -120.5t-123 -49t-122.5 49t-51 120.5z" />
<glyph horiz-adv-x="921" d="M154 0v993h256v-100q41 51 113.5 86t148.5 35q123 0 219 -51l-82 -232q-66 37 -147 37q-80 0 -146.5 -45t-95.5 -98v-625h-266z" />
<glyph horiz-adv-x="1075" d="M41 768v225h276v277h267v-277h420v-225h-420v-358q0 -104 34 -142q47 -53 134 -53q70 0 139 31l94 -213q-127 -53 -250 -53q-186 0 -309 116q-109 102 -109 344v328h-276z" />
<glyph horiz-adv-x="1228" d="M113 1345.5q0 71.5 51 121t122.5 49.5t123 -49.5t51.5 -121t-51.5 -120.5t-123 -49t-122.5 49t-51 120.5zM154 0v993h266v-993h-266zM420 -457l104 209q57 -29 119 -28q92 0 135 53q31 37 31 121v1095h266v-1044q0 -213 -88 -318q-121 -143 -321 -143q-148 0 -246 55z M768 1345.5q0 71.5 51 121t123 49.5t123 -49.5t51 -121t-51 -120.5t-123 -49t-123 49t-51 120.5z" />
<glyph horiz-adv-x="655" d="M-154 -457l105 209q57 -29 119 -28q92 0 135 53q31 37 31 121v1095h266v-1044q0 -213 -88 -318q-121 -143 -322 -143q-148 0 -246 55zM0 1147l205 328h287l204 -328h-184l-164 184l-164 -184h-184z" />
<glyph horiz-adv-x="921" d="M154 0v993h256v-100q41 51 113.5 86t148.5 35q123 0 219 -51l-82 -232q-66 37 -147 37q-80 0 -146.5 -45t-95.5 -98v-625h-266zM389 1147l143 328h287l-246 -328h-184z" />
<glyph horiz-adv-x="921" d="M10 -451l144 328h286l-245 -328h-185zM154 0v993h256v-100q41 51 113.5 86t148.5 35q123 0 219 -51l-82 -232q-66 37 -147 37q-80 0 -146.5 -45t-95.5 -98v-625h-266z" />
<glyph horiz-adv-x="921" d="M154 0v993h256v-100q41 51 113.5 86t148.5 35q123 0 219 -51l-82 -232q-66 37 -147 37q-80 0 -146.5 -45t-95.5 -98v-625h-266zM154 1475h184l164 -185l164 185h184l-205 -328h-287z" />
<glyph horiz-adv-x="1075" d="M41 768v225h276v277h267v-277h420v-225h-420v-358q0 -104 34 -142q47 -53 134 -53q70 0 139 31l94 -213q-127 -53 -250 -53q-186 0 -309 116q-109 102 -109 344v328h-276zM389 -451l143 328h287l-246 -328h-184z" />
<glyph horiz-adv-x="1075" d="M41 768v225h276v277h267v-277h420v-225h-420v-358q0 -104 34 -142q47 -53 134 -53q70 0 139 31l94 -213q-127 -53 -250 -53q-186 0 -309 116q-109 102 -109 344v328h-276zM666 1106l143 328h287l-246 -328h-184z" />
<glyph horiz-adv-x="1075" d="M41 399v226h276v143h-276v225h276v277h267v-277h420v-225h-420v-143h420v-226h-420q0 -96 34 -131q47 -53 134 -53q70 0 139 31l94 -213q-127 -53 -250 -53q-186 0 -309 116q-102 96 -109 303h-276z" />
<glyph horiz-adv-x="655" d="M-154 -457l105 209q57 -29 119 -28q92 0 135 53q31 37 31 121v1095h266v-1044q0 -213 -88 -318q-121 -143 -322 -143q-148 0 -246 55z" />
<glyph horiz-adv-x="1781" d="M41 768v225h256v21q0 227 121 342q125 119 332 119q104 0 192 -39l-78 -219q-59 23 -114 22q-94 0 -142 -53q-45 -49 -45 -142v-51h492v21q0 227 121 342q125 119 331 119q123 0 224 -54l-93 -213q-66 31 -131 31q-94 0 -141 -53q-45 -49 -45 -142v-51h389v-225h-389 v-768h-266v768h-492v-768h-266v768h-256z" />
<glyph horiz-adv-x="1474" d="M41 768v225h256v21q0 227 121 342q125 119 332 119q104 0 192 -39l-78 -219q-59 23 -114 22q-94 0 -142 -53q-45 -49 -45 -142v-51h758v-993h-266v768h-492v-768h-266v768h-256zM1014 1345.5q0 71.5 51 121t123 49.5t123 -49.5t51 -121t-51 -120.5t-123 -49t-123 49 t-51 120.5z" />
<glyph horiz-adv-x="1474" d="M41 768v225h256v21q0 227 121 342q125 119 332 119q104 0 192 -39l-78 -219q-59 23 -114 22q-94 0 -142 -53q-45 -49 -45 -142v-51h492v461h266v-1454h-266v768h-492v-768h-266v768h-256z" />
<glyph horiz-adv-x="2232" d="M41 768v225h256v21q0 227 121 342q125 119 332 119q104 0 192 -39l-78 -219q-59 23 -114 22q-94 0 -142 -53q-45 -49 -45 -142v-51h492v21q0 227 121 342q125 119 331 119q104 0 193 -39l-78 -219q-59 23 -115 22q-94 0 -141 -53q-45 -49 -45 -142v-51h758v-993h-267v768 h-491v-768h-266v768h-492v-768h-266v768h-256zM1772 1345.5q0 71.5 51 121t122.5 49.5t123 -49.5t51.5 -121t-51.5 -120.5t-123 -49t-122.5 49t-51 120.5z" />
<glyph horiz-adv-x="2232" d="M41 768v225h256v21q0 227 121 342q125 119 332 119q104 0 192 -39l-78 -219q-59 23 -114 22q-94 0 -142 -53q-45 -49 -45 -142v-51h492v21q0 227 121 342q125 119 331 119q104 0 193 -39l-78 -219q-59 23 -115 22q-94 0 -141 -53q-45 -49 -45 -142v-51h491v461h267v-1454 h-267v768h-491v-768h-266v768h-492v-768h-266v768h-256z" />
<glyph horiz-adv-x="931" d="M287 716.5q0 397.5 170 737.5l221 -102q-145 -295 -145.5 -635t145.5 -635l-221 -102q-170 339 -170 736.5z" />
<glyph horiz-adv-x="931" d="M254 82q145 295 145 635t-145 635l221 102q170 -340 170 -737.5t-170 -736.5z" />
<glyph horiz-adv-x="931" d="M287 0v1434h563v-236h-318v-962h318v-236h-563z" />
<glyph horiz-adv-x="931" d="M82 0v236h317v962h-317v236h563v-1434h-563z" />
<glyph horiz-adv-x="931" d="M102 635v164q184 0 185 139q0 20 -5.5 76.5t-5.5 83.5q0 193 156 282q96 53 264 54h52v-236h-70q-156 0 -156 -127q0 -27 5 -73t5 -68q0 -70 -25.5 -117t-52 -63.5t-71.5 -32.5q45 -16 71.5 -32.5t52 -64t25.5 -116.5q0 -23 -5 -69t-5 -73q0 -127 156 -126h70v-236h-52 q-168 0 -264 53q-156 90 -156 283q0 27 5.5 83t5.5 77q-1 139 -185 139z" />
<glyph horiz-adv-x="491" d="M123 0v1434h246v-1434h-246z" />
<glyph horiz-adv-x="931" d="M184 0v236h70q156 0 156 126q0 27 -5.5 73t-5.5 69q0 70 26 117t52.5 63t71.5 33q-45 16 -71.5 32.5t-52.5 63.5t-26 117q0 23 5.5 68.5t5.5 72.5q0 127 -156 127h-70v236h52q168 0 264 -54q156 -90 155 -282q0 -27 -5 -83.5t-5 -76.5q0 -139 184 -139v-164 q-184 0 -184 -139q0 -20 5 -77t5 -83q0 -193 -155 -283q-96 -53 -264 -53h-52z" />
<glyph horiz-adv-x="2293" d="M31 420v225h2232v-225h-2232z" />
<glyph horiz-adv-x="2908" d="M31 420v225h2846v-225h-2846z" />
<glyph horiz-adv-x="2293" d="M31 655v226h2232v-226h-2232z" />
<glyph horiz-adv-x="2908" d="M31 655v226h2846v-226h-2846z" />
<glyph horiz-adv-x="1056" d="M82 856l219 127l-219 127l113 197l221 -127v254h225v-254l221 127l113 -197l-221 -127l221 -127l-113 -197l-221 129v-256h-225v256l-221 -129z" />
<glyph horiz-adv-x="1056" d="M66 950l282 92l-174 240l180 131l174 -239l174 239l181 -131l-174 -240l282 -92l-69 -213l-281 92v-297h-225v297l-281 -90z" />
<glyph horiz-adv-x="1056" d="M78 870v226h256l-129 221l196 113l127 -220l127 220l197 -113l-127 -221h254v-226h-254l127 -221l-197 -112l-127 221l-127 -221l-196 112l129 221h-256z" />
<glyph horiz-adv-x="1056" d="M78 870v226h254v-226h-254zM205 649l127 219l194 -112l-125 -219zM205 1317l196 113l125 -220l-194 -112zM528 756l197 112l127 -219l-197 -112zM528 1210l127 220l197 -113l-127 -219zM727 870v226h252v-226h-252z" />
<glyph horiz-adv-x="1056" d="M78 870v226h336v-226h-336zM100 713l136 137l159 -160l-137 -135zM100 1253l158 158l137 -135l-159 -160zM416 532v336h225v-336h-225zM416 1098v336h225v-336h-225zM643 870v226h336v-226h-336zM662 690l159 160l135 -137l-157 -158zM662 1276l137 135l157 -158 l-135 -137z" />
<glyph horiz-adv-x="2232" d="M41 768v225h256v21q0 227 121 342q125 119 332 119q104 0 192 -39l-78 -219q-59 23 -114 22q-94 0 -142 -53q-45 -49 -45 -142v-51h492v21q0 227 121 342q125 119 331 119q104 0 193 -39l-78 -219q-59 23 -115 22q-94 0 -141 -53q-45 -49 -45 -142v-51h758v-993h-267v768 h-491v-768h-266v768h-492v-768h-266v768h-256zM1772 1345.5q0 71.5 51 121t122.5 49.5t123 -49.5t51.5 -121t-51.5 -120.5t-123 -49t-122.5 49t-51 120.5z" />
<glyph horiz-adv-x="1781" d="M41 768v225h256v21q0 227 121 342q125 119 332 119q104 0 192 -39l-78 -219q-59 23 -114 22q-94 0 -142 -53q-45 -49 -45 -142v-51h492v21q0 227 121 342q125 119 331 119q123 0 224 -54l-93 -213q-66 31 -131 31q-94 0 -141 -53q-45 -49 -45 -142v-51h389v-225h-389 v-768h-266v768h-492v-768h-266v768h-256z" />
<glyph horiz-adv-x="1474" d="M41 768v225h256v21q0 227 121 342q125 119 332 119q104 0 192 -39l-78 -219q-59 23 -114 22q-94 0 -142 -53q-45 -49 -45 -142v-51h492v461h266v-1454h-266v768h-492v-768h-266v768h-256z" />
<glyph horiz-adv-x="1474" d="M41 768v225h256v21q0 227 121 342q125 119 332 119q104 0 192 -39l-78 -219q-59 23 -114 22q-94 0 -142 -53q-45 -49 -45 -142v-51h758v-993h-266v768h-492v-768h-266v768h-256zM1014 1345.5q0 71.5 51 121t123 49.5t123 -49.5t51 -121t-51 -120.5t-123 -49t-123 49 t-51 120.5z" />
<glyph horiz-adv-x="2232" d="M41 768v225h256v21q0 227 121 342q125 119 332 119q104 0 192 -39l-78 -219q-59 23 -114 22q-94 0 -142 -53q-45 -49 -45 -142v-51h492v21q0 227 121 342q125 119 331 119q104 0 193 -39l-78 -219q-59 23 -115 22q-94 0 -141 -53q-45 -49 -45 -142v-51h491v461h267v-1454 h-267v768h-491v-768h-266v768h-492v-768h-266v768h-256z" />
<glyph horiz-adv-x="1095" d="M164 0v1434h276v-1188h604v-246h-880zM602 716.5q0 71.5 51.5 121t123 49.5t122.5 -49.5t51 -121t-51 -120.5t-122.5 -49t-123 49t-51.5 120.5z" />
<glyph horiz-adv-x="696" d="M154 0v1454h266v-1454h-266zM522 716.5q0 71.5 51.5 121t123 49.5t122.5 -49.5t51 -121t-51 -120.5t-122.5 -49t-123 49t-51.5 120.5z" />
<glyph horiz-adv-x="962" d="M143 604v225h676v-225h-676z" />
<glyph horiz-adv-x="110" />
</font>
</defs>
</svg>
